<?xml version="1.0" encoding="UTF-8"?>
<svg width="71px" height="66px" viewBox="0 0 71 66" version="1.1" xmlns="http://www.w3.org/2000/svg" xmlns:xlink="http://www.w3.org/1999/xlink">
    <!-- Generator: Sketch 54 (76480) - https://sketchapp.com -->
    <title>2</title>
    <desc>Created with Sketch.</desc>
    <g id="Page-1" stroke="none" stroke-width="1" fill="none" fill-rule="evenodd">
        <g id="大屏--copy-2复制" transform="translate(-1598.000000, -780.000000)">
            <g id="2" transform="translate(1598.000000, 780.000000)">
                <g id="终点" transform="translate(-0.000000, 0.000000)">
                    <g transform="translate(-0.000000, 0.000000)">
                        <path d="M2,3.59906349 L29.5785355,3.59906349 L33.9856413,0.153144303 C34.7116866,-0.414551051 35.731667,-0.412593772 36.4555283,0.15788386 L40.8219335,3.59906349 L69,3.59906349 C70.1045695,3.59906349 71,4.49449399 71,5.59906349 L71,28.5990635 C71,29.703633 70.1045695,30.5990635 69,30.5990635 L2,30.5990635 C0.8954305,30.5990635 -8.51298575e-14,29.703633 -8.52651283e-14,28.5990635 L-8.52651283e-14,5.59906349 C-8.5400399e-14,4.49449399 0.8954305,3.59906349 2,3.59906349 Z" id="矩形" fill="#D5001C" opacity="0.800000012" transform="translate(35.500000, 15.299532) scale(1, -1) translate(-35.500000, -15.299532) "></path>
                        <path d="M27.31,17.7995317 L27.31,9.25553174 L31.882,9.25553174 L31.882,10.1675317 L28.306,10.1675317 L28.306,12.9875317 L31.594,12.9875317 L31.594,13.8275317 L28.306,13.8275317 L28.306,17.0075317 L31.882,17.0075317 L31.882,17.7995317 L27.31,17.7995317 Z M33.274,17.7995317 L33.274,11.7515317 L34.198,11.7515317 L34.198,12.5315317 C34.438,11.9435317 34.966,11.6555317 35.734,11.6555317 C37.03,11.6555317 37.642,12.4475317 37.642,13.7435317 L37.642,17.7995317 L36.682,17.7995317 L36.682,13.9955317 C36.682,12.9275317 36.346,12.5315317 35.494,12.5315317 C34.666,12.5315317 34.234,12.8555317 34.234,13.9955317 L34.234,17.7995317 L33.274,17.7995317 Z M41.158,17.8955317 C39.55,17.8955317 38.938,16.9475317 38.938,14.7755317 C38.938,12.6035317 39.682,11.6555317 41.278,11.6555317 C41.962,11.6555317 42.454,11.9075317 42.73,12.4235317 L42.73,9.25553174 L43.69,9.25553174 L43.69,17.7995317 L42.766,17.7995317 L42.766,16.9355317 C42.466,17.5715317 41.938,17.8955317 41.158,17.8955317 Z M41.326,17.1035317 C42.346,17.1035317 42.73,16.5275317 42.73,14.7755317 C42.73,12.9995317 42.31,12.5315317 41.326,12.5315317 C40.282,12.5315317 39.898,13.0595317 39.898,14.7755317 C39.898,16.5275317 40.282,17.1035317 41.326,17.1035317 Z" id="End" fill="#FFFFFF" fill-rule="nonzero"></path>
                    </g>
                    <g id="定位-红" transform="translate(24.000000, 34.738167)">
                        <path d="M11.1342808,0.0239938733 C14.2807764,0.0923510409 16.9018352,1.13651946 18.995935,3.15559302 C21.0909046,5.17466659 22.1819371,7.7041355 22.2685616,10.7459932 C22.2685616,11.6053871 22.1605529,12.4557198 21.9427958,13.29768 C21.7278658,14.1335874 21.4080441,14.9388682 20.9910871,15.694494 C19.7745035,17.6360043 17.9013867,19.8480437 15.3719177,22.3313371 L11.7058569,25.8654679 C11.3864339,26.1728577 10.881294,26.1728577 10.561871,25.8654679 L6.88348704,22.3313371 C4.34651551,19.8488773 2.46843314,17.6277768 1.25199451,15.6690141 C0.442581853,14.1534132 0.0130117832,12.464056 0,10.7459932 C0.0873492969,7.7041355 1.17780197,5.17466659 3.27262658,3.15559302 C5.36759617,1.13651946 7.98782137,0.092496019 11.1342808,0.0239938733 Z M6.10818048,10.8745525 C6.14359138,12.2684081 6.62524483,13.4330533 7.55401069,14.3683069 C8.48263158,15.3027632 9.6505388,15.7876424 11.0575511,15.8231983 C12.4637298,15.7876424 13.6307672,15.3035968 14.5604029,14.3683069 C15.4890238,13.4330533 15.9706772,12.2684081 16.0061969,10.8745525 C15.9706772,9.48069697 15.4890238,8.31703036 14.5604029,7.38177673 C13.631637,6.44648685 12.4637298,5.96142642 11.0575511,5.92605176 C9.6505388,5.96142642 8.48263158,6.44648685 7.55401069,7.38177673 C6.62524483,8.31703036 6.14359138,9.48069697 6.10905035,10.8745525 L6.10818048,10.8745525 Z" id="Fill-1" stroke="#303639" stroke-width="2"></path>
                        <ellipse id="椭圆形" fill="#313639" opacity="0.277669271" cx="11.2646638" cy="28.8843106" rx="8" ry="1.5"></ellipse>
                    </g>
                </g>
                <path d="M33.64288,47.026082 C33.2678031,46.6485216 33.0767701,46.1943677 33.0577152,45.6127194 C33.0767701,45.031071 33.2678031,44.5775106 33.64288,44.1998622 C34.0160009,43.8243457 34.4700668,43.6327194 35.0577152,43.6127194 C35.644858,43.6327194 36.0990119,43.8243457 36.4720449,44.1998622 C36.8521767,44.5824996 37.0437152,45.044126 37.0582207,45.6376864 C37.0432097,46.1814007 36.8521767,46.6430271 36.4720449,47.026082 C36.0990119,47.4011809 35.644858,47.5932249 35.0577152,47.6127194 C34.4700668,47.5932249 34.0160009,47.4016864 33.64288,47.026082 Z" id="路径" fill="#BF2531"></path>
            </g>
        </g>
    </g>
</svg>