<?xml version="1.0" encoding="UTF-8"?>
<svg width="52px" height="71px" viewBox="0 0 52 71" version="1.1" xmlns="http://www.w3.org/2000/svg" xmlns:xlink="http://www.w3.org/1999/xlink">
    <!-- Generator: Sketch 53.1 (72631) - https://sketchapp.com -->
    <title>湿度</title>
    <desc>Created with Sketch.</desc>
    <g id="Page-1" stroke="none" stroke-width="1" fill="none" fill-rule="evenodd">
        <g id="路线指引" transform="translate(-1661.000000, -174.000000)" fill="#FFFFFF">
            <g id="分组-8" transform="translate(20.000000, 89.885913)">
                <path d="M1666.65524,84.8498277 C1666.65524,84.8498277 1666.65849,84.3393084 1666.6671,84.3483149 C1667.2338,84.9352972 1693.00669,111.733379 1692.08929,128.604226 C1692.03674,143.221437 1680.69111,155.053996 1666.60788,155.053996 C1652.61928,155.053996 1641.27357,143.221437 1641.22102,128.604226 C1640.30379,111.733379 1666.07677,84.9352972 1666.6541,84.3371946 L1666.65524,84.8498277 Z M1647.18061,128.355354 C1647.18061,139.647893 1655.9337,148.802318 1666.73116,148.802318 C1675.81114,148.802318 1683.38497,141.622882 1685.58383,132.847832 C1681.07749,129.237895 1669.75507,130.19405 1669.75507,130.19405 C1660.6127,130.19405 1653.05988,125.868284 1648.21022,121.789919 C1647.54265,123.850745 1647.18061,126.058798 1647.18061,128.355354 Z" id="湿度"></path>
            </g>
        </g>
    </g>
</svg>