<?xml version="1.0" encoding="UTF-8"?>
<svg width="93px" height="136px" viewBox="0 0 93 136" version="1.1" xmlns="http://www.w3.org/2000/svg" xmlns:xlink="http://www.w3.org/1999/xlink">
    <!-- Generator: Sketch 53.1 (72631) - https://sketchapp.com -->
    <title>Rectangle</title>
    <desc>Created with Sketch.</desc>
    <g id="Page-1" stroke="none" stroke-width="1" fill="none" fill-rule="evenodd">
        <g id="startPointes">
            <g id="终点" transform="translate(0.645833, 0.000000)">
                <g id="Group" fill-rule="nonzero">
                    <path d="M2.58333333,4.98456546 L38.2056084,4.98456546 L43.89812,0.546639231 C44.8359285,-0.184483573 46.1534032,-0.181962835 47.0883907,0.552743206 L52.7283308,4.98456546 L89.125,4.98456546 C90.5517356,4.98456546 91.7083333,6.1377714 91.7083333,7.56032303 L91.7083333,37.1815352 C91.7083333,38.6040868 90.5517356,39.7572927 89.125,39.7572927 L2.58333333,39.7572927 C1.15659773,39.7572927 -8.50904035e-14,38.6040868 -8.52651283e-14,37.1815352 L-8.52651283e-14,7.56032303 C-8.54398529e-14,6.1377714 1.15659773,4.98456546 2.58333333,4.98456546 Z" id="矩形" fill="#26D500" opacity="0.800000012" transform="translate(45.854167, 19.878647) scale(-1, 1) rotate(-180.000000) translate(-45.854167, -19.878647) "></path>
                    <path d="M12.6764167,21.9506061 L11.4364167,21.9506061 L11.8704167,10.9469697 L13.2344167,10.9469697 L16.4739167,19.8487879 L19.6514167,10.9469697 L20.9379167,10.9469697 L21.4029167,21.9506061 L20.1629167,21.9506061 L19.8374167,13.7751515 L16.8459167,21.9506061 L16.0089167,21.9506061 L12.9864167,13.6669697 L12.6764167,21.9506061 Z M23.0459167,24.1451515 L23.6504167,24.1451515 C24.3169167,24.1451515 24.7509167,23.8360606 25.0609167,22.9087879 L25.3399167,22.0278788 L22.6739167,14.1615152 L23.9759167,14.1615152 L25.9599167,20.2506061 L27.9439167,14.1615152 L29.0909167,14.1615152 L26.0994167,22.9860606 C25.6189167,24.4078788 25.1539167,25.1651515 23.6659167,25.1651515 L23.0459167,25.1651515 L23.0459167,24.1451515 Z M33.3999167,21.9506061 L33.3999167,10.9469697 L34.6399167,10.9469697 L34.6399167,21.9506061 L33.3999167,21.9506061 Z M39.4449167,22.0742424 C37.2129167,22.0742424 36.3759167,20.8533333 36.3759167,18.0560606 C36.3759167,15.2587879 37.2284167,14.0378788 39.4449167,14.0378788 C41.6769167,14.0378788 42.5139167,15.2587879 42.5139167,18.0560606 C42.5139167,20.8533333 41.6304167,22.0742424 39.4449167,22.0742424 Z M39.4449167,21.0542424 C40.7624167,21.0542424 41.2739167,20.3124242 41.2739167,18.0560606 C41.2739167,15.8460606 40.7624167,15.1660606 39.4449167,15.1660606 C38.1274167,15.1660606 37.6159167,15.8460606 37.6159167,18.0560606 C37.6159167,20.3124242 38.1274167,21.0542424 39.4449167,21.0542424 Z M47.0554167,22.0742424 C44.8544167,22.0742424 44.0019167,20.9460606 44.0019167,18.0406061 C44.0019167,15.2433333 44.8854167,14.0378788 47.0554167,14.0378788 C48.9619167,14.0378788 49.7214167,15.0733333 49.8764167,17.0515152 L48.6984167,17.0515152 C48.5279167,15.5987879 48.1094167,15.1660606 47.0089167,15.1660606 C45.7224167,15.1660606 45.2419167,15.8306061 45.2419167,18.0406061 C45.2419167,20.4051515 45.7379167,21.0542424 47.0089167,21.0542424 C48.1094167,21.0542424 48.5899167,20.5442424 48.6984167,18.9987879 L49.8764167,18.9987879 C49.7369167,21.2242424 48.7914167,22.0742424 47.0554167,22.0742424 Z M51.2094167,20.0187879 C51.2094167,18.3806061 52.3409167,17.7933333 54.2629167,17.4687879 L55.4254167,17.2833333 L55.4254167,16.7887879 C55.4254167,15.6760606 55.1619167,15.119697 54.0304167,15.119697 C52.9299167,15.119697 52.5424167,15.4906061 52.5269167,16.6187879 L51.3954167,16.6187879 C51.4419167,14.949697 52.1084167,14.0378788 54.1389167,14.0378788 C56.0144167,14.0378788 56.6654167,15.1042424 56.6654167,16.6342424 L56.6654167,21.9506061 L55.4719167,21.9506061 L55.4719167,20.9924242 C55.1774167,21.5951515 54.5419167,22.0742424 53.5034167,22.0742424 C52.0309167,22.0742424 51.2094167,21.3015152 51.2094167,20.0187879 Z M55.4254167,19.3851515 L55.4254167,18.2569697 L54.3559167,18.4115152 C52.8524167,18.6124242 52.4494167,19.1069697 52.4494167,19.879697 C52.4494167,20.6678788 52.8834167,21.069697 53.7669167,21.069697 C54.8054167,21.069697 55.4254167,20.4360606 55.4254167,19.3851515 Z M57.7659167,15.2433333 L57.7659167,14.1615152 L58.8044167,14.1615152 L58.8044167,12.3069697 L59.9979167,12.3069697 L59.9979167,14.1615152 L62.2919167,14.1615152 L62.2919167,15.2433333 L59.9979167,15.2433333 L59.9979167,19.5087879 C59.9979167,20.559697 60.3389167,20.9306061 61.3154167,20.9306061 L62.2919167,20.9306061 L62.2919167,21.9506061 L61.0984167,21.9506061 C59.5329167,21.9506061 58.7579167,21.1469697 58.7579167,19.5551515 L58.7579167,15.2433333 L57.7659167,15.2433333 Z M63.7799167,12.399697 L63.7799167,10.9469697 L65.0199167,10.9469697 L65.0199167,12.399697 L63.7799167,12.399697 Z M63.7799167,21.9506061 L63.7799167,14.1615152 L65.0199167,14.1615152 L65.0199167,21.9506061 L63.7799167,21.9506061 Z M69.8249167,22.0742424 C67.5929167,22.0742424 66.7559167,20.8533333 66.7559167,18.0560606 C66.7559167,15.2587879 67.6084167,14.0378788 69.8249167,14.0378788 C72.0569167,14.0378788 72.8939167,15.2587879 72.8939167,18.0560606 C72.8939167,20.8533333 72.0104167,22.0742424 69.8249167,22.0742424 Z M69.8249167,21.0542424 C71.1424167,21.0542424 71.6539167,20.3124242 71.6539167,18.0560606 C71.6539167,15.8460606 71.1424167,15.1660606 69.8249167,15.1660606 C68.5074167,15.1660606 67.9959167,15.8460606 67.9959167,18.0560606 C67.9959167,20.3124242 68.5074167,21.0542424 69.8249167,21.0542424 Z M74.6299167,21.9506061 L74.6299167,14.1615152 L75.8234167,14.1615152 L75.8234167,15.1660606 C76.1334167,14.4087879 76.8154167,14.0378788 77.8074167,14.0378788 C79.4814167,14.0378788 80.2719167,15.0578788 80.2719167,16.7269697 L80.2719167,21.9506061 L79.0319167,21.9506061 L79.0319167,17.0515152 C79.0319167,15.6760606 78.5979167,15.1660606 77.4974167,15.1660606 C76.4279167,15.1660606 75.8699167,15.5833333 75.8699167,17.0515152 L75.8699167,21.9506061 L74.6299167,21.9506061 Z" id="Mylocation" fill="#FFFFFF"></path>
                </g>
                <g id="定位-红" transform="translate(31.000000, 44.738548)">
                    <path d="M14.3817794,0.0309012005 C18.4460029,0.118936947 21.8315371,1.4636993 24.536416,4.06402131 C27.2424184,6.66434334 28.6516688,9.92199269 28.7635587,13.8395367 C28.7635587,14.9463319 28.6240475,16.0414573 28.3427779,17.1258 C28.06516,18.2023474 27.652057,19.2394515 27.1134875,20.2126059 C25.542067,22.7130358 23.1226245,25.5618745 19.8553937,28.7600554 L15.1200652,33.3115874 C14.7074771,33.7074683 14.0550048,33.7074683 13.6424167,33.3115874 L8.89117076,28.7600554 C5.6142492,25.562948 3.18839281,22.7024398 1.61715958,20.1797909 C0.571668227,18.2278806 0.0168068866,16.0521933 0,13.8395367 C0.112826175,9.92199269 1.52132754,6.66434334 4.22714267,4.06402131 C6.93314505,1.4636993 10.3176026,0.119123661 14.3817794,0.0309012005 Z M7.88973312,14.0051055 C7.9354722,15.8002226 8.55760791,17.3001444 9.75726381,18.5046377 C10.9567325,19.7081041 12.4652793,20.3325698 14.2826702,20.3783614 C16.0989843,20.3325698 17.6064076,19.7091777 18.8071871,18.5046377 C20.0066557,17.3001444 20.6287914,15.8002226 20.674671,14.0051055 C20.6287914,12.2099885 20.0066557,10.711327 18.8071871,9.50683367 C17.6075311,8.30229367 16.0989843,7.67759463 14.2826702,7.63203636 C12.4652793,7.67759463 10.9567325,8.30229367 9.75726381,9.50683367 C8.55760791,10.711327 7.9354722,12.2099885 7.8908567,14.0051055 L7.88973312,14.0051055 Z" id="Fill-1" stroke="#303639" stroke-width="2"></path>
                    <ellipse id="椭圆形" fill="#313639" fill-rule="nonzero" opacity="0.277669271" cx="14.5501907" cy="37.1994909" rx="10.3333333" ry="1.93181818"></ellipse>
                </g>
            </g>
            <path d="M44.10122,60.5638935 C43.6167457,60.0776415 43.3699947,59.4927463 43.3453821,58.7436538 C43.3699947,57.9945611 43.6167457,57.4104303 44.10122,56.924065 C44.5831678,56.4404452 45.1696696,56.1936538 45.9287155,56.1678962 C46.6871083,56.1936538 47.2737237,56.4404452 47.755558,56.924065 C48.2465616,57.4168555 48.4939655,58.0113744 48.5127017,58.7758082 C48.4933125,59.4760464 48.2465616,60.0705652 47.755558,60.5638935 C47.2737237,61.0469754 46.6871083,61.2943048 45.9287155,61.3194113 C45.1696696,61.2943048 44.5831678,61.0476264 44.10122,60.5638935 Z" id="路径" fill="#BF2531" fill-rule="nonzero"></path>
        </g>
        <rect id="Rectangle" x="0" y="0" width="93" height="136"></rect>
    </g>
</svg>