<?xml version="1.0" encoding="UTF-8"?>
<svg width="53px" height="76px" viewBox="0 0 53 76" version="1.1" xmlns="http://www.w3.org/2000/svg" xmlns:xlink="http://www.w3.org/1999/xlink">
    <!-- Generator: Sketch 53.1 (72631) - https://sketchapp.com -->
    <title>温度</title>
    <desc>Created with Sketch.</desc>
    <g id="Page-1" stroke="none" stroke-width="1" fill="none" fill-rule="evenodd">
        <g id="路线指引" transform="translate(-1365.000000, -172.000000)">
            <g id="分组-8" transform="translate(20.000000, 89.885913)">
                <g id="分组-3" transform="translate(1345.113206, 63.584720)">
                    <g id="温度" transform="translate(0.439094, 18.925488)">
                        <path d="M28.5925712,47.4883663 C28.7561743,46.7294851 28.8418479,45.955779 28.8482495,45.1793711 L28.6692747,13.0843375 L28.6692747,10.8009979 C28.641097,4.81747472 23.7916412,-0.014181154 17.828517,3.12743411e-05 L16.3455832,3.12743411e-05 C10.3824591,-0.0141811134 5.53300327,4.81747474 5.5048256,10.8009979 L5.5048256,46.0516582 C5.4909413,46.2138444 5.4909413,46.3769265 5.5048256,46.5391127 L4.84006211,47.1291893 C-1.56225836,53.5425857 -1.62035253,63.9341678 4.70985906,70.4192345 C11.0400706,76.9043012 21.3951165,77.0615637 27.9180176,70.7716977 C34.4409188,64.4818317 34.6962604,54.0932451 28.4902999,47.4883663 L28.5925712,47.4883663 Z" id="路径" fill="#FFFFFF" fill-rule="nonzero"></path>
                        <path d="M25.1409149,67.3713807 C20.7070089,72.3305805 13.1061313,72.7440894 8.16387946,68.2949786 C3.22162764,63.8458679 2.8095318,56.2189251 7.24343763,51.2597251 C7.46114922,51.0248092 7.69160978,50.8021232 7.93376892,50.5926821 C8.68784213,49.8081283 9.54861138,49.1344259 10.4905514,48.5915529 C10.0911231,47.5954447 9.87457106,46.5350471 9.85135579,45.4615816 L9.85135579,10.8009979 C9.86543758,7.18372044 12.791776,4.25881714 16.3967189,4.25884474 L17.8796527,4.25884474 C21.4845955,4.25881714 24.410934,7.18372044 24.4250157,10.8009979 L24.4250157,45.1793711 C24.4107492,46.4711327 24.0580395,47.7363938 23.4023028,48.8481079 C24.0365623,49.2668837 24.6275551,49.7481749 25.1664827,50.2848161 C25.6921582,50.824574 26.1711491,51.4082004 26.5982808,52.0293902 C29.8264848,56.8363051 29.2160017,63.262986 25.1409149,67.3713807 L25.1409149,67.3713807 Z" id="路径" fill="#FFFFFF" fill-rule="nonzero"></path>
                        <path d="M41.7004546,13.8619269 L35.5337571,13.8619269 C35.03992,13.8619269 34.6395859,13.4369623 34.6395859,12.9127418 C34.6395859,12.3885214 35.03992,11.9635567 35.5337571,11.9635567 L41.7004546,11.9635567 C42.1942917,11.9635567 42.5946257,12.3885214 42.5946257,12.9127418 C42.5946257,13.4369623 42.1942917,13.8619269 41.7004546,13.8619269 L41.7004546,13.8619269 Z" id="路径" fill="#FFFFFF" fill-rule="nonzero"></path>
                        <path d="M37.6209774,16.2862249 L37.6209774,9.75191037 C37.6209774,9.22863403 38.0220337,8.80443474 38.5167618,8.80443474 C39.0114899,8.80443474 39.4125463,9.22863403 39.4125463,9.75191037 L39.4125463,16.2862249 C39.4125463,16.8095013 39.0114899,17.2337005 38.5167618,17.2337005 C38.0220337,17.2337005 37.6209774,16.8095013 37.6209774,16.2862249 L37.6209774,16.2862249 Z" id="路径" fill="#FFFFFF" fill-rule="nonzero"></path>
                        <path d="M50.7087394,26.7330648 L35.9816725,26.7330648 C35.1626708,26.7330648 34.4987387,26.0668559 34.4987387,25.2450457 C34.4987387,24.4232354 35.1626708,23.7570266 35.9816725,23.7570266 L50.7087394,23.7570266 C51.5277412,23.7570266 52.1916732,24.4232354 52.1916732,25.2450457 C52.1916732,26.0668559 51.5277412,26.7330648 50.7087394,26.7330648 L50.7087394,26.7330648 Z" id="路径" fill="#FFFFFF" fill-rule="nonzero"></path>
                        <path d="M46.1832345,32.3259643 L35.9561047,32.3259643 C35.137103,32.3259643 34.4731709,31.6597555 34.4731709,30.8379452 C34.4731709,30.016135 35.137103,29.3499261 35.9561047,29.3499261 L46.1832345,29.3499261 C47.0022362,29.3499261 47.6661682,30.016135 47.6661682,30.8379452 C47.6661682,31.6597555 47.0022362,32.3259643 46.1832345,32.3259643 L46.1832345,32.3259643 Z" id="路径" fill="#FFFFFF" fill-rule="nonzero"></path>
                        <path d="M50.7087394,37.7649308 L35.9816725,37.7649308 C35.1626708,37.7649308 34.4987387,37.098722 34.4987387,36.2769117 C34.4987387,35.4551015 35.1626708,34.7888926 35.9816725,34.7888926 L50.7087394,34.7888926 C51.5277412,34.7888926 52.1916732,35.4551015 52.1916732,36.2769117 C52.1916732,37.098722 51.5277412,37.7649308 50.7087394,37.7649308 L50.7087394,37.7649308 Z" id="路径" fill="#FFFFFF" fill-rule="nonzero"></path>
                        <path d="M19.872478,50.1207262 C19.8396487,50.4659572 20.0330502,50.7939556 20.3552978,50.9395621 C23.1667119,52.399206 24.711006,55.4475925 24.1931397,58.5153377 C23.6752735,61.5830828 21.210706,63.9862276 18.0682569,64.4875742 C14.5000743,65.0556722 11.0296043,63.0387932 9.83947353,59.7053804 C8.64934277,56.3719676 10.0835319,52.6854693 13.2400596,50.9643754 C13.6278423,50.8010148 13.8564925,50.4052245 13.799114,49.9966602 L13.799114,19.7766714 C13.6818533,18.3270155 14.6997639,17.0231343 16.1623895,16.7494599 C17.0528021,16.546789 17.9893161,16.7483651 18.7099437,17.2977976 C19.4305712,17.8472302 19.857934,18.6855231 19.872478,19.5781657 C19.8978895,22.8038829 19.872478,36.8208462 19.872478,40.1954427 L19.872478,50.1207262 Z" id="路径" fill="#403F45"></path>
                    </g>
                </g>
            </g>
        </g>
    </g>
</svg>