<?xml version="1.0" standalone="no"?><!DOCTYPE svg PUBLIC "-//W3C//DTD SVG 1.1//EN" "http://www.w3.org/Graphics/SVG/1.1/DTD/svg11.dtd"><svg t="1606889152070" class="icon" viewBox="0 0 1024 1024" version="1.1" xmlns="http://www.w3.org/2000/svg" p-id="17642" xmlns:xlink="http://www.w3.org/1999/xlink" width="24" height="24"><defs><style type="text/css"></style></defs><path d="M456.145455 889.018182h-274.618182c-32.581818 0-55.854545-23.272727-55.854546-55.854546v-651.636363c0-32.581818 23.272727-55.854545 55.854546-55.854546h651.636363c32.581818 0 55.854545 23.272727 55.854546 55.854546v269.963636c0 18.618182 18.618182 37.236364 37.236363 37.236364s37.236364-18.618182 37.236364-37.236364v-269.963636c0-69.818182-60.509091-130.327273-130.327273-130.327273h-651.636363c-69.818182 0-130.327273 60.509091-130.327273 130.327273v651.636363c0 69.818182 60.509091 130.327273 130.327273 130.327273h274.618182c18.618182 0 37.236364-18.618182 37.236363-37.236364s-13.963636-37.236364-37.236363-37.236363z" p-id="17643"></path><path d="M246.690909 381.672727c-18.618182 0-32.581818 18.618182-32.581818 37.236364s13.963636 37.236364 32.581818 37.236364h134.981818c18.618182 0 37.236364-18.618182 37.236364-37.236364s-18.618182-37.236364-37.236364-37.236364h-134.981818zM679.563636 256c0-18.618182-18.618182-37.236364-37.236363-37.236364h-390.981818c-23.272727 0-37.236364 13.963636-37.236364 37.236364 0 18.618182 18.618182 37.236364 37.236364 37.236364h390.981818c18.618182 0 37.236364-18.618182 37.236363-37.236364zM958.836364 907.636364l-111.709091-111.709091c74.472727-97.745455 65.163636-242.036364-23.272728-335.127273-51.2-51.2-116.363636-74.472727-181.527272-74.472727s-130.327273 23.272727-181.527273 74.472727c-97.745455 97.745455-97.745455 260.654545 0 363.054545 51.2 51.2 116.363636 74.472727 181.527273 74.472728 55.854545 0 107.054545-18.618182 153.6-51.2l111.709091 111.709091c13.963636 13.963636 37.236364 13.963636 51.2 0s13.963636-37.236364 0-51.2z m-176.872728-144.290909c-4.654545 0-9.309091 4.654545-9.309091 4.654545-4.654545 4.654545-4.654545 4.654545-4.654545 9.309091-32.581818 27.927273-74.472727 41.890909-121.018182 41.890909s-93.090909-18.618182-130.327273-51.2c-69.818182-69.818182-69.818182-186.181818 0-256 32.581818-32.581818 79.127273-51.2 130.327273-51.2 46.545455 0 93.090909 18.618182 130.327273 51.2 65.163636 69.818182 65.163636 181.527273 4.654545 251.345455z" p-id="17644"></path></svg>