<?xml version="1.0" standalone="no"?><!DOCTYPE svg PUBLIC "-//W3C//DTD SVG 1.1//EN" "http://www.w3.org/Graphics/SVG/1.1/DTD/svg11.dtd"><svg t="1606889286918" class="icon" viewBox="0 0 1024 1024" version="1.1" xmlns="http://www.w3.org/2000/svg" p-id="20362" xmlns:xlink="http://www.w3.org/1999/xlink" width="24" height="24"><defs><style type="text/css"></style></defs><path d="M984.685714 389.828571l-232-289.942857a7.428571 7.428571 0 0 0-5.714285-2.742857H277.028571c-2.171429 0-4.342857 1.028571-5.714285 2.742857l-232 289.942857a7.428571 7.428571 0 0 0 0.228571 9.485715l466.971429 525.142857c1.371429 1.6 3.428571 2.4 5.485714 2.4 2.057143 0 4-0.914286 5.485714-2.4l466.971429-525.142857a7.428571 7.428571 0 0 0 0.228571-9.485715zM664.228571 162.742857l39.314286 153.028572-151.428571-153.028572h112.114285z m9.371429 204H350.4L512 203.428571l161.6 163.314286zM359.771429 162.742857h112.114285L320.342857 315.771429l39.428572-153.028572z m-61.028572 8l-50.4 196h-106.4l156.8-196zM149.257143 423.885714H257.142857l143.771429 283.085715-251.657143-283.085715zM512 799.314286L321.257143 423.885714h381.371428L512 799.314286z m110.971429-92.342857L766.857143 423.885714h107.885714L622.971429 706.971429z m152.685714-340.228572l-50.4-196 156.8 196h-106.4z" p-id="20363"></path></svg>