<?xml version="1.0" encoding="UTF-8"?>
<svg width="97px" height="123px" viewBox="0 0 97 123" version="1.1" xmlns="http://www.w3.org/2000/svg" xmlns:xlink="http://www.w3.org/1999/xlink">
    <!-- Generator: Sketch 53.1 (72631) - https://sketchapp.com -->
    <title>Shape</title>
    <desc>Created with Sketch.</desc>
    <g id="Page-1" stroke="none" stroke-width="1" fill="none" fill-rule="evenodd">
        <g id="首页E-Copy" transform="translate(-1159.000000, -710.000000)" fill="#999999" fill-rule="nonzero">
            <g id="右上区" transform="translate(1076.000000, 189.000000)">
                <g id="湿度" transform="translate(64.000000, 437.000000)">
                    <g id="湿度图标" transform="translate(19.000000, 84.000000)">
                        <path d="M85.3997722,41.511131 L51.8143509,1.64292078 C50.0466971,-0.547640259 46.5113896,-0.547640259 45.1856493,1.64292078 L11.6002278,41.511131 C-3.8667426,59.9118433 -3.8667426,87.0747997 11.6002278,105.475512 C20.4384966,116.866429 34.1378132,123 48.2790433,123 C62.4202734,123 76.11959,116.866429 85.3997722,105.913624 C100.866743,87.0747997 100.866743,60.3499555 85.3997722,41.511131 Z M78.3291572,100.218166 C70.8166287,108.98041 59.7687928,114.237756 48.2790433,114.237756 C36.7892938,114.237756 25.7414579,108.98041 18.2289294,100.218166 C5.41343962,84.8842385 5.41343962,62.5405164 18.2289294,47.2065895 L48.2790433,11.7195014 L78.3291572,47.6447017 C91.5865604,62.5405164 91.5865604,84.8842385 78.3291572,100.218166 Z M44.7437357,64.7310774 C44.7437357,55.5307213 41.2084282,52.9020481 35.4635535,52.9020481 C29.7186789,52.9020481 26.1833713,55.5307213 26.1833713,64.7310774 C26.1833713,73.9314336 29.7186789,76.5601068 35.4635535,76.5601068 C41.2084282,76.1219947 44.7437357,73.9314336 44.7437357,64.7310774 Z M31.9282461,64.7310774 C31.9282461,59.0356189 32.812073,57.7212823 35.4635535,57.7212823 C38.1150342,57.7212823 38.9988611,59.0356189 38.9988611,64.7310774 C38.9988611,70.426536 38.1150342,71.7408726 35.4635535,71.7408727 C32.8120729,71.7408727 31.928246,70.4265361 31.9282461,64.7310774 Z M57.5592255,53.3401603 L33.2539864,95.8370436 L38.9988611,95.8370436 L63.3041002,53.3401603 L57.5592255,53.3401603 Z M61.0945331,73.4933215 C55.3496584,73.4933215 51.8143509,76.1219947 51.8143509,85.3223508 C51.8143509,94.522707 55.3496584,97.1513802 61.0945331,97.1513802 C66.8394077,97.1513802 70.3747153,94.522707 70.3747153,85.3223508 C70.3747153,76.1219947 66.8394077,73.4933215 61.0945331,73.4933215 Z M61.0945331,92.332146 C58.4430524,92.332146 57.5592255,91.0178094 57.5592255,85.3223508 C57.5592255,79.6268923 58.4430524,78.3125557 61.0945331,78.3125557 C63.7460137,78.3125557 64.6298406,79.6268923 64.6298405,85.3223508 C64.6298405,90.5796972 63.7460136,92.332146 61.0945331,92.332146 Z" id="Shape"></path>
                    </g>
                </g>
            </g>
        </g>
    </g>
</svg>