<?xml version="1.0" encoding="UTF-8"?>
<svg width="33px" height="28px" viewBox="0 0 33 28" version="1.1" xmlns="http://www.w3.org/2000/svg" xmlns:xlink="http://www.w3.org/1999/xlink">
    <!-- Generator: Sketch 53.1 (72631) - https://sketchapp.com -->
    <title>Shape</title>
    <desc>Created with Sketch.</desc>
    <g id="Page-1" stroke="none" stroke-width="1" fill="none" fill-rule="evenodd">
        <g id="首页E-Copy" transform="translate(-401.000000, -834.000000)" fill="#0066CC" fill-rule="nonzero">
            <g id="左上区" transform="translate(60.000000, 189.000000)">
                <g id="今天" transform="translate(24.000000, 160.000000)">
                    <g id="Group-2" transform="translate(317.000000, 475.000000)">
                        <g id="Group" transform="translate(0.000000, 10.000000)">
                            <path d="M20.0327965,5.90717301 C20.0327965,2.64641351 17.393181,0 14.1407975,0 C10.8884141,0 8.24879858,2.64641351 8.24879858,5.90717301 L10.6055981,5.90717301 C10.6055981,3.95780592 12.1964379,2.36286921 14.1407975,2.36286921 C16.0851572,2.36286921 17.6759969,3.95780592 17.6759969,5.90717301 C17.6759969,7.8565401 16.0851572,9.4514768 14.1407975,9.4514768 L0,9.4514768 L0,11.814346 L14.1407975,11.814346 C17.393181,11.814346 20.0327965,9.16793247 20.0327965,5.90717301 Z M31.8167944,21.2658228 L0,21.2658228 L0,23.628692 L7.07039876,23.628692 L7.07039876,27.1729958 L9.42719836,27.1729958 L9.42719836,23.628692 L14.1407975,23.628692 L14.1407975,27.1729958 L16.4975971,27.1729958 L16.4975971,23.628692 L21.2111963,23.628692 L21.2111963,27.1729958 L23.5679959,27.1729958 L23.5679959,23.628692 L28.9768509,23.628692 L26.2783154,26.3341772 L27.9398591,28 L32.6534583,23.2742616 C32.9951942,22.9316456 33.0894662,22.4236287 32.9127062,21.9864979 C32.7241623,21.5493671 32.2881543,21.2658228 31.8167944,21.2658228 L31.8167944,21.2658228 Z M32.9951942,11.814346 C32.9951942,8.55358649 30.3555787,5.90717297 27.1031953,5.90717301 C23.8508118,5.90717304 21.2111963,8.55358652 21.2111963,11.814346 L23.5679959,11.814346 C23.5679959,9.86497889 25.1588356,8.27004218 27.1031953,8.27004218 C29.0475549,8.27004218 30.6383946,9.86497889 30.6383946,11.814346 C30.6383946,13.7637131 29.0475549,15.3586498 27.1031953,15.3586498 L0,15.3586498 L0,17.721519 L27.1031953,17.721519 C30.3555787,17.721519 32.9951942,15.0751055 32.9951942,11.814346 Z" id="Shape"></path>
                        </g>
                    </g>
                </g>
            </g>
        </g>
    </g>
</svg>