<?xml version="1.0" standalone="no"?><!DOCTYPE svg PUBLIC "-//W3C//DTD SVG 1.1//EN" "http://www.w3.org/Graphics/SVG/1.1/DTD/svg11.dtd"><svg t="1592876248421" class="icon" viewBox="0 0 1024 1024" version="1.1" xmlns="http://www.w3.org/2000/svg" p-id="8141" xmlns:xlink="http://www.w3.org/1999/xlink" width="48" height="48"><defs><style type="text/css"></style></defs><path d="M896 688.188235c-45.176471 63.247059-117.458824 103.905882-198.776471 114.447059H692.705882c-16.564706 0-30.117647-12.047059-33.129411-28.611765-1.505882-18.070588 10.541176-34.635294 28.611764-36.141176 63.247059-7.529412 118.964706-39.152941 153.6-87.341177 124.988235-176.188235 4.517647-350.870588-39.152941-406.588235L713.788235 286.117647c-16.564706 7.529412-36.141176 1.505882-43.670588-15.058823s-1.505882-36.141176 15.058824-43.670589l111.435294-55.717647c12.047059-6.023529 28.611765-3.011765 37.647059 6.02353 3.011765 6.023529 243.952941 256 61.741176 510.494117z m-216.847059-18.070588c-57.223529 93.364706-158.117647 135.529412-257.505882 143.058824 1.505882 28.611765 4.517647 76.8 21.082353 120.470588 6.023529 16.564706-3.011765 36.141176-19.576471 42.164706-3.011765 3.011765-7.529412 3.011765-10.541176 3.011764-13.552941 0-25.6-7.529412-30.117647-21.082353-19.576471-52.705882-24.094118-108.423529-25.6-141.552941l-40.658824-4.517647c-132.517647-24.094118-228.894118-103.905882-248.470588-210.823529-28.611765-146.070588 28.611765-287.623529 162.635294-411.105883 99.388235-90.352941 204.8-138.541176 209.317647-140.047058 13.552941-6.023529 30.117647-3.011765 39.152941 9.035294 13.552941 15.058824 328.282353 402.070588 200.282353 611.388235zM444.235294 118.964706C361.411765 162.635294 81.317647 331.294118 131.011765 587.294118c18.070588 94.870588 112.941176 143.058824 195.764706 158.117647 102.4 18.070588 233.411765-7.529412 295.152941-108.42353 82.823529-132.517647-87.341176-402.070588-177.694118-518.023529zM496.941176 412.611765c-18.070588 0-33.129412-15.058824-33.129411-33.129412V346.352941c0-18.070588 15.058824-33.129412 33.129411-33.129412s33.129412 15.058824 33.129412 33.129412v33.129412c-1.505882 19.576471-15.058824 33.129412-33.129412 33.129412z m-19.57647 73.788235c-12.047059 18.070588-45.176471 49.694118-90.352941 49.694118-46.682353 0-78.305882-31.623529-90.352941-51.2-9.035294-15.058824-4.517647-34.635294 10.541176-45.176471 15.058824-9.035294 34.635294-4.517647 45.176471 10.541177 1.505882 1.505882 13.552941 19.576471 34.635294 19.57647s36.141176-21.082353 36.141176-21.082353c10.541176-15.058824 30.117647-19.576471 45.176471-9.035294 15.058824 10.541176 19.576471 31.623529 9.035294 46.682353z m-198.776471-73.788235c-18.070588 0-33.129412-15.058824-33.129411-33.129412V346.352941c0-18.070588 15.058824-33.129412 33.129411-33.129412 18.070588 0 33.129412 15.058824 33.129412 33.129412v33.129412c-1.505882 19.576471-15.058824 33.129412-33.129412 33.129412z m99.388236 200.282353c18.070588 0 33.129412 15.058824 33.129411 33.129411v34.635295c0 18.070588-15.058824 33.129412-33.129411 33.129411s-33.129412-15.058824-33.129412-33.129411v-34.635295c1.505882-21.082353 15.058824-33.129412 33.129412-33.129411z" p-id="8142" fill="#1296db"></path></svg>