<?xml version="1.0" standalone="no"?><!DOCTYPE svg PUBLIC "-//W3C//DTD SVG 1.1//EN" "http://www.w3.org/Graphics/SVG/1.1/DTD/svg11.dtd"><svg t="1592823899992" class="icon" viewBox="0 0 1024 1024" version="1.1" xmlns="http://www.w3.org/2000/svg" p-id="3753" xmlns:xlink="http://www.w3.org/1999/xlink" width="48" height="48"><defs><style type="text/css"></style></defs><path d="M524.8 588.8l115.2 0 0 83.2-115.2 0 0-83.2Z" p-id="3754"></path><path d="M524.8 371.2l115.2 0 0 76.8-115.2 0 0-76.8Z" p-id="3755"></path><path d="M524.8 480l115.2 0 0 70.4-115.2 0 0-70.4Z" p-id="3756"></path><path d="M512 76.8c-236.8 0-435.2 192-435.2 435.2 0 236.8 192 435.2 435.2 435.2s435.2-192 435.2-435.2C947.2 275.2 748.8 76.8 512 76.8zM384 320c19.2 6.4 32 12.8 38.4 19.2 6.4 0 6.4 6.4 0 6.4-6.4 0-12.8 6.4-76.8 115.2l64-6.4c6.4-19.2 25.6-51.2 32-64 12.8 6.4 25.6 12.8 38.4 19.2 6.4 0 6.4 6.4 0 6.4-6.4 0-12.8 6.4-102.4 147.2 32 0 57.6-6.4 83.2-6.4 0 12.8-6.4 25.6-6.4 32L371.2 595.2c-12.8 0-32 6.4-38.4 6.4C326.4 588.8 320 582.4 320 569.6c25.6-12.8 44.8-38.4 76.8-89.6L358.4 486.4C339.2 486.4 332.8 486.4 320 492.8c0-12.8-6.4-25.6-12.8-38.4C332.8 441.6 358.4 396.8 384 320zM307.2 659.2c25.6 0 102.4-19.2 147.2-32-6.4 12.8-6.4 25.6 0 32C377.6 678.4 345.6 684.8 320 704 320 684.8 313.6 678.4 307.2 659.2zM716.8 704c-12.8 0-38.4 0-134.4 0-83.2 0-115.2 0-128 0l0-38.4c6.4 0 25.6 0 38.4 0L492.8 384c0-19.2 0-38.4 0-44.8 12.8 0 64 0 96 0 32 0 83.2 0 96 0 0 6.4 0 25.6 0 44.8l0 288c12.8 0 32 0 38.4 0L723.2 704z" p-id="3757"></path></svg>