<?xml version="1.0" standalone="no"?><!DOCTYPE svg PUBLIC "-//W3C//DTD SVG 1.1//EN" "http://www.w3.org/Graphics/SVG/1.1/DTD/svg11.dtd"><svg t="1592880010751" class="icon" viewBox="0 0 1024 1024" version="1.1" xmlns="http://www.w3.org/2000/svg" p-id="19357" xmlns:xlink="http://www.w3.org/1999/xlink" width="48" height="48"><defs><style type="text/css"></style></defs><path d="M619.731118 972.027301H88.724229c-8.628518 0-15.614629-6.996344-15.614629-15.611559V149.132552c0-7.764847 5.705955-14.33345 13.385868-15.443737l530.995633-76.447113c4.584412-0.639566 9.042957 0.724501 12.45773 3.666506 3.41068 2.987031 5.375427 7.252171 5.375427 11.777231V956.415742c-0.001023 8.615215-6.977925 15.611559-15.59314 15.611559m-515.404539-31.226188h499.767397V90.729397l-499.767397 71.929216v778.1425z" p-id="19358" fill="#1296db"></path><path d="M401.056724 971.302801h-93.354178c-8.626471 0-15.604396-6.995321-15.604397-15.615653V768.961396c0-8.619308 6.977925-15.615653 15.604397-15.615652h93.354178c8.630564 0 15.59314 6.996344 15.593139 15.615652v186.726775c0 8.619308-6.962575 15.614629-15.593139 15.61463m-77.738526-31.227212h62.146409V784.575002h-62.146409v155.500587z m77.738526-280.969183h-93.354178c-8.626471 0-15.604396-6.995321-15.604397-15.613606V550.449707c0-8.619308 6.977925-15.614629 15.604397-15.614629h93.354178c8.630564 0 15.59314 6.995321 15.593139 15.614629v93.043093c0 8.618285-6.962575 15.613606-15.593139 15.613606m-77.738526-31.229259h62.146409v-61.816904h-62.146409v61.816904z m77.738526-187.302896h-93.354178c-8.626471 0-15.604396-6.995321-15.604397-15.637142v-93.001138c0-8.637728 6.977925-15.610536 15.604397-15.610536h93.354178c8.630564 0 15.59314 6.972808 15.593139 15.610536v93.001138c0 8.641821-6.962575 15.637142-15.593139 15.637142m-77.738526-31.207769h62.146409v-61.856814h-62.146409v61.856814z m611.102089 562.660819H619.731118c-8.640798 0-15.614629-6.996344-15.614629-15.611559V382.833175c0-4.695952 2.110057-9.131985 5.758144-12.119015a15.692401 15.692401 0 0 1 13.010315-3.154853l314.736241 65.398476c7.229658 1.538029 12.434194 7.912204 12.434193 15.316847V956.415742c0.001023 8.615215-6.972808 15.611559-15.635095 15.611559M635.323235 940.801113h283.484469V460.966697L635.323235 402.029376v538.771737z" p-id="19359" fill="#1296db"></path><path d="M776.936533 971.302801c-8.659217 0-15.613606-6.995321-15.613606-15.615653v-116.462478c0-8.619308 6.954389-15.615653 15.613606-15.615653 8.638751 0 15.615653 6.996344 15.615653 15.615653v116.462478c0 8.620331-6.975878 15.615653-15.615653 15.615653m0-236.257865c-8.659217 0-15.613606-6.955412-15.613606-15.570628v-42.448787c0-8.619308 6.954389-15.615653 15.613606-15.615653 8.638751 0 15.615653 6.996344 15.615653 15.615653v42.448787c0 8.615215-6.975878 15.570627-15.615653 15.570628m0-117.830639c-8.659217 0-15.613606-6.999414-15.613606-15.61463v-42.448787c0-8.616238 6.954389-15.615653 15.613606-15.615653 8.638751 0 15.615653 6.999414 15.615653 15.615653v42.448787c0 8.616238-6.975878 15.614629-15.615653 15.61463" p-id="19360" fill="#1296db"></path></svg>