<?xml version="1.0" standalone="no"?><!DOCTYPE svg PUBLIC "-//W3C//DTD SVG 1.1//EN" "http://www.w3.org/Graphics/SVG/1.1/DTD/svg11.dtd"><svg t="1585293435795" class="icon" viewBox="0 0 1280 1024" version="1.1" xmlns="http://www.w3.org/2000/svg" p-id="48209" xmlns:xlink="http://www.w3.org/1999/xlink" width="80" height="64"><defs><style type="text/css"></style></defs><path d="M247.575225 60.01369h785.17911v747.670553H246.32494z" fill="#FFFFFF" p-id="48210"></path><path d="M61.28273 85.019394h1157.7641v693.908289H61.28273z" fill="#FFFFFF" p-id="48211"></path><path d="M1215.137189 780.107953h-81.353558V718.113811h81.323551V146.996032h-81.323551V85.00314h81.323551c35.68439-0.313822 64.866047 27.428757 65.191121 61.962885V718.113811c-0.300068 34.534128-29.469222 62.287959-65.156113 61.994142zM1032.129192 867.890477H250.190822c-35.68564 0.296318-64.871048-27.453763-65.18862-61.992891V62.005394c0.317572-34.541629 29.506731-62.29171 65.18862-61.995392H1032.129192c35.68564-0.296318 64.867297 27.453763 65.188621 61.995392v743.892192c-0.321323 34.516624-29.467972 62.264203-65.13986 61.992891h-0.048761z m-781.940871-61.992891h2.603094a65.548702 65.548702 0 0 1-2.603094-2.334283v2.334283zM1032.129192 62.005394H250.190822v623.744784l28.227689-30.703253L466.136332 489.736715l187.722822 165.31021L778.946438 551.723355l253.322786 254.174231V62.005394h-0.140032zM703.99059 316.097106c-1.068994-65.139859 52.613252-118.777095 119.912353-119.812331s122.719244 50.920366 123.793239 116.052723-52.617003 118.777095-119.911103 119.812331c-0.648898 0.011253-1.304047 0.016254-1.952946 0.016254-66.76523 0.505115-121.303921-51.454237-121.841543-116.068977zM0.018755 717.709969V146.59469c0.322574-34.525376 29.487977-62.264203 65.159863-61.965385h81.358559v61.965385H65.18362v571.115279h81.358558v61.994141H65.18362c-35.675638 0.312571-64.861046-27.430007-65.18362-61.962884v-0.031257H0.018755z m466.48141 239.307089c19.110609-0.283815 34.841698 14.483304 35.133014 32.978773s-14.963413 33.715191-34.074022 33.997755-34.835446-14.483304-35.133015-32.978773v-0.500114c-0.141282-18.345435 15.095944-33.331353 34.045266-33.49264h0.028757z m160.021503 0c19.110609-0.061264 34.655405 14.887146 34.714169 33.382615s-15.378508 33.542652-34.489118 33.600164-34.655405-14.887146-34.71917-33.382615v-0.106274c-0.028757-18.405449 15.310993-33.375113 34.329081-33.49264h0.165038z m160.461603 0c19.115611-0.047511 34.645403 14.914652 34.690414 33.410121s-15.408515 33.528898-34.519125 33.572658-34.645403-14.912152-34.689163-33.411371v-0.078768c-0.030007-18.469213 15.413516-33.462633 34.494119-33.49264h0.023755z" fill="#3F8CE8" p-id="48212"></path></svg>