<?xml version="1.0" standalone="no"?><!DOCTYPE svg PUBLIC "-//W3C//DTD SVG 1.1//EN" "http://www.w3.org/Graphics/SVG/1.1/DTD/svg11.dtd"><svg t="1585210212786" class="icon" viewBox="0 0 1024 1024" version="1.1" xmlns="http://www.w3.org/2000/svg" p-id="12777" xmlns:xlink="http://www.w3.org/1999/xlink" width="64" height="64"><defs><style type="text/css"></style></defs><path d="M320 326.656V731.428571h-100.937143V514.413714c0-31.305143-0.731429-50.176-2.267428-56.466285a21.138286 21.138286 0 0 0-12.434286-14.409143c-6.729143-3.218286-21.723429-4.827429-45.056-4.827429H149.211429v-47.250286c48.859429-10.532571 85.942857-32.182857 111.250285-64.804571h59.465143z m257.024 335.725714V731.428571H354.816v-57.782857c65.828571-107.666286 104.96-174.226286 117.321143-199.826285 12.434286-25.6 18.651429-45.568 18.651428-59.904 0-10.971429-1.901714-19.163429-5.632-24.576-3.730286-5.485714-9.508571-8.192-17.115428-8.192a18.797714 18.797714 0 0 0-17.115429 8.996571c-3.730286 6.070857-5.632 17.92-5.632 35.84v38.473143H354.742857v-14.774857c0-22.674286 1.170286-40.521143 3.437714-53.613715 2.340571-13.165714 8.118857-25.965714 17.261715-38.619428 9.216-12.653714 21.138286-22.235429 35.766857-28.745143 14.628571-6.582857 32.256-9.801143 52.736-9.801143 40.228571 0 70.582857 9.947429 91.136 29.915429 20.626286 19.894857 30.866286 45.129143 30.866286 75.629714 0 23.113143-5.778286 47.616-17.334858 73.508571-11.629714 25.819429-45.714286 80.603429-102.4 164.498286h110.738286z m229.010286-160.182857c15.36 5.12 26.770286 13.604571 34.230857 25.380572 7.533714 11.702857 11.264 39.277714 11.264 82.651428 0 32.182857-3.657143 57.051429-10.971429 74.825143-7.314286 17.773714-20.041143 31.232-38.034285 40.521143-17.993143 9.216-41.106286 13.897143-69.266286 13.897143-31.963429 0-57.051429-5.412571-75.337143-16.164572-18.285714-10.752-30.281143-23.917714-35.986286-39.497143-5.778286-15.579429-8.630857-42.642286-8.630857-81.188571v-31.963429h100.937143v65.828572c0 17.408 1.097143 28.525714 3.145143 33.28 2.121143 4.754286 6.729143 7.168 13.897143 7.168 7.826286 0 13.019429-2.998857 15.506285-8.996572 2.486857-5.997714 3.730286-21.650286 3.730286-47.030857v-28.013714c0-15.433143-1.755429-26.770286-5.266286-33.938286a26.038857 26.038857 0 0 0-15.433142-14.189714c-6.875429-2.194286-20.114286-3.510857-39.789715-3.803429v-58.806857c23.990857 0 38.838857-0.877714 44.470857-2.706285a19.456 19.456 0 0 0 12.288-11.995429 82.651429 82.651429 0 0 0 3.730286-29.037714v-22.454857c0-14.189714-1.462857-23.552-4.388571-28.013715-2.925714-4.534857-7.460571-6.802286-13.604572-6.802285-7.021714 0-11.776 2.413714-14.336 7.168-2.633143 4.754286-3.876571 14.848-3.876571 30.354285v33.28H613.302857v-34.523428c0-38.692571 8.777143-64.804571 26.477714-78.409143 17.700571-13.531429 45.787429-20.333714 84.260572-20.333714 48.128 0 80.822857 9.435429 98.011428 28.233142 17.115429 18.870857 25.746286 44.982857 25.746286 78.482286 0 22.674286-3.072 39.058286-9.289143 49.152-6.144 10.093714-16.969143 19.309714-32.475428 27.648z" p-id="12778" fill="#1296db"></path><path d="M292.571429 0h438.857142a292.571429 292.571429 0 0 1 292.571429 292.571429v438.857142a292.571429 292.571429 0 0 1-292.571429 292.571429H292.571429a292.571429 292.571429 0 0 1-292.571429-292.571429V292.571429a292.571429 292.571429 0 0 1 292.571429-292.571429z m0 73.142857a219.428571 219.428571 0 0 0-219.428572 219.428572v438.857142a219.428571 219.428571 0 0 0 219.428572 219.428572h438.857142a219.428571 219.428571 0 0 0 219.428572-219.428572V292.571429a219.428571 219.428571 0 0 0-219.428572-219.428572H292.571429z" p-id="12779" fill="#1296db"></path></svg>