<?xml version="1.0" standalone="no"?><!DOCTYPE svg PUBLIC "-//W3C//DTD SVG 1.1//EN" "http://www.w3.org/Graphics/SVG/1.1/DTD/svg11.dtd"><svg t="1592876441648" class="icon" viewBox="0 0 1024 1024" version="1.1" xmlns="http://www.w3.org/2000/svg" p-id="14124" xmlns:xlink="http://www.w3.org/1999/xlink" width="48" height="48"><defs><style type="text/css"></style></defs><path d="M204.845797 147.07475c-68.085848 0-123.373605 55.287757-123.373605 123.373605v567.723352c0 68.085848 55.287757 123.373605 123.373605 123.373605h567.723352c68.085848 0 123.373605-55.287757 123.373605-123.373605V395.357731l62.966612-62.966612v505.268664c0 102.896658-83.443559 186.340217-186.340217 186.340217H204.845797c-102.896658 0-186.340217-83.443559-186.340217-186.340217V270.448355c0-102.896658 83.443559-186.340217 186.340217-186.340217h442.813976l-62.966612 62.966612H204.845797z m86.5151 574.37836zM890.823517 12.438824c-17.405405-17.405405-46.585054-16.381558-65.014306 2.047694l-50.16852 50.680444 167.399041 168.422888 50.16852-50.680443c18.429252-18.429252 19.4531-48.120825 2.047695-65.52623L890.823517 12.438824z m-140.779009 78.324322l-368.585044 371.144662 167.39904 168.422888 368.585044-371.144662-167.39904-168.422888zM291.360897 721.45311l234.461042-67.573925L358.422898 485.456297l-67.062001 235.996813z" p-id="14125" fill="#1296db"></path></svg>