<?xml version="1.0" standalone="no"?><!DOCTYPE svg PUBLIC "-//W3C//DTD SVG 1.1//EN" "http://www.w3.org/Graphics/SVG/1.1/DTD/svg11.dtd"><svg t="1585292425307" class="icon" viewBox="0 0 1024 1024" version="1.1" xmlns="http://www.w3.org/2000/svg" p-id="18587" xmlns:xlink="http://www.w3.org/1999/xlink" width="64" height="64"><defs><style type="text/css"></style></defs><path d="M416 869.76H155.84a64 64 0 0 1-64-64V283.52a64 64 0 0 1 64-64H416a64 64 0 0 1 64 64v520.96a64 64 0 0 1-64 65.28z" fill="#31A3E8" p-id="18588"></path><path d="M868.16 869.76H608a64 64 0 0 1-64-64V283.52a64 64 0 0 1 64-64h260.8a64 64 0 0 1 64 64v520.96a64 64 0 0 1-64.64 65.28z" fill="#FEA422" p-id="18589"></path><path d="M290.56 338.56l-2.56 4.8a282.56 282.56 0 0 1-64 78.72l-3.2 2.88v64l15.36-11.52a342.4 342.4 0 0 0 39.04-32v265.28h52.48V338.56zM832 542.08a73.28 73.28 0 0 0-28.8-28.8 84.48 84.48 0 0 0 28.8-47.04 128 128 0 0 0 0-61.44 85.44 85.44 0 0 0-24.32-42.56 89.28 89.28 0 0 0-32-19.2 111.36 111.36 0 0 0-66.24 0 70.08 70.08 0 0 0-29.76 22.4 117.12 117.12 0 0 0-18.88 33.6 108.16 108.16 0 0 0-5.76 42.24 144 144 0 0 0 8 42.88 80.96 80.96 0 0 0 19.52 27.52 88 88 0 0 0-25.92 34.24 133.76 133.76 0 0 0-10.56 51.52 217.28 217.28 0 0 0 4.48 45.76 82.56 82.56 0 0 0 21.44 38.72 79.68 79.68 0 0 0 32 24.32 118.08 118.08 0 0 0 44.8 8 110.72 110.72 0 0 0 43.84-8 74.24 74.24 0 0 0 28.48-22.4 155.52 155.52 0 0 0 17.6-32 143.36 143.36 0 0 0 8-52.8 119.04 119.04 0 0 0-14.72-56.96z m-119.04 20.16a41.92 41.92 0 0 1 28.8-15.04 43.52 43.52 0 0 1 32 10.88 45.76 45.76 0 0 1 17.28 32 92.48 92.48 0 0 1-5.12 40.32 32 32 0 0 1-23.36 22.4 69.76 69.76 0 0 1-36.16 0 27.2 27.2 0 0 1-20.48-17.6 91.52 91.52 0 0 1-5.76-38.72 52.48 52.48 0 0 1 14.08-34.24z m32-77.12a30.08 30.08 0 0 1-28.16-13.76 62.08 62.08 0 0 1-9.92-33.6 53.44 53.44 0 0 1 8.32-30.4 32 32 0 0 1 26.24-12.8h5.76a36.16 36.16 0 0 1 24.96 8 42.56 42.56 0 0 1 11.52 32 64 64 0 0 1-9.92 38.08 32 32 0 0 1-28.16 12.48z" fill="#FFFFFF" p-id="18590"></path></svg>