<?xml version="1.0" standalone="no"?><!DOCTYPE svg PUBLIC "-//W3C//DTD SVG 1.1//EN" "http://www.w3.org/Graphics/SVG/1.1/DTD/svg11.dtd"><svg t="1585293406240" class="icon" viewBox="0 0 1024 1024" version="1.1" xmlns="http://www.w3.org/2000/svg" p-id="47659" xmlns:xlink="http://www.w3.org/1999/xlink" width="64" height="64"><defs><style type="text/css"></style></defs><path d="M674.133333 439.466667l-292.266666 292.266666-123.733334 34.133334 34.133334-125.866667 292.266666-292.266667 89.6 91.733334z m74.666667-74.666667l-46.933333 46.933333-91.733334-89.6 49.066667-49.066666c25.6-25.6 66.133333-25.6 89.6 0 25.6 25.6 25.6 66.133333 0 91.733333z" fill="#1296db" p-id="47660"></path><path d="M509.866667 64c245.333333 0 443.733333 200.533333 443.733333 448s-198.4 448-443.733333 448-443.733333-200.533333-443.733334-448 200.533333-448 443.733334-448m0-64c-279.466667 0-507.733333 228.266667-507.733334 512s228.266667 512 507.733334 512 507.733333-228.266667 507.733333-512-226.133333-512-507.733333-512z" fill="#1296db" p-id="47661"></path></svg>