<?xml version="1.0" standalone="no"?><!DOCTYPE svg PUBLIC "-//W3C//DTD SVG 1.1//EN" "http://www.w3.org/Graphics/SVG/1.1/DTD/svg11.dtd"><svg t="1592876484903" class="icon" viewBox="0 0 1024 1024" version="1.1" xmlns="http://www.w3.org/2000/svg" p-id="14913" xmlns:xlink="http://www.w3.org/1999/xlink" width="48" height="48"><defs><style type="text/css"></style></defs><path d="M954.304 96.672H66.144c-29.28 0-53.024 23.744-53.024 53.024v742.336c0 29.28 23.744 53.024 53.024 53.024h888.16c29.28 0 53.024-23.744 53.024-53.024V149.696c0-29.28-23.744-53.024-53.024-53.024z m-117.088 66.368h1.056a41.888 41.888 0 1 1 0 83.776h-1.12 0.064a41.888 41.888 0 0 1-0.064-83.776h0.064z m-118.176 0h1.056a41.888 41.888 0 1 1 0 83.776h-1.12 0.064a41.888 41.888 0 0 1-0.064-83.776h0.064z m-118.24 0h1.056a41.888 41.888 0 1 1 0 83.776h-1.12 0.064a41.888 41.888 0 0 1-0.064-83.776h0.064z m300.48 675.968H119.168V299.904h782.112v539.104z" p-id="14914" fill="#1296db"></path></svg>