<?xml version="1.0" standalone="no"?><!DOCTYPE svg PUBLIC "-//W3C//DTD SVG 1.1//EN" "http://www.w3.org/Graphics/SVG/1.1/DTD/svg11.dtd"><svg t="1585293038640" class="icon" viewBox="0 0 1024 1024" version="1.1" xmlns="http://www.w3.org/2000/svg" p-id="24947" xmlns:xlink="http://www.w3.org/1999/xlink" width="64" height="64"><defs><style type="text/css"></style></defs><path d="M923.2 304H700.8c-11.2 0-24-4.8-33.6-14.4-9.6-8-14.4-22.4-14.4-33.6V32l270.4 272z m0 0" fill="#30B8C7" p-id="24948"></path><path d="M700.8 329.6c-20.8 0-40-8-51.2-22.4-14.4-14.4-22.4-32-22.4-51.2V32H176c-11.2 0-24 4.8-33.6 14.4C132.8 56 128 67.2 128 80v859.2c0 11.2 4.8 24 14.4 33.6 9.6 9.6 22.4 14.4 33.6 14.4h700.8c11.2 0 24-4.8 33.6-14.4 9.6-9.6 14.4-22.4 14.4-33.6V329.6h-224z m-25.6 41.6c22.4 0 40 17.6 40 40s-17.6 40-40 40-40-17.6-40-40c1.6-22.4 17.6-40 40-40z m96 347.2c-1.6 4.8-8 8-14.4 8h-464c-4.8 0-9.6-3.2-14.4-8-3.2-3.2-3.2-9.6 0-16l163.2-264c3.2-3.2 8-6.4 14.4-6.4 4.8 0 9.6 1.6 14.4 6.4l120 193.6 54.4-83.2c3.2-3.2 8-6.4 14.4-6.4 4.8 0 9.6 1.6 14.4 6.4l99.2 155.2c1.6 1.6 1.6 9.6-1.6 14.4z" fill="#30B8C7" p-id="24949"></path></svg>