<?xml version="1.0" standalone="no"?><!DOCTYPE svg PUBLIC "-//W3C//DTD SVG 1.1//EN" "http://www.w3.org/Graphics/SVG/1.1/DTD/svg11.dtd"><svg t="1594188983383" class="icon" viewBox="0 0 1024 1024" version="1.1" xmlns="http://www.w3.org/2000/svg" p-id="3429" xmlns:xlink="http://www.w3.org/1999/xlink" width="48" height="48"><defs><style type="text/css"></style></defs><path d="M920 949.44h-768a29.44 29.44 0 0 1-29.44-29.44v-768a29.44 29.44 0 0 1 58.88 0v738.56h738.56a29.44 29.44 0 0 1 0 58.88z" p-id="3430" fill="#1296db"></path><path d="M256 552a28.16 28.16 0 0 1-18.24-6.4 29.44 29.44 0 0 1-4.8-41.6l139.84-174.4a28.8 28.8 0 0 1 19.84-10.88 32 32 0 0 1 22.08 6.72l187.2 156.16 247.04-279.36a29.44 29.44 0 0 1 44.16 39.04l-265.92 300.8a29.12 29.12 0 0 1-40.96 3.2l-186.24-155.2-120.32 151.04a29.76 29.76 0 0 1-23.68 10.88zM307.2 853.44a29.76 29.76 0 0 1-29.76-29.44v-177.28a29.76 29.76 0 0 1 59.2 0v177.28a29.44 29.44 0 0 1-29.44 29.44z" p-id="3431" fill="#1296db"></path><path d="M474.56 853.44a29.76 29.76 0 0 1-29.76-29.44v-295.36a29.76 29.76 0 0 1 59.2 0v295.36a29.44 29.44 0 0 1-29.44 29.44zM641.92 853.44a29.76 29.76 0 0 1-29.76-29.44v-177.28a29.76 29.76 0 0 1 59.2 0v177.28a29.44 29.44 0 0 1-29.44 29.44zM809.28 853.44a29.44 29.44 0 0 1-29.44-29.44V469.44a29.44 29.44 0 0 1 58.88 0v354.56a29.44 29.44 0 0 1-29.44 29.44z" p-id="3432" fill="#1296db"></path></svg>