<?xml version="1.0" standalone="no"?><!DOCTYPE svg PUBLIC "-//W3C//DTD SVG 1.1//EN" "http://www.w3.org/Graphics/SVG/1.1/DTD/svg11.dtd"><svg t="1592876826580" class="icon" viewBox="0 0 1024 1024" version="1.1" xmlns="http://www.w3.org/2000/svg" p-id="16372" xmlns:xlink="http://www.w3.org/1999/xlink" width="48" height="48"><defs><style type="text/css"></style></defs><path d="M221.874594 293.989782q6.539712 25.148165 14.744078 54.636321t18.608453 60.105899q10.404087 30.617743 23.780771 60.640966A540.477473 540.477473 0 0 0 307.366465 525.673943v430.55086l-273.478866 67.775197V340.956804zM303.79935 256.832327a94.409661 94.409661 0 0 0-0.535068-10.404087 94.469113 94.469113 0 0 1-0.535067-10.404088 221.636786 221.636786 0 0 1 19.143521-91.793776A243.336739 243.336739 0 0 1 450.051092 18.608453a247.022759 247.022759 0 0 1 187.986994 0 243.336739 243.336739 0 0 1 128.416164 125.681375 221.577334 221.577334 0 0 1 19.143521 91.793776v13.138876a80.081746 80.081746 0 0 1-1.070135 13.138876A487.505806 487.505806 0 0 1 759.201115 373.179749 582.62889 582.62889 0 0 1 710.33163 475.61542a724.362285 724.362285 0 0 1-67.775197 94.528565 1081.252206 1081.252206 0 0 1-81.924756 86.621459 21.402694 21.402694 0 0 1-32.817464 0 937.556897 937.556897 0 0 1-83.232699-87.453786 716.871342 716.871342 0 0 1-67.775197-96.193219A603.496516 603.496516 0 0 1 328.412448 368.601951a466.459824 466.459824 0 0 1-24.613098-111.769624m240.423595-121.281932A105.111008 105.111008 0 0 0 503.557826 143.160242a97.679517 97.679517 0 0 0-32.222944 21.28379 104.932652 104.932652 0 0 0-21.87831 32.222944 98.511844 98.511844 0 0 0 0 78.6549 105.051556 105.051556 0 0 0 21.87831 32.222945 97.501161 97.501161 0 0 0 32.222944 21.402694 105.111008 105.111008 0 0 0 40.427311 7.669299 109.153739 109.153739 0 0 0 40.962378-7.669299 96.252671 96.252671 0 0 0 32.758012-21.28379 104.932652 104.932652 0 0 0 21.87831-32.222945 98.511844 98.511844 0 0 0 0-78.6549 105.17046 105.17046 0 0 0-21.87831-32.222945 96.431026 96.431026 0 0 0-32.758012-21.28379 109.272643 109.272643 0 0 0-40.962378-7.669298m-169.140734 478.588016q31.687877 34.957733 61.770553 63.375755t54.101254 50.296331q28.418021 25.148165 53.506735 44.826753 13.138876-10.939155 29.725963-25.148165 14.209011-11.890386 32.758013-30.617743t42.627032-41.616349v348.626103l-274.311194-67.775197z m615.267998-342.086391v684.113331l-273.478866 67.775197v-418.54157q6.539712-6.539712 12.544356-13.673943t12.544357-13.673944a306.831398 306.831398 0 0 0 40.427311-57.37111 577.932188 577.932188 0 0 0 33.352531-71.045053Q830.543428 412.001858 842.01765 374.547144t20.213655-70.509987z" p-id="16373" fill="#1296db"></path></svg>