<?xml version="1.0" standalone="no"?><!DOCTYPE svg PUBLIC "-//W3C//DTD SVG 1.1//EN" "http://www.w3.org/Graphics/SVG/1.1/DTD/svg11.dtd"><svg t="1594190425909" class="icon" viewBox="0 0 1024 1024" version="1.1" xmlns="http://www.w3.org/2000/svg" p-id="1910" xmlns:xlink="http://www.w3.org/1999/xlink" width="48" height="48"><defs><style type="text/css"></style></defs><path d="M428.121 667.587c-30.917 53.589-10.127 97.679 32.754 122.413s91.497 20.791 122.413-32.799c30.917-53.545 226.141-531.68 209.159-541.492-16.938-9.813-333.409 398.289-364.326 451.878zM512 327.054c19.625 0 38.758 1.703 57.398 4.84 19.625-24.554 41.625-51.618 62.999-77.381-38.176-11.067-78.457-17.071-120.396-17.071-251.232 0-448.07 211.847-448.07 482.303 0 16.669 0.762 33.291 2.195 49.512 2.195 24.644 24.196 42.791 48.615 40.641 24.644-2.241 42.836-23.972 40.641-48.615-1.21-13.576-1.837-27.556-1.837-41.536 0-220.181 157.497-392.689 358.456-392.689zM835.462 383.019c-12.501 33.605-25.719 67.838-37.37 97.455 45.569 65.866 72.364 148.446 72.364 239.269 0 14.203-0.627 28.498-1.882 42.342-2.24 24.644 15.907 46.421 40.551 48.705 1.389 0.135 2.733 0.178 4.122 0.178 22.896 0 42.433-17.519 44.539-40.729 1.523-16.579 2.286-33.56 2.286-50.497 0-132.226-47.137-250.426-124.608-336.724z" fill="#1296db" p-id="1911"></path></svg>