<?xml version="1.0" standalone="no"?><!DOCTYPE svg PUBLIC "-//W3C//DTD SVG 1.1//EN" "http://www.w3.org/Graphics/SVG/1.1/DTD/svg11.dtd"><svg t="1592823859555" class="icon" viewBox="0 0 1024 1024" version="1.1" xmlns="http://www.w3.org/2000/svg" p-id="2931" xmlns:xlink="http://www.w3.org/1999/xlink" width="48" height="48"><defs><style type="text/css"></style></defs><path d="M685.354667 469.674667h18.986666c-1.322667 35.328-10.496 62.122667-27.52 80.341333-16.981333 18.218667-37.717333 27.306667-62.165333 27.306667-11.776 0-24.277333-1.877333-37.504-5.674667-13.226667-3.754667-42.368-15.104-87.466667-33.962667-32.426667-13.568-55.893333-20.352-70.357333-20.352-15.104 0-27.733333 4.608-37.845333 13.824-10.112 9.216-17.066667 24.490667-20.821334 45.824H341.333333c1.792-36.437333 10.837333-63.488 27.178667-81.152 16.341333-17.664 36.138667-26.496 59.477333-26.496 11.776 0 23.338667 1.536 34.688 4.693334 22.442667 6.4 53.418667 18.090667 93.013334 34.986666 21.333333 9.301333 37.632 15.530667 48.981333 18.645334 6.656 1.792 13.866667 2.688 21.674667 2.688 15.786667 0 29.013333-5.248 39.808-15.658667 10.794667-10.453333 17.194667-25.472 19.2-45.013333z" p-id="2932"></path></svg>