<?xml version="1.0" standalone="no"?><!DOCTYPE svg PUBLIC "-//W3C//DTD SVG 1.1//EN" "http://www.w3.org/Graphics/SVG/1.1/DTD/svg11.dtd"><svg t="1585293531612" class="icon" viewBox="0 0 1024 1024" version="1.1" xmlns="http://www.w3.org/2000/svg" p-id="51134" xmlns:xlink="http://www.w3.org/1999/xlink" width="64" height="64"><defs><style type="text/css"></style></defs><path d="M848.580247 823.331701l0 171.835623L678.800445 890.584408c-23.579021 3.837398-47.783283 6.070252-72.525804 6.070252-116.729561 0-221.225497-44.563962-293.302069-115.123994 11.874445 0.715291 23.667026 1.51654 35.725666 1.51654 16.875343 0 20.447704 2.858094 37.957497 1.428535 60.371996 41.265846 136.647193 66.095347 219.803101 66.095347 28.668946 0 56.44557-3.218298 83.147722-8.758478l62.515822 41.441854c-0.088004 0-8.574283-8.478092-8.662287-8.478092l55.731302 39.563064 0-49.124837 0-63.854307c96.547917-54.03773 160.499437-147.462516 160.499437-253.740028 0-67.251683-25.810852-129.148405-69.042469-179.428555-8.928347-18.047028-11.697413-20.278859-11.697413-39.570227 0-8.839319-0.979304-17.413602-1.605567-26.163893 75.464739 62.780859 122.806977 151.290705 122.806977 249.628384C1000.151337 662.297075 940.751482 760.272503 848.580247 823.331701zM424.4362 714.905246c-24.830525 0-49.03581-2.232854-72.525804-6.077416l-169.868829 104.501052L182.041568 641.575124C89.958336 578.434062 30.565644 480.546637 30.565644 370.239346c0-190.323697 176.394453-344.657714 393.869532-344.657714 217.563084 0 393.869532 154.332994 393.869532 344.657714C818.305733 560.572252 641.999284 714.905246 424.4362 714.905246zM621.367385 419.452187c-25.095561 0-45.456285-20.271696-45.456285-45.455261 0-25.096585 20.3597-45.37442 45.456285-45.37442 25.102724 0 45.463448 20.277836 45.463448 45.37442C666.830833 399.181515 646.470109 419.452187 621.367385 419.452187zM439.616948 419.452187c-25.096585 0-45.463448-20.271696-45.463448-45.455261 0-25.096585 20.366863-45.37442 45.463448-45.37442 25.095561 0 45.463448 20.277836 45.463448 45.37442C485.080395 399.181515 464.713532 419.452187 439.616948 419.452187zM257.779529 419.452187c-25.096585 0-45.463448-20.271696-45.463448-45.455261 0-25.096585 20.366863-45.37442 45.463448-45.37442 25.095561 0 45.455261 20.277836 45.455261 45.37442C303.234791 399.181515 282.875091 419.452187 257.779529 419.452187z" p-id="51135" fill="#1296db"></path></svg>