<?xml version="1.0" standalone="no"?><!DOCTYPE svg PUBLIC "-//W3C//DTD SVG 1.1//EN" "http://www.w3.org/Graphics/SVG/1.1/DTD/svg11.dtd"><svg t="1585292371974" class="icon" viewBox="0 0 1024 1024" version="1.1" xmlns="http://www.w3.org/2000/svg" p-id="17050" xmlns:xlink="http://www.w3.org/1999/xlink" width="64" height="64"><defs><style type="text/css"></style></defs><path d="M79.872 973.312c-19.84 0-36.096-16.981333-36.096-37.973333 0-20.864 16.128-37.973333 36.096-37.973334h864.938667c19.84 0 36.096 16.981333 36.096 37.973334 0 20.864-16.128 37.973333-36.096 37.973333H79.872z" p-id="17051" fill="#1296db"></path><path d="M268.16 462.165333c-45.354667 0-83.370667-16.64-116.053333-51.114666-32.810667-34.474667-48.64-74.282667-48.64-121.941334s15.829333-87.637333 48.64-121.941333c32.810667-34.474667 70.698667-51.114667 116.053333-51.114667 45.354667 0 83.413333 16.768 116.053333 51.114667 32.853333 34.474667 48.64 74.282667 48.64 121.941333s-15.957333 87.637333-48.64 121.941334c-32.64 34.474667-70.698667 51.114667-116.053333 51.114666z m0-278.784c-27.562667 0-51.541333 10.410667-71.125333 30.976a104.832 104.832 0 0 0-29.482667 74.752c0 28.970667 9.898667 54.186667 29.482667 74.752 19.584 20.565333 43.434667 30.976 71.125333 30.976 27.562667 0 51.541333-10.410667 71.125333-30.976 19.584-20.565333 29.482667-45.653333 29.482667-74.752 0-28.970667-9.898667-54.186667-29.44-74.752-19.754667-20.565333-43.605333-30.976-71.168-30.976z" p-id="17052" fill="#1296db"></path><path d="M352.128 752.853333a28.117333 28.117333 0 0 1-24.832-15.061333 30.848 30.848 0 0 1 0-30.122667L660.053333 100.821333a28.544 28.544 0 0 1 24.789334-15.061333c10.325333 0 19.712 5.674667 24.832 15.061333a30.848 30.848 0 0 1 0 30.122667L376.917333 737.792a27.946667 27.946667 0 0 1-24.789333 15.061333z" p-id="17053" fill="#1296db"></path><path d="M759.04 727.594667c-47.616 0-87.552-16.64-121.856-51.114667-34.432-34.432-51.072-74.24-51.072-121.813333 0-47.616 16.768-87.552 51.072-121.813334 34.432-34.474667 74.24-51.114667 121.813333-51.114666 47.616 0 87.552 16.810667 121.856 51.114666 34.432 34.432 51.072 74.24 51.072 121.813334 0 47.616-16.64 87.552-51.072 121.813333-34.304 34.474667-74.24 51.114667-121.856 51.114667z m0-278.570667c-28.970667 0-54.144 10.453333-74.666667 30.976a102.058667 102.058667 0 0 0-30.976 74.666667c0 28.928 10.410667 54.101333 30.976 74.666666a102.058667 102.058667 0 0 0 74.666667 30.976c28.928 0 54.101333-10.453333 74.666667-30.976a102.272 102.272 0 0 0 30.933333-74.666666c0-28.928-10.410667-54.101333-30.976-74.666667a102.272 102.272 0 0 0-74.666667-30.976z" p-id="17054" fill="#1296db"></path></svg>