<?xml version="1.0" standalone="no"?><!DOCTYPE svg PUBLIC "-//W3C//DTD SVG 1.1//EN" "http://www.w3.org/Graphics/SVG/1.1/DTD/svg11.dtd"><svg t="1585621527876" class="icon" viewBox="0 0 1024 1024" version="1.1" xmlns="http://www.w3.org/2000/svg" p-id="8763" xmlns:xlink="http://www.w3.org/1999/xlink" width="64" height="64"><defs><style type="text/css"></style></defs><path d="M512.3 1021.2c-68.7 0-135.4-13.5-198.2-40-60.6-25.6-115.1-62.3-161.8-109.1-46.7-46.7-83.5-101.2-109.1-161.8-26.6-62.8-40-129.5-40-198.2s13.5-135.4 40-198.2c25.6-60.6 62.3-115.1 109.1-161.8C199 105.4 253.5 68.7 314.1 43 376.9 16.5 443.6 3 512.3 3s135.4 13.5 198.2 40c60.6 25.6 115.1 62.3 161.8 109.1 46.7 46.7 83.5 101.2 109.1 161.8 26.6 62.8 40 129.5 40 198.2s-13.5 135.4-40 198.2c-25.6 60.6-62.3 115.1-109.1 161.8-46.7 46.7-101.2 83.5-161.8 109.1-62.8 26.6-129.5 40-198.2 40z m0-958.2C264.6 63 63.2 264.5 63.2 512.1s201.5 449.1 449.1 449.1c247.6 0 449.1-201.5 449.1-449.1S759.9 63 512.3 63z" fill="#2E4F8F" opacity=".5" p-id="8764"></path><path d="M512.3 1021.2v-60c247.6 0 449.1-201.5 449.1-449.1S759.9 63 512.3 63V3C581 3 647.7 16.5 710.5 43c60.6 25.6 115.1 62.3 161.8 109.1 46.7 46.7 83.5 101.2 109.1 161.8 26.6 62.8 40 129.5 40 198.2s-13.5 135.4-40 198.2c-25.6 60.6-62.3 115.1-109.1 161.8-46.7 46.7-101.2 83.5-161.8 109.1-62.8 26.6-129.5 40-198.2 40z" fill="#2E4F8F" opacity=".7" p-id="8765"></path><path d="M935.9 362.7C872.7 183.4 702.5 63 512.3 63V3c107.5 0 210.2 33.1 297.1 95.7 41.8 30.1 78.8 66.3 109.8 107.5 31.4 41.7 56 87.6 73.3 136.6l-56.6 19.9zM265.1 605.4h-38.3V461.2c-14 13.1-30.4 22.7-49.4 29v-34.7c10-3.3 20.8-9.5 32.5-18.6 11.7-9.1 19.7-19.8 24.1-31.9h31v200.4zM386.9 405c19.3 0 34.4 6.9 45.3 20.7 13 16.3 19.5 43.4 19.5 81.3 0 37.8-6.5 64.9-19.6 81.4-10.8 13.6-25.9 20.4-45.2 20.4-19.4 0-35.1-7.5-47-22.4-11.9-14.9-17.8-41.5-17.8-79.8 0-37.6 6.5-64.6 19.6-81.1 10.8-13.7 25.9-20.5 45.2-20.5z m0 31.7c-4.6 0-8.8 1.5-12.4 4.4-3.6 3-6.4 8.2-8.4 15.9-2.6 9.9-3.9 26.5-3.9 50 0 23.4 1.2 39.5 3.5 48.3 2.4 8.8 5.3 14.6 8.9 17.5 3.6 2.9 7.7 4.4 12.3 4.4s8.8-1.5 12.4-4.4c3.6-2.9 6.4-8.2 8.4-15.9 2.6-9.8 3.9-26.4 3.9-49.8s-1.2-39.5-3.5-48.3c-2.4-8.8-5.3-14.6-8.9-17.6-3.5-3-7.6-4.5-12.3-4.5zM542 405c19.3 0 34.4 6.9 45.3 20.7 13 16.3 19.5 43.4 19.5 81.3 0 37.8-6.5 64.9-19.6 81.4-10.8 13.6-25.9 20.4-45.2 20.4-19.4 0-35.1-7.5-47-22.4-11.9-14.9-17.8-41.5-17.8-79.8 0-37.6 6.5-64.6 19.6-81.1 10.8-13.7 25.9-20.5 45.2-20.5z m0 31.7c-4.6 0-8.8 1.5-12.4 4.4-3.6 3-6.4 8.2-8.4 15.9-2.6 9.9-3.9 26.5-3.9 50 0 23.4 1.2 39.5 3.5 48.3 2.4 8.8 5.3 14.6 8.9 17.5 3.6 2.9 7.7 4.4 12.3 4.4s8.8-1.5 12.4-4.4c3.6-2.9 6.4-8.2 8.4-15.9 2.6-9.8 3.9-26.4 3.9-49.8s-1.2-39.5-3.5-48.3c-2.4-8.8-5.3-14.6-8.9-17.6-3.6-3-7.7-4.5-12.3-4.5zM632.7 455.1c0-17.9 3.9-31.1 11.8-39.8 7.8-8.6 18.5-12.9 31.9-12.9 13.9 0 24.8 4.3 32.6 12.9 7.8 8.6 11.8 21.8 11.8 39.8 0 17.9-3.9 31.1-11.8 39.8-7.9 8.6-18.5 12.9-31.9 12.9-13.9 0-24.8-4.3-32.6-12.9-7.9-8.6-11.8-21.8-11.8-39.8z m29.8-0.3c0 13 1.5 21.7 4.5 26.1 2.3 3.3 5.4 4.9 9.4 4.9 4.1 0 7.3-1.6 9.5-4.9 2.9-4.4 4.4-13.2 4.4-26.1 0-13-1.5-21.6-4.4-26-2.3-3.4-5.4-5-9.5-5-4 0-7.1 1.6-9.4 4.9-3 4.4-4.5 13.2-4.5 26.1z m43 158.2h-28.3l106.3-210.6H811L705.5 613z m61.8-52.4c0-17.9 3.9-31.1 11.8-39.8 7.8-8.6 18.6-12.9 32.2-12.9 13.7 0 24.5 4.3 32.3 12.9 7.8 8.6 11.8 21.9 11.8 39.8 0 18-3.9 31.3-11.8 39.9-7.9 8.6-18.5 12.9-31.9 12.9-13.9 0-24.8-4.3-32.6-12.9-7.9-8.6-11.8-21.9-11.8-39.9z m29.8-0.1c0 13 1.5 21.6 4.5 26 2.3 3.4 5.4 5 9.4 5 4.1 0 7.2-1.6 9.4-4.9 3-4.4 4.5-13.2 4.5-26.1 0-13-1.5-21.7-4.4-26.1-2.3-3.3-5.4-4.9-9.5-4.9s-7.2 1.6-9.4 4.9c-3 4.4-4.5 13.1-4.5 26.1z" fill="#2E4F8F" p-id="8766"></path></svg>