<?xml version="1.0" standalone="no"?><!DOCTYPE svg PUBLIC "-//W3C//DTD SVG 1.1//EN" "http://www.w3.org/Graphics/SVG/1.1/DTD/svg11.dtd"><svg t="1594190638037" class="icon" viewBox="0 0 1024 1024" version="1.1" xmlns="http://www.w3.org/2000/svg" p-id="4573" xmlns:xlink="http://www.w3.org/1999/xlink" width="48" height="48"><defs><style type="text/css"></style></defs><path d="M512 42.667C251.733 42.667 42.667 251.733 42.667 512S251.733 981.333 512 981.333c260.267 0 469.333-209.066 469.333-469.333S772.267 42.667 512 42.667z m-21.333 893.866c-217.6-10.666-392.534-185.6-405.334-403.2H172.8c6.4 19.2 23.467 36.267 44.8 40.534 27.733 128 136.533 226.133 270.933 234.666v128z m0-168.533C377.6 759.467 288 676.267 262.4 569.6c14.933-6.4 25.6-21.333 32-36.267h113.067C416 576 448 608 490.667 616.533V768z m0-360.533C448 416 416 448 407.467 490.667H294.4c-6.4-14.934-17.067-27.734-32-36.267C285.867 347.733 377.6 266.667 490.667 256v151.467z m0-194.134C356.267 221.867 247.467 320 219.733 448c-21.333 4.267-38.4 21.333-44.8 40.533h-89.6c12.8-215.466 187.734-390.4 405.334-401.066v125.866z m42.666-125.866c217.6 10.666 392.534 185.6 405.334 403.2h-128C806.4 437.333 789.333 390.4 761.6 347.733c4.267-8.533 6.4-17.066 6.4-27.733 0-36.267-27.733-64-64-64-10.667 0-19.2 2.133-27.733 6.4-40.534-27.733-89.6-44.8-142.934-49.067V87.467z m0 170.666C573.867 262.4 612.267 275.2 646.4 294.4c-4.267 8.533-6.4 17.067-6.4 25.6 0 36.267 27.733 64 64 64 8.533 0 17.067-2.133 25.6-6.4 21.333 34.133 34.133 70.4 36.267 113.067H614.4c-8.533-42.667-40.533-74.667-83.2-83.2V258.133z m0 358.4C576 608 608 576 616.533 533.333H768c-10.667 123.734-108.8 224-234.667 234.667V616.533z m0 320v-128c147.2-10.666 266.667-128 277.334-275.2h128c-12.8 217.6-187.734 392.534-405.334 403.2z" p-id="4574" fill="#1296db"></path></svg>