<?xml version="1.0" standalone="no"?><!DOCTYPE svg PUBLIC "-//W3C//DTD SVG 1.1//EN" "http://www.w3.org/Graphics/SVG/1.1/DTD/svg11.dtd"><svg t="1585292145945" class="icon" viewBox="0 0 1024 1024" version="1.1" xmlns="http://www.w3.org/2000/svg" p-id="13334" xmlns:xlink="http://www.w3.org/1999/xlink" width="64" height="64"><defs><style type="text/css"></style></defs><path d="M960 672H64a32 32 0 0 1-32-32V384a32 32 0 0 1 32-32h896a32 32 0 0 1 32 32v256a32 32 0 0 1-32 32zM96 608h832V416H96z" fill="#4A8BFE" p-id="13335"></path><path d="M896 928H128a32 32 0 0 1-32-32V640a32 32 0 0 1 64 0v224h704V640a32 32 0 0 1 64 0v256a32 32 0 0 1-32 32z m0-512a32 32 0 0 1-32-32V160H160v224a32 32 0 0 1-64 0V128a32 32 0 0 1 32-32h768a32 32 0 0 1 32 32v256a32 32 0 0 1-32 32z" fill="#4A8BFE" p-id="13336"></path><path d="M448 288H256a32 32 0 0 1 0-64h192a32 32 0 0 1 0 64z m320 0H576a32 32 0 0 1 0-64h192a32 32 0 0 1 0 64zM448 800H256a32 32 0 0 1 0-64h192a32 32 0 0 1 0 64z m320 0H576a32 32 0 0 1 0-64h192a32 32 0 0 1 0 64zM448 544H192a32 32 0 0 1 0-64h256a32 32 0 0 1 0 64z m384 0H576a32 32 0 0 1 0-64h256a32 32 0 0 1 0 64z" fill="#4A8BFE" p-id="13337"></path></svg>