<?xml version="1.0" standalone="no"?><!DOCTYPE svg PUBLIC "-//W3C//DTD SVG 1.1//EN" "http://www.w3.org/Graphics/SVG/1.1/DTD/svg11.dtd"><svg t="1594190577126" class="icon" viewBox="0 0 1024 1024" version="1.1" xmlns="http://www.w3.org/2000/svg" p-id="2879" xmlns:xlink="http://www.w3.org/1999/xlink" width="48" height="48"><defs><style type="text/css"></style></defs><path d="M73.142857 1024H0V0h73.142857v950.857143h950.857143v73.142857H73.142857z m512-365.714286a146.285714 146.285714 0 1 1 146.285714-146.285714 146.285714 146.285714 0 0 1-146.285714 146.285714z" fill="#4691EE" p-id="2880"></path><path d="M914.285714 438.857143A109.714286 109.714286 0 1 1 1024 329.142857 109.714286 109.714286 0 0 1 914.285714 438.857143z m-658.285714 438.857143A109.714286 109.714286 0 1 1 365.714286 768 109.714286 109.714286 0 0 1 256 877.714286z m0-512A109.714286 109.714286 0 1 1 365.714286 256 109.714286 109.714286 0 0 1 256 365.714286z" fill="#A2C8F6" p-id="2881"></path></svg>