<?xml version="1.0" standalone="no"?><!DOCTYPE svg PUBLIC "-//W3C//DTD SVG 1.1//EN" "http://www.w3.org/Graphics/SVG/1.1/DTD/svg11.dtd"><svg t="1592876316407" class="icon" viewBox="0 0 1024 1024" version="1.1" xmlns="http://www.w3.org/2000/svg" p-id="9745" xmlns:xlink="http://www.w3.org/1999/xlink" width="48" height="48"><defs><style type="text/css"></style></defs><path d="M378.8 243.5c0-17.4 14.1-31.5 31.5-31.5h481.1c17.4 0 31.5 14.1 31.5 31.5S908.8 275 891.4 275H410.3c-17.4 0.1-31.5-14-31.5-31.5z m512.7 505.4H410.3c-17.4 0-31.5 14.1-31.5 31.5s14.1 31.5 31.5 31.5h481.1c17.4 0 31.5-14.1 31.5-31.5 0.1-17.4-14-31.5-31.4-31.5zM186.9 275.1h110.4c17.4 0 31.5-14.1 31.5-31.5S314.7 212 297.3 212H186.9c-17.4 0-31.5 14.1-31.5 31.5s14.1 31.6 31.5 31.6z m110.4 473.8H186.9c-17.4 0-31.5 14.1-31.5 31.5s14.1 31.5 31.5 31.5h110.4c17.4 0 31.5-14.1 31.5-31.5s-14.1-31.5-31.5-31.5z m113-293.5h318.6c17.4 0 31.5-14.1 31.5-31.5s-14.1-31.5-31.5-31.5H410.3c-17.4 0-31.5 14.1-31.5 31.5s14.1 31.5 31.5 31.5z m0 173.7h318.6c17.4 0 31.5-14.1 31.5-31.5s-14.1-31.5-31.5-31.5H410.3c-17.4 0-31.5 14.1-31.5 31.5s14.1 31.5 31.5 31.5z m-233.1-34.3c12.3 12.3 32.3 12.3 44.6 0 12.3-12.3 12.3-32.3 0-44.6l-13.1-13.1H308c17.4 0 31.5-14.1 31.5-31.5s-14.1-31.5-31.5-31.5h-99.3l13.1-13.1c12.3-12.3 12.3-32.3 0-44.6-6.2-6.2-14.2-9.2-22.3-9.2s-16.1 3.1-22.3 9.2l-66.9 66.9c-5.9 5.9-9.2 13.9-9.2 22.3s3.3 16.4 9.2 22.3l66.9 66.9z" p-id="9746" fill="#1296db"></path></svg>