<?xml version="1.0" standalone="no"?><!DOCTYPE svg PUBLIC "-//W3C//DTD SVG 1.1//EN" "http://www.w3.org/Graphics/SVG/1.1/DTD/svg11.dtd"><svg t="1592824005099" class="icon" viewBox="0 0 1024 1024" version="1.1" xmlns="http://www.w3.org/2000/svg" p-id="6036" xmlns:xlink="http://www.w3.org/1999/xlink" width="48" height="48"><defs><style type="text/css"></style></defs><path d="M510.466048 65.278976c-246.434816 0-446.211072 199.771136-446.211072 446.200832 0 246.424576 199.776256 446.216192 446.211072 446.216192 246.429696 0 446.205952-199.791616 446.205952-446.216192C956.672 265.051136 756.895744 65.278976 510.466048 65.278976zM798.789632 420.78208 478.706688 740.810752c-6.529024 6.57408-17.169408 6.57408-23.663616 0l-47.312896-47.75936c-6.490112-6.554624-17.164288-17.272832-23.653376-23.886848l-110.068736-115.68128c-3.227648-3.28704-4.953088-7.82336-4.953088-12.151808 0-4.303872 1.72544-8.428544 4.953088-11.73504l48.234496-43.470848c3.262464-3.326976 7.629824-4.953088 11.938816-4.932608 4.248576 0.039936 8.482816 1.680384 11.715584 4.932608l109.147136 111.397888c6.495232 6.608896 17.134592 6.608896 23.663616 0l249.137152-248.42752c6.495232-6.549504 17.129472-6.549504 23.62368 0l47.323136 47.798272C805.30944 403.429376 805.30944 414.208 798.789632 420.78208z" fill="#1296db" p-id="6037"></path></svg>