<?xml version="1.0" standalone="no"?><!DOCTYPE svg PUBLIC "-//W3C//DTD SVG 1.1//EN" "http://www.w3.org/Graphics/SVG/1.1/DTD/svg11.dtd"><svg t="1585292249545" class="icon" viewBox="0 0 1024 1024" version="1.1" xmlns="http://www.w3.org/2000/svg" p-id="14952" xmlns:xlink="http://www.w3.org/1999/xlink" width="64" height="64"><defs><style type="text/css"></style></defs><path d="M691.712 764.928H1008.64V870.4h-316.928v-105.472zM353.28 764.928h317.44V870.4H353.28v-105.472zM15.36 764.928h316.928V870.4H15.36v-105.472z" fill="#3557A6" p-id="14953"></path><path d="M15.36 384.512h993.28v105.472H15.36V384.512zM691.712 637.952H1008.64v105.472h-316.928v-105.472zM353.28 637.952h317.44v105.472H353.28v-105.472zM15.36 637.952h316.928v105.472H15.36v-105.472z" fill="#293B70" p-id="14954"></path><path d="M691.712 510.976H1008.64v105.472h-316.928V510.976zM353.28 510.976h317.44v105.472H353.28V510.976zM15.36 510.976h316.928v105.472H15.36V510.976z" fill="#3557A6" p-id="14955"></path></svg>