<?xml version="1.0" standalone="no"?><!DOCTYPE svg PUBLIC "-//W3C//DTD SVG 1.1//EN" "http://www.w3.org/Graphics/SVG/1.1/DTD/svg11.dtd"><svg t="1585293560377" class="icon" viewBox="0 0 1024 1024" version="1.1" xmlns="http://www.w3.org/2000/svg" p-id="51936" xmlns:xlink="http://www.w3.org/1999/xlink" width="64" height="64"><defs><style type="text/css"></style></defs><path d="M909.7 138.5c0-19.2-15.8-35-35-35H149.3c-19.3 0-35 15.8-35 35V204c0 19.3 15.8 35 35 35l22.8-65.5h284.7v687h-0.1l-35 35c0 19.3 15.8 35 35 35h101.8c19.3 0 35-15.8 35-35l-35-35h-0.3v-687H851l22.8 65.5c19.3 0 35-15.8 35-35v-57.2c0.6-2.7 0.9-5.4 0.9-8.3z" p-id="51937" fill="#13227a"></path></svg>