<?xml version="1.0" standalone="no"?><!DOCTYPE svg PUBLIC "-//W3C//DTD SVG 1.1//EN" "http://www.w3.org/Graphics/SVG/1.1/DTD/svg11.dtd"><svg t="1585293464866" class="icon" viewBox="0 0 1024 1024" version="1.1" xmlns="http://www.w3.org/2000/svg" p-id="49919" xmlns:xlink="http://www.w3.org/1999/xlink" width="64" height="64"><defs><style type="text/css"></style></defs><path d="M512.257 8C234.029 8 8.498 233.522 8.498 511.75c0 278.196 225.531 503.75 503.759 503.75 278.195 0 503.75-225.554 503.75-503.75C1016.007 233.522 790.452 8 512.257 8z" fill="#3EBDD9" p-id="49920"></path><path d="M232.737 509.015c0 152.61 123.716 276.324 276.328 276.324 152.608 0 276.325-123.714 276.325-276.324 0-152.612-123.717-276.327-276.325-276.327-152.612 0-276.328 123.715-276.328 276.327z" fill="#FFC824" p-id="49921"></path><path d="M509.065 920C282.083 920.043 98.044 736.074 98 509.093a411.013 411.013 0 0 1 35.375-166.89c5.396-12.212 19.671-17.738 31.884-12.342 0.01 0.004 0.019 0.007 0.027 0.012 12.213 5.396 17.739 19.673 12.343 31.882-0.005 0.013-0.009 0.02-0.012 0.032a357.764 357.764 0 0 0-31.187 147.228c0.048 200.275 162.446 362.594 362.723 362.545 200.277-0.052 362.594-162.448 362.547-362.727-0.05-200.277-162.447-362.593-362.727-362.542a362.571 362.571 0 0 0-90.326 11.452c-12.951 3.337-26.157-4.457-29.495-17.407-3.337-12.95 4.456-26.155 17.406-29.494a417.738 417.738 0 0 1 102.506-12.813c226.978 0 410.986 184.004 410.986 410.985S736.043 920 509.065 920z" fill="#6B400D" p-id="49922"></path><path d="M509.065 294.576c-13.351 0-24.176-10.823-24.176-24.176v-37.713c0-13.353 10.825-24.176 24.176-24.176 13.353 0 24.176 10.824 24.176 24.176V270.4c0 13.353-10.823 24.176-24.176 24.176zM270.451 533.19h-37.713c-13.351-0.007-24.172-10.831-24.167-24.186 0.004-13.345 10.822-24.159 24.167-24.165h37.713c13.353-0.007 24.18 10.814 24.185 24.165 0.004 13.354-10.814 24.179-24.167 24.186h-0.018z m238.614 276.328c-13.351 0-24.176-10.823-24.176-24.179v-37.71c0-13.355 10.825-24.177 24.176-24.177 13.353 0 24.176 10.821 24.176 24.177v37.71c0 13.355-10.823 24.179-24.176 24.179zM785.391 533.19h-37.714c-13.352-0.007-24.17-10.831-24.166-24.186 0.003-13.345 10.821-24.159 24.166-24.165h37.714c13.352 0.006 24.172 10.829 24.169 24.184-0.006 13.346-10.824 24.161-24.169 24.167z m-96.217 102.263a27.352 27.352 0 0 1-12.089-3.142L497.22 530.048a24.18 24.18 0 0 1-11.363-14.264l-37.715-130.549c-2.995-13.013 5.124-25.988 18.136-28.982 12.052-2.775 24.253 3.991 28.283 15.688l35.052 120.875 171.406 96.702c11.598 6.56 15.709 21.262 9.188 32.879a24.18 24.18 0 0 1-21.033 13.056zM264.891 233.171c-13.351 0.056-24.22-10.721-24.278-24.074a24.177 24.177 0 0 1 9.047-18.959c7.494-6.044 14.989-11.605 22.725-17.164 11.434-6.896 26.292-3.214 33.187 8.22 6.203 10.289 3.91 23.573-5.385 31.187-6.768 4.835-13.539 9.912-20.064 15.229a24.179 24.179 0 0 1-15.232 5.561z" fill="#6B400D" p-id="49923"></path></svg>