<?xml version="1.0" standalone="no"?><!DOCTYPE svg PUBLIC "-//W3C//DTD SVG 1.1//EN" "http://www.w3.org/Graphics/SVG/1.1/DTD/svg11.dtd"><svg t="1592823930148" class="icon" viewBox="0 0 1024 1024" version="1.1" xmlns="http://www.w3.org/2000/svg" p-id="4496" xmlns:xlink="http://www.w3.org/1999/xlink" width="48" height="48"><defs><style type="text/css"></style></defs><path d="M584.7 949c-16.7 0-32.3-6.5-44.1-18.3L91 481.1c-10.8-10.8-16.9-25.6-16.8-40.9l1-320.9v-0.2c0.6-23.6 19.5-42.5 43.1-43.1h0.5l320.6-1h0.2c15.1 0 30 6.1 40.7 16.8l449.6 449.6c24.3 24.3 24.3 63.9 0 88.3l-301 301c-11.8 11.8-27.5 18.3-44.2 18.3zM121.2 122l-1 318.4c0 3 1.2 6 3.4 8.2l449.6 449.6c3.1 3.1 7.2 4.8 11.6 4.8 4.4 0 8.5-1.7 11.6-4.8l301-301c6.4-6.4 6.4-16.8 0-23.2L447.8 124.4c-2.1-2.1-5.1-3.4-8.1-3.4l-318.5 1z" p-id="4497"></path><path d="M304.3 386.8c-21 0-42.1-8-58.1-24-32-32-32-84.1 0-116.1s84.1-32 116.1 0 32 84.1 0 116.1c-15.9 16-37 24-58 24z m0-118.2c-9.2 0-18.5 3.5-25.5 10.6-14.1 14.1-14.1 37 0 51.1 14.1 14.1 37 14.1 51.1 0 14.1-14.1 14.1-37 0-51.1-7.1-7.1-16.3-10.6-25.6-10.6z" p-id="4498"></path></svg>