<?xml version="1.0" standalone="no"?><!DOCTYPE svg PUBLIC "-//W3C//DTD SVG 1.1//EN" "http://www.w3.org/Graphics/SVG/1.1/DTD/svg11.dtd"><svg t="1585621010383" class="icon" viewBox="0 0 1102 1024" version="1.1" xmlns="http://www.w3.org/2000/svg" p-id="5346" xmlns:xlink="http://www.w3.org/1999/xlink" width="68.875" height="64"><defs><style type="text/css"></style></defs><path d="M1054.72 603.844923H43.874462a37.809231 37.809231 0 0 1-37.96677-37.888 37.809231 37.809231 0 0 1 37.96677-37.966769H1054.72a37.809231 37.809231 0 0 1 37.888 37.966769 37.809231 37.809231 0 0 1-37.888 37.888z m0 197.947077H43.874462a37.809231 37.809231 0 0 1-37.96677-37.888 37.809231 37.809231 0 0 1 37.96677-37.888H1054.72a37.809231 37.809231 0 0 1 37.888 37.809231 37.809231 37.809231 0 0 1-37.888 37.966769z m-168.487385 197.947077H43.874462a37.809231 37.809231 0 0 1-37.96677-37.809231 37.809231 37.809231 0 0 1 37.96677-37.966769H886.153846a37.809231 37.809231 0 0 1 37.888 37.888 37.809231 37.809231 0 0 1-37.809231 37.888z m-722.313846-583.364923V79.556923H43.874462V16.305231h309.563076v63.172923H235.52v336.896h-71.68z m229.533539 0V121.540923h69.474461v294.833231h-69.474461z m0-336.896V16.305231h69.474461v61.046154l-69.474461 2.126769z m225.28 341.070769c-48.364308 0-71.522462-25.206154-71.522462-75.776V178.412308h-46.395077v-56.871385h46.395077V56.32h69.474462v65.220923h58.919384v56.871385H616.763077v155.884307c0 25.206154 6.301538 29.459692 21.031385 29.459693 6.301538 0 14.729846 0 21.110153-2.12677l10.476308-2.048v54.744616l-6.301538 2.048c-14.729846 4.253538-29.459692 4.253538-44.189539 4.253538zM713.649231 16.384h69.474461v400.147692h-69.474461V16.226462z m240.088615 406.449231c-96.886154 0-130.599385-77.981538-130.599384-145.329231 0-92.711385 50.569846-151.630769 132.647384-151.630769 94.759385 0 126.424615 73.728 126.424616 134.774154v31.586461H892.455385c2.126769 42.141538 27.411692 71.68 61.124923 71.68 23.158154 4.174769 46.316308-10.633846 54.744615-33.792l2.048-4.174769h69.553231l-2.126769 10.476308c-14.729846 54.823385-67.426462 92.711385-124.219077 86.409846z m58.919385-181.169231a53.169231 53.169231 0 0 0-52.617846-56.871385h-4.253539c-33.634462 0-54.744615 18.983385-61.046154 59.076923h117.917539v-2.205538z" fill="#F77661" p-id="5347"></path></svg>