<?xml version="1.0" standalone="no"?><!DOCTYPE svg PUBLIC "-//W3C//DTD SVG 1.1//EN" "http://www.w3.org/Graphics/SVG/1.1/DTD/svg11.dtd"><svg t="1585620904801" class="icon" viewBox="0 0 2966 1024" version="1.1" xmlns="http://www.w3.org/2000/svg" p-id="4575" xmlns:xlink="http://www.w3.org/1999/xlink" width="185.375" height="64"><defs><style type="text/css"></style></defs><path d="M86.588235 248.560941h474.654118a30.960941 30.960941 0 0 1 33.882353 26.654118v488.673882a30.960941 30.960941 0 0 1-33.882353 26.654118H86.588235a30.960941 30.960941 0 0 1-33.882353-26.654118V275.215059a30.960941 30.960941 0 0 1 33.882353-26.654118z" fill="#00CAFF" opacity=".28" p-id="4576"></path><path d="M658.823529 248.560941h474.654118a30.960941 30.960941 0 0 1 33.882353 26.654118v488.673882a30.960941 30.960941 0 0 1-33.882353 26.654118H658.823529a30.960941 30.960941 0 0 1-33.882353-26.654118V275.215059a30.960941 30.960941 0 0 1 33.882353-26.654118z" fill="#00CAFF" opacity=".28" p-id="4577"></path><path d="M2393.750588 248.560941h467.877647c20.48 0 36.894118 11.941647 36.894118 26.654118v488.673882c0 14.712471-16.414118 26.654118-36.894118 26.654118h-467.877647c-20.48 0-37.044706-11.941647-37.044706-26.654118V275.215059c0-14.697412 16.564706-26.654118 37.044706-26.654118z" fill="#00CAFF" p-id="4578"></path><path d="M1806.456471 248.560941h467.877647c20.48 0 36.894118 11.941647 36.894117 26.654118v488.673882c0 14.712471-16.414118 26.654118-36.894117 26.654118h-467.877647c-20.48 0-37.044706-11.941647-37.044706-26.654118V275.215059c0-14.697412 16.564706-26.654118 37.044706-26.654118z" fill="#00CAFF" p-id="4579"></path><path d="M1234.221176 248.560941h467.877648c20.48 0 36.894118 11.941647 36.894117 26.654118v488.673882c0 14.712471-16.414118 26.654118-36.894117 26.654118H1234.221176c-20.48 0-37.044706-11.941647-37.044705-26.654118V275.215059c0-14.697412 16.564706-26.654118 37.044705-26.654118z" fill="#00CAFF" p-id="4580"></path></svg>