<?xml version="1.0" standalone="no"?><!DOCTYPE svg PUBLIC "-//W3C//DTD SVG 1.1//EN" "http://www.w3.org/Graphics/SVG/1.1/DTD/svg11.dtd"><svg t="1585292665469" class="icon" viewBox="0 0 1024 1024" version="1.1" xmlns="http://www.w3.org/2000/svg" p-id="23493" xmlns:xlink="http://www.w3.org/1999/xlink" width="64" height="64"><defs><style type="text/css"></style></defs><path d="M512 35.328c271.872 0 492.032 213.504 492.032 476.672s-220.16 476.672-492.032 476.672S19.968 775.168 19.968 512 240.128 35.328 512 35.328z" fill="#BAD1FF" p-id="23494"></path><path d="M1002.496 473.6c0-0.512 0-0.512 0 0-0.512-0.512-1.024-0.512-1.024-0.512s0.512 0 1.024 0.512z" fill="#4F3892" p-id="23495"></path><path d="M1002.496 473.6c-0.512 0-1.024-0.512-1.024-0.512-19.456-9.728-38.912-17.92-58.368-23.552-62.464-41.984-132.096-124.416-308.224-125.44-99.328-0.512-171.52 52.736-249.856 93.184 89.088 4.608 160.256 83.456 233.472 159.744 3.072 3.584 6.656 7.168 9.728 10.24 52.224 54.272 105.984 104.96 168.448 125.44 66.048 20.992 117.76 18.432 160.256 4.096 22.528-46.08 37.888-96.256 44.032-148.992 2.048-17.92 3.072-36.352 3.072-55.296 0-13.312-0.512-26.624-1.536-38.912zM20.992 480.256c-0.512 10.752-1.024 20.992-1.024 31.744 0 20.48 1.536 40.448 4.096 60.416 0 2.048 0.512 3.584 1.024 5.632 3.072 20.992 7.168 41.472 13.312 61.952 24.576-11.776 49.664-20.48 74.24-24.576 6.656-10.24 13.824-20.48 21.504-30.208 2.56-3.072 4.608-6.144 7.168-9.216 34.816-44.544 76.8-87.04 120.832-116.736-11.264 1.536-23.04 2.048-35.328 2.048-67.584-2.048-142.848 6.144-205.824 18.944z" fill="#AA8AF6" p-id="23496"></path><path d="M796.672 712.192c-62.464-19.968-116.224-71.168-168.448-125.44-3.072-3.584-6.656-6.656-9.728-10.24-73.216-75.776-144.384-154.624-233.472-159.232h-0.512c-39.936-2.048-82.432 14.336-122.88 41.472-44.544 29.696-86.528 72.192-120.832 116.736-2.56 3.072-4.608 6.144-7.168 9.216-7.68 10.24-14.848 20.48-21.504 30.208 12.288-2.048 25.088-3.072 36.864-2.56 26.112 1.024 50.688 7.168 74.24 16.896 14.848 6.144 29.696 13.312 43.52 22.016 69.12 41.472 131.072 107.008 201.216 152.576 29.184 18.944 59.904 34.304 93.184 43.008 121.856 31.232 195.072-2.56 250.88-40.448 48.64-32.768 84.48-68.608 128-67.072 1.536 0 3.072 0 4.608 0.512 4.096-7.68 8.192-15.36 11.776-23.04-41.984 13.824-93.696 16.896-159.744-4.608z" fill="#5A90FA" p-id="23497"></path><path d="M266.752 651.264c-14.336-8.704-28.672-15.872-43.52-22.016 13.312 7.68 27.648 15.36 43.52 22.016z" fill="#428ACA" p-id="23498"></path><path d="M940.032 738.816c-43.52-1.536-78.848 34.304-128 67.072-55.808 37.888-129.024 71.168-250.88 40.448-33.28-8.704-64-24.064-93.184-43.008-70.144-45.056-132.096-111.104-201.216-152.576-15.872-6.656-30.208-13.824-43.52-22.016-23.552-9.728-48.128-15.872-74.24-16.896-12.288-0.512-24.576 0.512-36.864 2.56-24.576 4.096-49.664 12.8-74.24 24.576 6.656 23.552 15.36 46.592 25.6 68.608 8.704 18.432 18.432 35.84 29.184 52.736 28.16 44.544 64 84.48 105.472 117.76 84.992 68.608 194.56 109.568 313.856 109.568 103.424 0 199.68-31.232 279.04-83.968 42.496-28.16 79.872-62.976 111.616-102.4 15.872-19.968 30.208-40.96 42.496-62.976-2.048 0.512-3.584 0.512-5.12 0.512z" fill="#62CDFF" p-id="23499"></path></svg>