<?xml version="1.0" standalone="no"?><!DOCTYPE svg PUBLIC "-//W3C//DTD SVG 1.1//EN" "http://www.w3.org/Graphics/SVG/1.1/DTD/svg11.dtd"><svg t="1592880033233" class="icon" viewBox="0 0 1024 1024" version="1.1" xmlns="http://www.w3.org/2000/svg" p-id="20237" xmlns:xlink="http://www.w3.org/1999/xlink" width="48" height="48"><defs><style type="text/css"></style></defs><path d="M861.4912 376.6272h91.136v91.136h-91.136v-91.136z m-318.976-318.976h91.136v91.136h-91.136v-91.136z m206.7968 139.008l64.4096-64.4096 64.4096 64.4096L813.7216 261.12l-64.4096-64.4608z m-451.1232 0.0512l64.4096-64.4608L427.008 196.7104 362.5984 261.1712 298.1888 196.7104z m0 0" p-id="20238" fill="#1296db"></path><path d="M767.5904 558.8992c30.7712-38.9632 47.7696-87.04 48.2816-136.704 0-60.416-24.0128-118.3744-66.7136-161.0752a227.61984 227.61984 0 0 0-161.0752-66.7136 227.7376 227.7376 0 0 0-207.3088 136.704h-20.5312c-176.1792 0-318.976 142.7968-318.976 318.976s142.7968 318.976 318.976 318.976h387.328c113.2544 5.5296 209.5104-81.7664 215.0912-195.0208 5.5296-113.3568-81.8176-209.6128-195.072-215.1424z m-20.0192 318.9248H360.2432c-120.9856 0.256-221.0304-94.0544-227.9424-214.8352C125.44 542.208 214.1184 437.0944 334.336 423.6288c120.2176-13.5168 230.0416 69.2736 250.112 188.5696l6.4 37.8368h156.7232c62.9248 0 113.92 50.9952 113.92 113.92s-50.9952 113.8688-113.92 113.8688z m0 0" p-id="20239" fill="#1296db"></path></svg>