<?xml version="1.0" encoding="UTF-8"?>
<svg width="40px" height="40px" viewBox="0 0 40 40" version="1.1" xmlns="http://www.w3.org/2000/svg" xmlns:xlink="http://www.w3.org/1999/xlink">
    <!-- Generator: Sketch 53.1 (72631) - https://sketchapp.com -->
    <title>Group</title>
    <desc>Created with Sketch.</desc>
    <g id="Page-1" stroke="none" stroke-width="1" fill="none" fill-rule="evenodd">
        <g id="第四页---储物柜-copy-3" transform="translate(-130.000000, -386.000000)" fill="#0066CC" fill-rule="nonzero">
            <g id="Group-2" transform="translate(49.000000, 180.000000)">
                <g id="Group-6" transform="translate(81.000000, 197.000000)">
                    <g id="Group" transform="translate(0.000000, 9.000000)">
                        <path d="M10.8312324,11.9999782 C10.515471,12.0018695 10.2114745,11.8806267 9.98412788,11.6621278 L2.31178153,3.96396625 C1.89607282,3.50470805 1.89607282,2.8063692 2.31178153,2.34711099 C2.79054968,1.88429634 3.55142534,1.88429634 4.03019349,2.34711099 L11.7751488,10.0935369 C12.0339142,10.4553621 12.0722653,10.9297207 11.8749693,11.3282021 C11.6776733,11.7266836 11.2766694,11.9847801 10.8312324,11.9999782 L10.8312324,11.9999782 Z" id="Path"></path>
                        <path d="M1.27015371,11.3816327 C0.615417328,11.3850594 0.0654662388,10.8681344 0,10.1877551 L0,1.32653061 C-7.05076946e-17,0.593907985 0.568667185,1.47274483e-16 1.27015371,0 L9.50074974,0 C10.1965614,0.0141145663 10.7573887,0.599834718 10.7709034,1.32653061 C10.7709034,1.6783484 10.6370841,2.01575666 10.398884,2.2645294 C10.160684,2.51330215 9.83761545,2.65306122 9.50074974,2.65306122 L2.54030742,2.65306122 L2.54030742,10.1877551 C2.47484118,10.8681344 1.92489009,11.3850594 1.27015371,11.3816327 Z M28.7308769,12.8408163 C29.0622951,12.8428956 29.3813651,12.7096027 29.6199845,12.4693878 L37.672759,4.00612245 C38.1090803,3.50121956 38.1090803,2.73347432 37.672759,2.22857143 C37.1702514,1.71975862 36.3716483,1.71975862 35.8691407,2.22857143 L27.740157,10.744898 C27.3843619,11.1238882 27.2791223,11.6878904 27.472622,12.1786765 C27.6661218,12.6694627 28.1211076,12.9925448 28.6292646,13 L28.7308769,12.8408163 Z" id="Shape"></path>
                        <path d="M38.731393,10.8556555 C38.0307607,10.8556555 37.462786,10.2891937 37.462786,9.59042758 L37.462786,2.53045582 L30.5108195,2.53045582 C29.8101872,2.53045582 29.2422125,1.96399399 29.2422125,1.26522791 C29.2557107,0.572114673 29.8158551,0.0134622926 30.5108195,0 L38.731393,0 C39.4320253,1.40468516e-16 40,0.566461831 40,1.26522791 L40,9.71695037 C39.9346135,10.3658874 39.3853321,10.8589239 38.731393,10.8556555 Z M11.3041092,27.4301411 C10.9676648,27.4260505 10.6451448,27.5639052 10.4160843,27.8097095 L2.37311573,35.8312545 C2.05132268,36.1521904 1.92564819,36.6199646 2.04343261,37.0583712 C2.16121704,37.4967778 2.50456613,37.8392124 2.94414361,37.9566831 C3.38372108,38.0741538 3.85274466,37.948814 4.1745377,37.6278781 L12.2936226,29.5051149 C12.5389135,29.2755182 12.6780579,28.9549582 12.6780579,28.6194554 C12.6780579,28.2839526 12.5389135,27.9633925 12.2936226,27.7337958 C12.0273384,27.4876115 11.6630986,27.3758362 11.3041092,27.4301411 L11.3041092,27.4301411 Z" id="Shape"></path>
                        <path d="M9.48918778,40 L1.26860799,40 C0.567975145,40 7.04218901e-17,39.3981474 0,38.6557246 L0,29.7028508 C1.04402428e-08,28.960428 0.567975152,28.3585755 1.26860799,28.3585755 C1.96924083,28.3585755 2.53721597,28.960428 2.53721598,29.7028508 L2.53721598,37.2039073 L9.48918778,37.2039073 C10.1898206,37.2039073 10.7577958,37.8057598 10.7577958,38.5481826 C10.7577958,39.2906054 10.1898206,39.892458 9.48918778,39.892458 L9.48918778,40 Z M28.6959128,27.0143001 C29.0323574,27.0099539 29.3548777,27.1564213 29.5839384,27.4175827 L37.626913,35.9402884 C38.1243623,36.4674086 38.1243623,37.3220392 37.626913,37.8491594 C37.1294637,38.3762796 36.322939,38.3762796 35.8254897,37.8491594 L27.7063985,29.2189117 C27.4611075,28.9749705 27.321963,28.6343829 27.321963,28.2779189 C27.321963,27.921455 27.4611075,27.5808674 27.7063985,27.3369262 C27.972683,27.075361 28.3369231,26.9566024 28.6959128,27.0143001 L28.6959128,27.0143001 Z" id="Shape"></path>
                        <path d="M38.6991603,39.9999935 L30.2966792,39.9999935 C29.580543,39.9999935 29,39.4313024 29,38.7297864 C29,38.0282704 29.580543,37.4595793 30.2966792,37.4595793 L37.4024811,37.4595793 L37.4024811,30.2702071 C37.4024811,29.5686911 37.9830241,29 38.6991603,29 C39.4152964,29 39.9958395,29.5686911 39.9958395,30.2702071 L39.9958395,38.6281698 C40.0248536,38.9822812 39.901159,39.3321132 39.654769,39.5927818 C39.4083791,39.8534504 39.0618123,40.0011322 38.6991603,39.9999935 L38.6991603,39.9999935 Z" id="Path"></path>
                    </g>
                </g>
            </g>
        </g>
    </g>
</svg>