<svg width="40px" height="50px" viewBox="0 0 41 50" version="1.1" xmlns="http://www.w3.org/2000/svg" xmlns:xlink="http://www.w3.org/1999/xlink">
    <g id="Page-1" stroke="none" stroke-width="1" fill="none" fill-rule="evenodd">
        <g id="第二页---工位--Page2" transform="translate(-704.000000, -268.000000)" fill="#FFFFFF" fill-rule="nonzero">
            <g id="楼层定位" transform="translate(657.000000, 258.000000)">
                <g id="Group-3" transform="translate(47.000000, 0.000000)">
                    <g id="Group" transform="translate(0.000000, 10.000000)">
                        <path d="M20.4968612,50 L19.4510902,49.0511044 C18.6566772,48.3334013 0,31.2888175 0,20.3498926 C0,9.12763789 9.19495236,0 20.4968612,0 C31.8021262,0 41,9.12763789 41,20.3498926 C41,31.2919025 22.3372314,48.3334013 21.5428185,49.0511044 L20.4968612,50 L20.4968612,50 Z M20.497023,4 C11.3993133,4 4,11.4343613 4,20.5713919 C4,27.7338162 15.1050125,39.8416074 20.497023,45 C25.891981,39.8416074 37,27.7338162 37,20.5713919 C37,11.4343613 29.5946736,4 20.497023,4 L20.497023,4 Z M20.0000331,29 C15.0367304,29 11,24.9624601 11,20.0016904 C11,15.0374736 15.0367304,11 20.0000331,11 C24.9632697,11 29,15.0374736 29,20.0016904 C29,24.9658407 24.9598896,29 20.0000331,29 L20.0000331,29 Z M19.9998836,15 C17.2412167,15 15,17.2418302 15,20.0014851 C15,22.7579367 17.2412167,25 19.9998836,25 C22.7587251,25 25,22.7579367 25,20.0014851 C25,17.2418302 22.7558139,15 19.9998836,15 L19.9998836,15 Z" id="Shape"></path>
                    </g>
                </g>
            </g>
        </g>
    </g>
</svg>