<svg xmlns="http://www.w3.org/2000/svg" xmlns:xlink="http://www.w3.org/1999/xlink" viewBox="0 0 80 80"><defs><style>.cls-1{fill:none;}.cls-2{clip-path:url(#clip-path);}.cls-3{fill:#3a66c7;}.cls-4{clip-path:url(#clip-path-2);}.cls-5{clip-path:url(#clip-path-3);}.cls-6{clip-path:url(#clip-path-4);}.cls-7{clip-path:url(#clip-path-5);}.cls-8{clip-path:url(#clip-path-6);}.cls-9{clip-path:url(#clip-path-7);}.cls-10{clip-path:url(#clip-path-8);}.cls-11{clip-path:url(#clip-path-9);}.cls-12{clip-path:url(#clip-path-10);}</style><clipPath id="clip-path"><path class="cls-1" d="M49.71,43a12,12,0,1,1,12-12A12,12,0,0,1,49.71,43Zm-.06-27A14.92,14.92,0,1,0,64.57,30.94,14.93,14.93,0,0,0,49.65,16Z"/></clipPath><clipPath id="clip-path-2"><path class="cls-1" d="M49.65,13.43a.88.88,0,0,0,.88-.89V6.88a.88.88,0,0,0-1.76,0v5.66A.89.89,0,0,0,49.65,13.43Z"/></clipPath><clipPath id="clip-path-3"><path class="cls-1" d="M39.69,15.45a.87.87,0,0,0,1.2.32.87.87,0,0,0,.32-1.2l-2.82-4.9a.88.88,0,1,0-1.53.88Z"/></clipPath><clipPath id="clip-path-4"><path class="cls-1" d="M34.16,21l-4.9-2.82a.88.88,0,0,0-.88,1.52l4.9,2.84a.87.87,0,0,0,.44.11A.89.89,0,0,0,34.16,21Z"/></clipPath><clipPath id="clip-path-5"><path class="cls-1" d="M59.61,46.43a.88.88,0,0,0-1.53.88l2.83,4.9a.88.88,0,0,0,.77.44.91.91,0,0,0,.44-.12.88.88,0,0,0,.32-1.2Z"/></clipPath><clipPath id="clip-path-6"><path class="cls-1" d="M70.92,42.2,66,39.37a.88.88,0,0,0-.88,1.53L70,43.73a.88.88,0,0,0,.44.12.89.89,0,0,0,.44-1.65Z"/></clipPath><clipPath id="clip-path-7"><path class="cls-1" d="M73.7,30.06H68.05a.88.88,0,1,0,0,1.75H73.7a.88.88,0,1,0,0-1.75Z"/></clipPath><clipPath id="clip-path-8"><path class="cls-1" d="M65.58,22.62a.87.87,0,0,0,.44-.11l4.9-2.84A.88.88,0,1,0,70,18.15L65.14,21a.89.89,0,0,0,.44,1.65Z"/></clipPath><clipPath id="clip-path-9"><path class="cls-1" d="M58.41,15.77a.87.87,0,0,0,1.2-.32l2.83-4.9a.89.89,0,0,0-.32-1.21.87.87,0,0,0-1.2.33l-2.84,4.9A.87.87,0,0,0,58.41,15.77Z"/></clipPath><clipPath id="clip-path-10"><path class="cls-1" d="M21.77,70.14H43.59a11,11,0,0,0,3.82-21.28,15.3,15.3,0,0,1-2.93,6,1.44,1.44,0,0,1-1.12.54A1.44,1.44,0,0,1,42.24,53a12.25,12.25,0,0,0,2.63-6.17h0c0-.3.07-.57.09-.83s0-.53,0-.8a12.48,12.48,0,0,0-24.46-3.53c.42,0,.82-.06,1.24-.06A15.54,15.54,0,0,1,31.46,45a1.44,1.44,0,0,1-1.77,2.26,12.71,12.71,0,0,0-7.92-2.74,13,13,0,0,0-3,.37,12.18,12.18,0,0,0-2.67,1l-.22.1c-.26.13-.52.29-.77.44l-.19.11c-.26.17-.51.35-.77.54l-.1.07a13.13,13.13,0,0,0-4.32,5.84.78.78,0,0,1-.05.14c-.09.28-.18.55-.26.83l-.09.36c-.06.23-.11.47-.16.71l-.09.59c0,.18-.05.36-.07.54q-.06.6-.06,1.2A12.84,12.84,0,0,0,21.77,70.14ZM6.16,55.87c0-.21,0-.41.08-.61s.07-.5.11-.75.11-.54.17-.8.07-.31.12-.46c.08-.32.18-.64.28-1l0,0a15.72,15.72,0,0,1,6.81-8.39l.25-.15c.26-.15.53-.3.81-.43l.45-.22c.25-.11.51-.23.77-.33l.54-.2.78-.26.09,0a15.36,15.36,0,0,1,30.42,3c0,.24,0,.49,0,.74a13.85,13.85,0,0,1-4.24,27H21.77A15.7,15.7,0,0,1,6.09,57.31C6.09,56.82,6.12,56.35,6.16,55.87Z"/></clipPath></defs><title>Weather Icons_20200701</title><g id="_19" data-name="19"><g class="cls-2"><path class="cls-3" d="M37.26,44.48a3.8,3.8,0,0,1-.57-.42,5.31,5.31,0,0,1-1.3.17A4.82,4.82,0,0,1,32,43v5.68h6A5.78,5.78,0,0,1,37.26,44.48Z"/><path class="cls-3" d="M32,13.25V31.92a5.31,5.31,0,0,1,2.23-.47,4.92,4.92,0,0,1,3.07,1,4.58,4.58,0,0,1,3.32,2.44c3.39.34,4.82,3.52,4.3,6.27,2.46,1.54,2.93,5.15,1.42,7.49h21V13.25Z"/></g><g class="cls-4"><rect class="cls-3" x="46" y="3.23" width="7.31" height="12.97"/></g><g class="cls-5"><rect class="cls-3" x="33.97" y="6.45" width="10.14" height="12.21"/></g><g class="cls-6"><rect class="cls-3" x="25.17" y="15.26" width="12.21" height="10.14"/></g><g class="cls-7"><rect class="cls-3" x="55.19" y="43.21" width="10.14" height="12.21"/></g><g class="cls-8"><rect class="cls-3" x="61.93" y="36.48" width="12.21" height="10.14"/></g><g class="cls-9"><rect class="cls-3" x="64.39" y="27.28" width="12.96" height="7.3"/></g><g class="cls-10"><rect class="cls-3" x="61.93" y="15.26" width="12.21" height="10.14"/></g><g class="cls-11"><rect class="cls-3" x="55.19" y="6.45" width="10.14" height="12.21"/></g><g class="cls-12"><rect class="cls-3" x="3.23" y="27.01" width="57.07" height="48.85"/></g></g></svg>