<svg xmlns="http://www.w3.org/2000/svg" xmlns:xlink="http://www.w3.org/1999/xlink" viewBox="0 0 80 80"><defs><style>.cls-1{fill:none;}.cls-2{clip-path:url(#clip-path);}.cls-3{fill:#3a66c7;}</style><clipPath id="clip-path"><path class="cls-1" d="M26.44,66H56.19A15,15,0,0,0,61.4,37a20.89,20.89,0,0,1-4,8.14,1.92,1.92,0,0,1-1.52.74,2,2,0,0,1-1.52-3.19,16.78,16.78,0,0,0,3.58-8.41v0c.06-.41.09-.77.12-1.13s0-.72,0-1.09a17,17,0,0,0-33.35-4.81c.56,0,1.11-.09,1.69-.09a21.19,21.19,0,0,1,13.2,4.56,2,2,0,0,1-2.41,3.08A17.3,17.3,0,0,0,26.44,31a17.84,17.84,0,0,0-4.1.5,16.93,16.93,0,0,0-3.65,1.33L18.4,33c-.36.18-.71.39-1,.6l-.26.16q-.53.34-1.05.72l-.14.11a17.66,17.66,0,0,0-5.88,8,1.46,1.46,0,0,0-.07.19q-.19.55-.36,1.14c-.05.15-.08.32-.12.48-.08.32-.16.64-.22,1s-.09.53-.12.81-.08.48-.1.74c0,.54-.09,1.08-.09,1.63A17.51,17.51,0,0,0,26.44,66ZM5.14,46.55c0-.28.07-.55.11-.83s.09-.68.15-1,.14-.73.23-1.09.1-.42.16-.63c.12-.44.25-.87.39-1.3a.14.14,0,0,0,0-.06,21.42,21.42,0,0,1,9.3-11.44l.33-.21c.36-.21.73-.4,1.11-.59l.61-.29c.34-.16.7-.31,1.06-.45l.73-.28L20.4,28l.12,0A20.94,20.94,0,0,1,62,32c0,.33,0,.67,0,1a18.89,18.89,0,0,1-5.79,36.88H26.44A21.42,21.42,0,0,1,5,48.52C5,47.86,5.08,47.21,5.14,46.55Z"/></clipPath></defs><title>Weather Icons_20200701</title><g id="_19" data-name="19"><g class="cls-2"><rect class="cls-3" x="1.15" y="7.19" width="77.83" height="66.62"/></g></g></svg>