<svg xmlns="http://www.w3.org/2000/svg" viewBox="0 0 80 80"><defs><style>.cls-1{fill:#06c;}.cls-2{fill:#3a66c7;}</style></defs><title>Weather Icons_20200701</title><g id="_19" data-name="19"><path class="cls-1" d="M60.9,45.1h-51a1.44,1.44,0,1,1,0-2.87h51a1.44,1.44,0,0,1,0,2.87Z"/><path class="cls-1" d="M61.47,63.16a1.44,1.44,0,0,1,0-2.87,4.23,4.23,0,1,0,0-8.46H19.61a1.44,1.44,0,0,1,0-2.87H61.47a7.1,7.1,0,1,1,0,14.2Z"/><path class="cls-2" d="M16.09,39a1.47,1.47,0,0,1,0-2.94c25.07-.08,43-.18,45.59-.26a6.54,6.54,0,0,0,1.48-.2,7.58,7.58,0,0,0,4-2.49,8.45,8.45,0,0,0,1.6-5.15c.19-4.25-.88-7.18-3.18-8.71s-6.38-1.77-8.62.75a6.72,6.72,0,0,0-1.55,4.11,1.44,1.44,0,0,1-1.55,1.38,1.47,1.47,0,0,1-1.38-1.55A9.63,9.63,0,0,1,54.74,18c3-3.36,8.45-3.91,12.45-1.25,3.21,2.14,4.72,5.94,4.48,11.29a11.25,11.25,0,0,1-2.23,6.85,10.39,10.39,0,0,1-5.59,3.51,9.84,9.84,0,0,1-2.1.29c-2.64.07-20.57.17-45.66.26Z"/></g></svg>