<svg xmlns="http://www.w3.org/2000/svg" viewBox="0 0 80 80"><defs><style>.cls-1{fill:#3a66c7;}</style></defs><title>Weather Icons_20200701</title><g id="_19" data-name="19"><path class="cls-1" d="M50.38,12.63h3.38V67.17H50.38Z"/><path class="cls-1" d="M59.74,69.09A1.92,1.92,0,0,1,57.82,71H46.32a1.92,1.92,0,0,1-1.92-1.91h0a1.93,1.93,0,0,1,1.92-1.92h11.5a1.92,1.92,0,0,1,1.92,1.92Z"/><path class="cls-1" d="M48.66,12.63a3.41,3.41,0,1,0,3.41-3.41A3.41,3.41,0,0,0,48.66,12.63Z"/><path class="cls-1" d="M35.76,64.84a5.65,5.65,0,0,1-2.39-.52L23.19,59.64A5.75,5.75,0,0,1,20.38,52L32,17.09,34,18l.37.82c.31,1.85,4.14,5.37,10,8.07A27.12,27.12,0,0,0,54.76,29.7a4.51,4.51,0,0,0,2.29-.42l.61-.38,2,.93-.53,1.41L40.89,61.64A5.65,5.65,0,0,1,35.76,64.84Zm-2.6-42.65L22.89,53a3.07,3.07,0,0,0,1.43,4.14L34.5,61.87a3.09,3.09,0,0,0,4-1.49l16.81-28c-3.15.2-7.61-1-12-3C39.37,27.58,35.28,24.9,33.16,22.19Z"/><path class="cls-1" d="M58.45,31.59l-1.39-2.32a.71.71,0,0,0,.28-.25c.18-.39-.2-1.58-2-3.3a29.88,29.88,0,0,0-8-5.17C39.87,17.11,35,17.15,34.29,18.5c0-.07.08.14.1.27l-2.65.52a3.08,3.08,0,0,1,.13-2c2.05-4.11,10.22-2.14,16.6.79a32.45,32.45,0,0,1,8.75,5.68c3.16,3,3.14,5.14,2.58,6.37A3.4,3.4,0,0,1,58.45,31.59Z"/><path class="cls-1" d="M48.15,45.38C33.1,45.38,27,35,26.7,34.5L29,33.15c.24.42,6.15,10.31,20.82,9.48l.15,2.7C49.37,45.36,48.76,45.38,48.15,45.38Z"/><path class="cls-1" d="M42.22,55.29c-13.37,0-18.83-9.27-19.07-9.68l2.35-1.35c.22.37,5.43,9.08,18.23,8.28l.15,2.7C43.31,55.27,42.76,55.29,42.22,55.29Z"/><path class="cls-1" d="M44.75,16.87,51,11.44l1.56,1.79-6.26,5.44Z"/></g></svg>