<svg xmlns="http://www.w3.org/2000/svg" viewBox="0 0 80 80"><defs><style>.cls-1{fill:#3a66c7;}</style></defs><title>Weather Icons_20200701</title><g id="_19" data-name="19"><path class="cls-1" d="M58.79,15.57H62V67.23h-3.2V15.57Z"/><path class="cls-1" d="M67.65,69.05a1.81,1.81,0,0,1-1.81,1.81H54.94a1.81,1.81,0,0,1-1.81-1.81h0a1.81,1.81,0,0,1,1.81-1.82h10.9a1.81,1.81,0,0,1,1.81,1.82Z"/><path class="cls-1" d="M57.16,15.57a3.23,3.23,0,1,0,3.23-3.23A3.23,3.23,0,0,0,57.16,15.57Z"/><path class="cls-1" d="M25.24,50.61h0a5.45,5.45,0,0,1-4.61-2.53l-5.69-9a5.45,5.45,0,0,1,1.68-7.53L43.86,9.73,45,11.56l-.13.87C44.18,14,45.42,18.8,48.7,24s7.06,8.29,8.82,8.35h.7l1.17,1.83L58.21,35,28.05,49.83A5.28,5.28,0,0,1,25.24,50.61ZM42.12,14.5l-24,19.23a3,3,0,0,0-1.36,1.85,2.85,2.85,0,0,0,.37,2.13l5.7,9A2.79,2.79,0,0,0,25.24,48h0a2.77,2.77,0,0,0,1.51-.44l27.71-13.6c-2.8-1.66-5.81-5.13-8-8.56S42.44,17.75,42.12,14.5Z"/><path class="cls-1" d="M57.56,35h-.11l.07-2.63a.79.79,0,0,0,.34-.06c.83-.52.6-5.17-3.61-11.81s-8.07-9-9.28-8.33c.11,0,0,.13,0,.25l-2.45-1a2.88,2.88,0,0,1,1.16-1.53C47.38,7.63,52.89,13.4,56.47,19c3.87,6.1,6.08,13.37,2.8,15.45A3.11,3.11,0,0,1,57.56,35Z"/><path class="cls-1" d="M43.64,41.53c-13.53-7.72-13-20.11-13-20.63l2.63.14c0,.45-.4,11.32,11.68,18.21Z"/><path class="cls-1" d="M33.67,46.27c-12-6.86-11.58-17.88-11.55-18.35l2.63.14c0,.4-.34,9.89,10.22,15.92Z"/><path class="cls-1" d="M51.71,14.44h7.85V16.7H51.71Z"/></g></svg>