<svg xmlns="http://www.w3.org/2000/svg" viewBox="0 0 80 80"><defs><style>.cls-1{fill:#3a66c7;}</style></defs><title>Weather Icons_20200701</title><g id="_19" data-name="19"><path class="cls-1" d="M60.77,12.58h3.39V67.16H60.77Z"/><path class="cls-1" d="M70.14,69.08A1.92,1.92,0,0,1,68.22,71H56.71a1.92,1.92,0,0,1-1.92-1.92h0a1.91,1.91,0,0,1,1.92-1.91H68.22a1.91,1.91,0,0,1,1.92,1.91Z"/><path class="cls-1" d="M59.05,12.58a3.41,3.41,0,1,0,3.41-3.41A3.41,3.41,0,0,0,59.05,12.58Z"/><path class="cls-1" d="M50.58,44.44,15.29,40.55h0a5.69,5.69,0,0,1-5.57-5.72V23.62a5.74,5.74,0,0,1,5.73-5.73l36.64-4.06v2.23l-.6.68c-1.55,1.05-3.15,6-3.15,12.48s1.6,11.43,3.15,12.48l.6.4v2.23ZM47.92,17,15.59,20.59a3.08,3.08,0,0,0-3.17,3V34.84a3,3,0,0,0,3,3l32.49,3.57c-1.58-3.06-2.3-7.89-2.3-12.21S46.35,20.07,47.92,17Z"/><path class="cls-1" d="M51.84,44.56A3.34,3.34,0,0,1,50,43.94l1.51-2.24a.88.88,0,0,0,.36.15c.42,0,1.35-.85,2.16-3.19a29.87,29.87,0,0,0,1.35-9.44c0-8.23-2.09-12.67-3.6-12.72.08,0-.09.12-.2.2L50,14.51a3,3,0,0,1,1.87-.71c4.59.14,6.22,8.39,6.22,15.42a32.55,32.55,0,0,1-1.5,10.33C55.12,43.69,53.2,44.56,51.84,44.56Z"/><path class="cls-1" d="M33.94,42c-7.68-14.54-.23-25.29.09-25.73l2.21,1.56c-.28.4-6.79,9.89.09,22.89Z"/><path class="cls-1" d="M22.36,40.59c-6.83-12.91-.19-22.47.09-22.87l2.21,1.56c-.25.35-5.93,8.65.09,20Z"/><path class="cls-1" d="M56.77,22.68l7.29,3.95-1.13,2.1-7.3-4Z"/><path class="cls-1" d="M55.58,32.25l7.51-3.53,1,2.16L56.6,34.41Z"/></g></svg>