<svg xmlns="http://www.w3.org/2000/svg" viewBox="0 0 80 80"><defs><style>.cls-1{fill:#3a66c7;}</style></defs><title>Weather Icons_20200701</title><g id="_20" data-name="20"><path class="cls-1" d="M53.16,40.94A12.51,12.51,0,1,0,40.65,53.45,12.52,12.52,0,0,0,53.16,40.94Zm-6.62,5.9A8.32,8.32,0,1,1,49,40.94,8.23,8.23,0,0,1,46.54,46.84Z"/><path class="cls-1" d="M64.9,40.92A24.26,24.26,0,0,0,42.25,16.71a38.77,38.77,0,0,1,15.58.09h0a3,3,0,0,0,.42,0,2.08,2.08,0,0,0,.28-4.15,43.1,43.1,0,0,0-13.89-.59,37.52,37.52,0,0,0-12.42,3.71,29.68,29.68,0,0,0-9.53,7.5,24.51,24.51,0,0,0-4.92,9.54A24.28,24.28,0,0,0,39,65.11,38.43,38.43,0,0,1,23.68,65a2.25,2.25,0,0,0-.58-.08,2.08,2.08,0,0,0-.43,4.12h0a44,44,0,0,0,9,.93,41.15,41.15,0,0,0,5.09-.31A37.06,37.06,0,0,0,49.13,66a29.66,29.66,0,0,0,9.53-7.49,24.5,24.5,0,0,0,5-9.94,24.11,24.11,0,0,0,1.23-7.63ZM26.45,55.12a20.12,20.12,0,0,1-4.94-20.29l.07,0c.06-.26.12-.52.19-.78s.24-.65.37-1A20.1,20.1,0,0,1,59.82,47h0c0,.15-.06.31-.1.46q-.22.66-.51,1.32A20.07,20.07,0,0,1,48.47,59.43a20.12,20.12,0,0,1-15.63,0,20.13,20.13,0,0,1-6.39-4.31Z"/></g></svg>