<svg xmlns="http://www.w3.org/2000/svg" viewBox="0 0 80 80"><defs><style>.cls-1{fill:#06c;}</style></defs><title>Weather Icons_20200701</title><g id="_20" data-name="20"><path class="cls-1" d="M60.26,14H22.49a1.78,1.78,0,1,1,0-3.56H60.26a1.78,1.78,0,1,1,0,3.56Z"/><path class="cls-1" d="M65.25,21.11H17.5a1.79,1.79,0,0,1,0-3.57H65.25a1.79,1.79,0,0,1,0,3.57Z"/><path class="cls-1" d="M63.12,28.24H15.36a1.79,1.79,0,0,1,0-3.57H63.12a1.79,1.79,0,0,1,0,3.57Z"/><path class="cls-1" d="M58.13,35.36H13.22a1.78,1.78,0,1,1,0-3.56H58.13a1.78,1.78,0,0,1,0,3.56Z"/><path class="cls-1" d="M54.56,42.49H15.36a1.78,1.78,0,1,1,0-3.56h39.2a1.78,1.78,0,0,1,0,3.56Z"/><path class="cls-1" d="M54.56,49.62H22.49a1.79,1.79,0,1,1,0-3.57H54.56a1.79,1.79,0,0,1,0,3.57Z"/><path class="cls-1" d="M58.13,56.74H32.47a1.78,1.78,0,1,1,0-3.56H58.13a1.78,1.78,0,0,1,0,3.56Z"/><path class="cls-1" d="M63.83,63.87H45.29a1.78,1.78,0,0,1,0-3.56H63.83a1.78,1.78,0,0,1,0,3.56Z"/><path class="cls-1" d="M66,71H58.13a1.78,1.78,0,1,1,0-3.56H66A1.78,1.78,0,0,1,66,71Z"/></g></svg>