<svg xmlns="http://www.w3.org/2000/svg" viewBox="0 0 80 80"><defs><style>.cls-1{fill:#3a66c7;}</style></defs><title>Weather Icons_20200701</title><g id="_20" data-name="20"><path class="cls-1" d="M49.69,40.43a9.29,9.29,0,1,0-9.29,9.29A9.29,9.29,0,0,0,49.69,40.43Zm-4.91,4.38a6.2,6.2,0,1,1,1.81-4.38A6.16,6.16,0,0,1,44.78,44.81Z"/><path class="cls-1" d="M58.41,40.41a18,18,0,0,0-16.82-18,28.51,28.51,0,0,1,11.56.07h0a1.66,1.66,0,0,0,.32,0,1.55,1.55,0,0,0,.21-3.08A31.79,31.79,0,0,0,43.36,19a27.62,27.62,0,0,0-9.22,2.76,21.76,21.76,0,0,0-7.07,5.56,18.29,18.29,0,0,0-3.65,7.08A18,18,0,0,0,39.15,58.37a28.74,28.74,0,0,1-11.35-.06,1.54,1.54,0,1,0-.74,3h0A32.63,32.63,0,0,0,33.7,62a31.53,31.53,0,0,0,3.77-.23A27.59,27.59,0,0,0,46.7,59a21.92,21.92,0,0,0,7.07-5.57,18.19,18.19,0,0,0,3.72-7.37,17.78,17.78,0,0,0,.92-5.67ZM29.86,51a14.83,14.83,0,0,1-4.37-10.54,14.93,14.93,0,0,1,.7-4.52l.06,0c0-.2.08-.39.13-.58s.18-.48.28-.72a15,15,0,0,1,7.94-7.93A14.9,14.9,0,0,1,55.31,40.42a15.07,15.07,0,0,1-.68,4.48h0c0,.12,0,.24-.07.35-.11.33-.24.66-.38,1A14.93,14.93,0,0,1,34.6,54.16,15.11,15.11,0,0,1,29.86,51Z"/><path class="cls-1" d="M40.84,71A30.75,30.75,0,1,1,71.59,40.25,30.78,30.78,0,0,1,40.84,71Zm0-58.5A27.75,27.75,0,1,0,68.59,40.25,27.78,27.78,0,0,0,40.84,12.5Z"/></g></svg>