<svg xmlns="http://www.w3.org/2000/svg" xmlns:xlink="http://www.w3.org/1999/xlink" viewBox="0 0 80 80"><defs><style>.cls-1{fill:none;}.cls-2{clip-path:url(#clip-path);}.cls-3{fill:#3a66c7;}.cls-4{clip-path:url(#clip-path-2);}.cls-5{clip-path:url(#clip-path-3);}.cls-6{clip-path:url(#clip-path-4);}.cls-7{clip-path:url(#clip-path-5);}.cls-8{clip-path:url(#clip-path-6);}.cls-9{clip-path:url(#clip-path-7);}.cls-10{clip-path:url(#clip-path-8);}.cls-11{clip-path:url(#clip-path-9);}.cls-12{clip-path:url(#clip-path-10);}.cls-13{clip-path:url(#clip-path-11);}</style><clipPath id="clip-path"><path class="cls-1" d="M21.83,57.59a.92.92,0,0,0-1.22.25l-3.07,4.57a.81.81,0,0,0,.27,1.15.9.9,0,0,0,.47.13.93.93,0,0,0,.75-.38l3.08-4.57A.8.8,0,0,0,21.83,57.59Z"/></clipPath><clipPath id="clip-path-2"><path class="cls-1" d="M32.22,57.59a.92.92,0,0,0-1.22.25l-3.07,4.57a.79.79,0,0,0,.27,1.15.88.88,0,0,0,.47.13.93.93,0,0,0,.75-.38l3.07-4.57A.8.8,0,0,0,32.22,57.59Z"/></clipPath><clipPath id="clip-path-3"><path class="cls-1" d="M42.61,57.59a.93.93,0,0,0-1.23.25l-3.07,4.57a.81.81,0,0,0,.27,1.15.94.94,0,0,0,.48.13.9.9,0,0,0,.74-.38l3.08-4.57A.81.81,0,0,0,42.61,57.59Z"/></clipPath><clipPath id="clip-path-4"><path class="cls-1" d="M52.3,57.59a.91.91,0,0,0-1.22.26L48,62.41a.81.81,0,0,0,.28,1.15.88.88,0,0,0,.47.13.91.91,0,0,0,.75-.39l3.08-4.56A.81.81,0,0,0,52.3,57.59Z"/></clipPath><clipPath id="clip-path-5"><path class="cls-1" d="M24.6,65.9a.9.9,0,0,0-1.21.26l-3.08,4.56a.8.8,0,0,0,.27,1.15.9.9,0,0,0,.47.13.91.91,0,0,0,.75-.38l3.08-4.57A.8.8,0,0,0,24.6,65.9Z"/></clipPath><clipPath id="clip-path-6"><path class="cls-1" d="M34.3,65.9a.91.91,0,0,0-1.22.26L30,70.72a.81.81,0,0,0,.27,1.15.91.91,0,0,0,.48.13.9.9,0,0,0,.74-.38l3.08-4.57A.81.81,0,0,0,34.3,65.9Z"/></clipPath><clipPath id="clip-path-7"><path class="cls-1" d="M44.69,65.9a.92.92,0,0,0-1.23.26l-3.07,4.56a.8.8,0,0,0,.27,1.15.9.9,0,0,0,.47.13.91.91,0,0,0,.75-.38L45,67.05A.81.81,0,0,0,44.69,65.9Z"/></clipPath><clipPath id="clip-path-8"><path class="cls-1" d="M54.38,65.9a.91.91,0,0,0-1.22.26l-3.08,4.56a.81.81,0,0,0,.27,1.15.94.94,0,0,0,.48.13.88.88,0,0,0,.74-.39l3.08-4.56A.8.8,0,0,0,54.38,65.9Z"/></clipPath><clipPath id="clip-path-9"><path class="cls-1" d="M62.3,57.59a.91.91,0,0,0-1.22.26L58,62.41a.81.81,0,0,0,.28,1.15.88.88,0,0,0,.47.13.91.91,0,0,0,.75-.39l3.08-4.56A.81.81,0,0,0,62.3,57.59Z"/></clipPath><clipPath id="clip-path-10"><path class="cls-1" d="M64.38,65.9a.91.91,0,0,0-1.22.26l-3.08,4.56a.81.81,0,0,0,.27,1.15.94.94,0,0,0,.48.13.88.88,0,0,0,.74-.39l3.08-4.56A.8.8,0,0,0,64.38,65.9Z"/></clipPath><clipPath id="clip-path-11"><path class="cls-1" d="M52.34,50.62H26.45a13,13,0,0,1-13-13,12.82,12.82,0,0,1,1.51-6,2.79,2.79,0,0,1,.18-.34,12.23,12.23,0,0,1,1-1.43l.27-.36a12,12,0,0,1,1.15-1.22c.11-.11.22-.22.34-.32a14,14,0,0,1,1.36-1l.33-.22a12,12,0,0,1,1.67-.88l.17-.08a13.82,13.82,0,0,1,2-.68h0a13,13,0,0,1,4.94-.24,1.69,1.69,0,1,0,.5-3.35,16.88,16.88,0,0,0-3.4-.12A14.82,14.82,0,0,1,50,17.17a20.92,20.92,0,0,0-2.69.52,18.53,18.53,0,0,0-11.18,8.78,1.68,1.68,0,0,0,.65,2.3,1.79,1.79,0,0,0,.83.21,1.7,1.7,0,0,0,1.49-.86A15.23,15.23,0,0,1,53,20.4l.13,0a15.11,15.11,0,0,1-.83,30.2Zm9.21-31.16s-.08-.08-.13-.11-.34-.16-.5-.25L60.68,19a18.57,18.57,0,0,0-6.45-1.9A18.38,18.38,0,0,0,39.06,9,18.11,18.11,0,0,0,21.57,22.06l-.53.19-.61.22A16.32,16.32,0,0,0,13,28.31s0,0,0,0c-.25.35-.49.72-.71,1.1,0,0-.05.09-.08.14-.2.35-.38.71-.56,1.07l-.09.2c-.17.36-.32.73-.46,1.1L11,32.1v0a16.22,16.22,0,0,0-1,5.54A16.41,16.41,0,0,0,26.45,54H52.34a18.46,18.46,0,0,0,9.21-34.54Z"/></clipPath></defs><title>Weather Icons_20200701</title><g id="_19" data-name="19"><g class="cls-2"><rect class="cls-3" x="14.01" y="54.07" width="11.62" height="13"/></g><g class="cls-4"><rect class="cls-3" x="24.4" y="54.07" width="11.62" height="13"/></g><g class="cls-5"><rect class="cls-3" x="34.79" y="54.07" width="11.62" height="13"/></g><g class="cls-6"><rect class="cls-3" x="44.48" y="54.07" width="11.62" height="13"/></g><g class="cls-7"><rect class="cls-3" x="16.78" y="62.38" width="11.62" height="13"/></g><g class="cls-8"><rect class="cls-3" x="26.48" y="62.38" width="11.62" height="13"/></g><g class="cls-9"><rect class="cls-3" x="36.86" y="62.38" width="11.62" height="13"/></g><g class="cls-10"><rect class="cls-3" x="46.56" y="62.38" width="11.62" height="13"/></g><g class="cls-11"><rect class="cls-3" x="54.48" y="54.07" width="11.62" height="13"/></g><g class="cls-12"><rect class="cls-3" x="56.56" y="62.38" width="11.62" height="13"/></g><g class="cls-13"><rect class="cls-3" x="6.63" y="5.61" width="67.7" height="51.78"/></g></g></svg>