<svg xmlns="http://www.w3.org/2000/svg" xmlns:xlink="http://www.w3.org/1999/xlink" viewBox="0 0 80 80"><defs><style>.cls-1{fill:none;}.cls-2{fill:#3a66c7;}.cls-3{clip-path:url(#clip-path);}.cls-4{clip-path:url(#clip-path-2);}.cls-5{clip-path:url(#clip-path-3);}.cls-6{clip-path:url(#clip-path-4);}.cls-7{clip-path:url(#clip-path-5);}.cls-8{clip-path:url(#clip-path-6);}.cls-9{clip-path:url(#clip-path-7);}.cls-10{clip-path:url(#clip-path-8);}.cls-11{clip-path:url(#clip-path-9);}.cls-12{clip-path:url(#clip-path-10);}</style><clipPath id="clip-path"><path class="cls-1" d="M62.11,59.13H47.73a7.24,7.24,0,0,1-7.24-7.2,7.16,7.16,0,0,1,.83-3.35,1.74,1.74,0,0,0,.1-.19A8.37,8.37,0,0,1,42,47.6l.15-.2a6.86,6.86,0,0,1,.64-.68l.19-.18a8.94,8.94,0,0,1,.76-.58l.18-.12a6.83,6.83,0,0,1,.93-.49l.09,0A8.33,8.33,0,0,1,46,44.93h0a7.18,7.18,0,0,1,2.74-.13,1,1,0,0,0,1.07-.8.93.93,0,0,0-.8-1.06,9.13,9.13,0,0,0-1.88-.07,8.24,8.24,0,0,1,13.63-2.33,10.92,10.92,0,0,0-1.49.3,10.22,10.22,0,0,0-6.21,4.87.94.94,0,0,0,.82,1.4,1,1,0,0,0,.82-.48,8.4,8.4,0,0,1,5.08-4,8.49,8.49,0,0,1,2.69-.3h.07a8.39,8.39,0,0,1-.46,16.78Zm5.12-17.31-.08-.07-.27-.13-.14-.07a10.32,10.32,0,0,0-3.58-1A10.21,10.21,0,0,0,54.74,36,10.06,10.06,0,0,0,45,43.26l-.29.11a3.4,3.4,0,0,0-.34.12,9,9,0,0,0-4.15,3.24s0,0,0,0c-.14.2-.27.41-.39.62l-.05.07c-.11.2-.21.39-.31.6a1.17,1.17,0,0,0,0,.11,6.5,6.5,0,0,0-.25.61s0,.05,0,.08h0A9.07,9.07,0,0,0,47.73,61H62.11a10.25,10.25,0,0,0,5.12-19.18Z"/></clipPath><clipPath id="clip-path-2"><path class="cls-1" d="M16.43,36.59a.53.53,0,0,0-.69.15L14,39.33a.46.46,0,0,0,.16.66.48.48,0,0,0,.26.07.53.53,0,0,0,.43-.22l1.75-2.59A.46.46,0,0,0,16.43,36.59Z"/></clipPath><clipPath id="clip-path-3"><path class="cls-1" d="M22.33,36.59a.53.53,0,0,0-.69.15l-1.75,2.59A.47.47,0,0,0,20,40a.54.54,0,0,0,.27.07.53.53,0,0,0,.43-.22l1.75-2.59A.46.46,0,0,0,22.33,36.59Z"/></clipPath><clipPath id="clip-path-4"><path class="cls-1" d="M28.23,36.59a.53.53,0,0,0-.69.15l-1.75,2.59a.47.47,0,0,0,.15.66.54.54,0,0,0,.27.07.53.53,0,0,0,.43-.22l1.75-2.59A.47.47,0,0,0,28.23,36.59Z"/></clipPath><clipPath id="clip-path-5"><path class="cls-1" d="M33.74,36.59a.54.54,0,0,0-.7.15L31.3,39.33a.47.47,0,0,0,.15.66.52.52,0,0,0,.27.07.53.53,0,0,0,.43-.22l1.74-2.59A.47.47,0,0,0,33.74,36.59Z"/></clipPath><clipPath id="clip-path-6"><path class="cls-1" d="M18,41.32a.52.52,0,0,0-.7.14l-1.75,2.59a.48.48,0,0,0,.16.66.52.52,0,0,0,.27.07.5.5,0,0,0,.42-.22L18.16,42A.45.45,0,0,0,18,41.32Z"/></clipPath><clipPath id="clip-path-7"><path class="cls-1" d="M23.51,41.32a.51.51,0,0,0-.69.14l-1.75,2.59a.46.46,0,0,0,.15.66.54.54,0,0,0,.27.07.53.53,0,0,0,.43-.22L23.67,42A.45.45,0,0,0,23.51,41.32Z"/></clipPath><clipPath id="clip-path-8"><path class="cls-1" d="M29.41,41.32a.51.51,0,0,0-.69.14L27,44.05a.46.46,0,0,0,.15.66.54.54,0,0,0,.27.07.53.53,0,0,0,.43-.22L29.57,42A.46.46,0,0,0,29.41,41.32Z"/></clipPath><clipPath id="clip-path-9"><path class="cls-1" d="M34.92,41.32a.52.52,0,0,0-.7.14l-1.74,2.59a.46.46,0,0,0,.15.66.54.54,0,0,0,.27.07.5.5,0,0,0,.42-.22L35.07,42A.45.45,0,0,0,34.92,41.32Z"/></clipPath><clipPath id="clip-path-10"><path class="cls-1" d="M32.05,32.64H17.35a7.4,7.4,0,0,1-7.41-7.36,7.32,7.32,0,0,1,.86-3.42,1.86,1.86,0,0,1,.1-.2,7.13,7.13,0,0,1,.54-.81l.15-.2a8.79,8.79,0,0,1,.66-.7l.19-.18a7.47,7.47,0,0,1,.77-.59l.19-.12a7.85,7.85,0,0,1,.95-.51l.1,0a6.46,6.46,0,0,1,1.15-.38h0a7.51,7.51,0,0,1,2.8-.13,1,1,0,0,0,1.1-.82,1,1,0,0,0-.82-1.08A8.91,8.91,0,0,0,16.76,16,8.41,8.41,0,0,1,30.7,13.64a9.94,9.94,0,0,0-1.52.29,10.49,10.49,0,0,0-6.35,5,.94.94,0,0,0,.37,1.3.88.88,0,0,0,.47.13,1,1,0,0,0,.84-.5,8.64,8.64,0,0,1,7.94-4.38h.08a8.59,8.59,0,0,1-.48,17.16Zm5.23-17.7-.07-.07-.28-.14-.14-.06a10.64,10.64,0,0,0-3.66-1.08A10.43,10.43,0,0,0,24.51,9a10.28,10.28,0,0,0-9.93,7.43l-.3.1-.35.12A9.33,9.33,0,0,0,9.69,20a0,0,0,0,1,0,0c-.14.21-.27.42-.4.63l0,.08c-.11.2-.22.4-.32.61a.37.37,0,0,1-.05.11c-.09.21-.18.42-.26.63l0,.08h0A9.2,9.2,0,0,0,8,25.28a9.32,9.32,0,0,0,9.34,9.27h14.7a10.48,10.48,0,0,0,5.23-19.61Z"/></clipPath></defs><title>Weather Icons_20200701</title><g id="_19" data-name="19"><path class="cls-2" d="M48.5,62.44a.51.51,0,0,0-.68.14l-1.71,2.54s0,0,0,0L45,66.78h0l-1.24,1.83s0,0,0,0l-1.09,1.62a.46.46,0,0,0,.15.64.54.54,0,0,0,.27.07.48.48,0,0,0,.41-.21l1.71-2.54s0,0,0,0l.62-.92h0l1.71-2.53,0,0,1.09-1.62A.44.44,0,0,0,48.5,62.44Z"/><path class="cls-2" d="M53.5,62.44a.51.51,0,0,0-.68.14l-1.71,2.54s0,0,0,0L50,66.78h0l-1.24,1.83s0,0,0,0l-1.09,1.62a.44.44,0,0,0,.15.64.52.52,0,0,0,.27.07.48.48,0,0,0,.41-.21l1.71-2.54s0,0,0,0l.62-.92h0l1.71-2.53,0,0,1.09-1.62A.44.44,0,0,0,53.5,62.44Z"/><path class="cls-2" d="M58.5,62.44a.51.51,0,0,0-.68.14l-1.71,2.54s0,0,0,0L55,66.78h0l-1.24,1.83s0,0,0,0l-1.09,1.62a.44.44,0,0,0,.15.64.5.5,0,0,0,.27.07.48.48,0,0,0,.41-.21l1.71-2.54s0,0,0,0l.62-.92h0l1.71-2.53,0,0,1.09-1.62A.45.45,0,0,0,58.5,62.44Z"/><path class="cls-2" d="M63.5,62.44a.51.51,0,0,0-.68.14l-1.71,2.54s0,0,0,0L60,66.78h0l-1.24,1.83s0,0,0,0l-1.09,1.62a.44.44,0,0,0,.15.64.52.52,0,0,0,.68-.14l1.71-2.54a.06.06,0,0,0,0,0l.63-.92h0l1.71-2.53,0,0,1.09-1.62A.45.45,0,0,0,63.5,62.44Z"/><g class="cls-3"><rect class="cls-2" x="36.72" y="34.12" width="37.61" height="28.76"/></g><g class="cls-4"><rect class="cls-2" x="11.99" y="34.6" width="6.6" height="7.39"/></g><g class="cls-5"><rect class="cls-2" x="17.89" y="34.6" width="6.6" height="7.39"/></g><g class="cls-6"><rect class="cls-2" x="23.79" y="34.6" width="6.6" height="7.39"/></g><g class="cls-7"><rect class="cls-2" x="29.29" y="34.6" width="6.6" height="7.39"/></g><g class="cls-8"><rect class="cls-2" x="13.56" y="39.32" width="6.6" height="7.39"/></g><g class="cls-9"><rect class="cls-2" x="19.07" y="39.32" width="6.6" height="7.39"/></g><g class="cls-10"><rect class="cls-2" x="24.97" y="39.32" width="6.6" height="7.39"/></g><g class="cls-11"><rect class="cls-2" x="30.47" y="39.32" width="6.6" height="7.39"/></g><g class="cls-12"><rect class="cls-2" x="6.09" y="7.07" width="38.46" height="29.41"/></g><path class="cls-2" d="M68.25,26.21a1.5,1.5,0,0,0-2,.67l-1.51,3A23.4,23.4,0,0,0,46.05,15.74,1.51,1.51,0,0,0,44.37,17a1.5,1.5,0,0,0,1.3,1.67A20.43,20.43,0,0,1,62,31.1l-2.92-1a1.5,1.5,0,1,0-1,2.84l6,2h0a1.54,1.54,0,0,0,.42.07h0A1.2,1.2,0,0,0,65,35l.13,0,.27-.13.13-.11.19-.19s.07-.1.11-.15a1.48,1.48,0,0,0,.08-.13l3-6A1.5,1.5,0,0,0,68.25,26.21Z"/></g></svg>