<svg xmlns="http://www.w3.org/2000/svg" xmlns:xlink="http://www.w3.org/1999/xlink" viewBox="0 0 80 80"><defs><style>.cls-1{fill:none;}.cls-2{fill:#3a66c7;}.cls-3{clip-path:url(#clip-path);}.cls-4{clip-path:url(#clip-path-2);}</style><clipPath id="clip-path"><path class="cls-1" d="M30.53,32.12H16.15A7.18,7.18,0,0,1,9.74,21.57a1.62,1.62,0,0,1,.1-.18,5.83,5.83,0,0,1,.53-.8l.15-.2a8.05,8.05,0,0,1,.63-.68l.19-.17A6.94,6.94,0,0,1,12.1,19l.18-.12a8.32,8.32,0,0,1,.93-.5l.1,0a7.11,7.11,0,0,1,1.13-.37h0a7.23,7.23,0,0,1,2.75-.13,1,1,0,0,0,1.07-.8.94.94,0,0,0-.8-1.06,8.54,8.54,0,0,0-1.89-.06,8.24,8.24,0,0,1,13.64-2.34,10.92,10.92,0,0,0-1.49.3A10.3,10.3,0,0,0,21.5,18.7a.94.94,0,0,0,1.65.92,8.4,8.4,0,0,1,5.08-4,8.49,8.49,0,0,1,2.69-.3H31a8.39,8.39,0,0,1-.46,16.78Zm5.12-17.31-.08-.07-.27-.13-.13-.07a10.44,10.44,0,0,0-3.59-1A10.21,10.21,0,0,0,23.15,9a10,10,0,0,0-9.71,7.26l-.3.11c-.11,0-.23.07-.34.12a9,9,0,0,0-4.14,3.25h0c-.14.2-.27.41-.4.62l0,.07c-.11.2-.22.4-.32.6a.37.37,0,0,1,0,.11c-.09.2-.17.41-.25.61l0,.08h0A9.05,9.05,0,0,0,16.15,34H30.53a10.26,10.26,0,0,0,5.12-19.19Z"/></clipPath><clipPath id="clip-path-2"><path class="cls-1" d="M61.65,59.12H47.27a7.18,7.18,0,0,1-6.41-10.55,1.62,1.62,0,0,1,.1-.18,5.83,5.83,0,0,1,.53-.8l.15-.2a6.79,6.79,0,0,1,.64-.68l.18-.17a6.94,6.94,0,0,1,.76-.58l.18-.12a8.32,8.32,0,0,1,.93-.5l.1,0a7.11,7.11,0,0,1,1.13-.37h0a7.23,7.23,0,0,1,2.75-.13,1,1,0,0,0,1.07-.8.94.94,0,0,0-.8-1.06,8.54,8.54,0,0,0-1.89-.06,8.24,8.24,0,0,1,13.64-2.34,10.92,10.92,0,0,0-1.49.3,10.3,10.3,0,0,0-6.22,4.87.94.94,0,0,0,1.65.92,8.4,8.4,0,0,1,5.08-4,8.49,8.49,0,0,1,2.69-.3h.07a8.39,8.39,0,0,1-.46,16.78Zm5.12-17.31-.07-.07-.28-.13-.13-.07a10.44,10.44,0,0,0-3.59-1A10.21,10.21,0,0,0,54.27,36a10,10,0,0,0-9.71,7.26l-.3.11c-.11,0-.23.07-.34.12a9,9,0,0,0-4.14,3.25,0,0,0,0,0,0,0c-.14.2-.27.41-.4.62l0,.07c-.11.2-.22.4-.31.6l-.06.11c-.09.2-.17.41-.25.61l0,.08h0A9.05,9.05,0,0,0,47.27,61H61.65a10.26,10.26,0,0,0,5.12-19.19Z"/></clipPath></defs><title>Weather Icons_20200701</title><g id="_19" data-name="19"><path class="cls-2" d="M16.91,35.44a.5.5,0,0,0-.67.14l-1.71,2.54,0,0-1.09,1.62h0l-1.24,1.83a.17.17,0,0,0,0,.05l-1.1,1.62a.45.45,0,0,0,.16.64.48.48,0,0,0,.26.07.51.51,0,0,0,.42-.21l1.71-2.54v0l.62-.93h0L16,37.74s0,0,0,0l1.1-1.62A.45.45,0,0,0,16.91,35.44Z"/><path class="cls-2" d="M21.92,35.44a.51.51,0,0,0-.68.14l-1.71,2.54,0,0-1.09,1.62h0l-1.24,1.83s0,0,0,.05l-1.09,1.62a.44.44,0,0,0,.15.64.48.48,0,0,0,.26.07.51.51,0,0,0,.42-.21l1.71-2.54v0l.63-.93h0L21,37.74s0,0,0,0l1.1-1.62A.45.45,0,0,0,21.92,35.44Z"/><path class="cls-2" d="M26.92,35.44a.51.51,0,0,0-.68.14l-1.71,2.54,0,0-1.09,1.62h0l-1.24,1.83s0,0,0,.05l-1.09,1.62a.44.44,0,0,0,.15.64.48.48,0,0,0,.26.07.5.5,0,0,0,.42-.21l1.71-2.54a.06.06,0,0,0,0,0l.63-.93h0L26,37.74s0,0,0,0l1.1-1.62A.45.45,0,0,0,26.92,35.44Z"/><path class="cls-2" d="M31.92,35.44a.51.51,0,0,0-.68.14l-1.71,2.54,0,0-1.09,1.62h0l-1.24,1.83s0,0,0,.05l-1.09,1.62a.44.44,0,0,0,.15.64.48.48,0,0,0,.26.07.5.5,0,0,0,.42-.21l1.71-2.54a.06.06,0,0,0,0,0l.63-.93h0L31,37.74l0,0,1.09-1.62A.45.45,0,0,0,31.92,35.44Z"/><g class="cls-3"><rect class="cls-2" x="5.13" y="7.11" width="37.62" height="28.77"/></g><path class="cls-2" d="M46.37,62.44a.51.51,0,0,0-.68.14L44,65.12s0,0,0,0l-1.09,1.62h0l-1.24,1.83s0,0,0,0l-1.09,1.62a.44.44,0,0,0,.15.64.52.52,0,0,0,.68-.14l1.71-2.54s0,0,0,0l.62-.93h0l1.71-2.54s0,0,0,0l1.09-1.62A.44.44,0,0,0,46.37,62.44Z"/><path class="cls-2" d="M51.37,62.44a.51.51,0,0,0-.68.14L49,65.12s0,0,0,0l-1.09,1.62h0l-1.24,1.83s0,0,0,0l-1.09,1.62a.44.44,0,0,0,.15.64.5.5,0,0,0,.27.07.48.48,0,0,0,.41-.21l1.71-2.54s0,0,0,0l.62-.93h0l1.71-2.54s0,0,0,0l1.09-1.62A.44.44,0,0,0,51.37,62.44Z"/><path class="cls-2" d="M56.37,62.44a.51.51,0,0,0-.68.14L54,65.12a.06.06,0,0,0,0,0l-1.1,1.62h0l-1.24,1.83s0,0,0,0l-1.09,1.62a.44.44,0,0,0,.15.64.52.52,0,0,0,.27.07.48.48,0,0,0,.41-.21l1.71-2.54s0,0,0,0l.62-.93h0l1.71-2.54s0,0,0,0l1.09-1.62A.44.44,0,0,0,56.37,62.44Z"/><path class="cls-2" d="M61.37,62.44a.51.51,0,0,0-.68.14L59,65.12a.06.06,0,0,0,0,0l-1.1,1.62h0l-1.24,1.83s0,0,0,0l-1.09,1.62a.45.45,0,0,0,.15.64.54.54,0,0,0,.27.07.48.48,0,0,0,.41-.21l1.71-2.54s0,0,0,0l.62-.93h0l1.71-2.54s0,0,0,0l1.09-1.62A.44.44,0,0,0,61.37,62.44Z"/><path class="cls-2" d="M66.37,62.44a.51.51,0,0,0-.68.14L64,65.12a.06.06,0,0,0,0,0l-1.1,1.62h0l-1.24,1.83s0,0,0,0l-1.09,1.62a.46.46,0,0,0,.15.64.54.54,0,0,0,.27.07.48.48,0,0,0,.41-.21l1.71-2.54s0,0,0,0l.62-.93h0l1.71-2.54s0,0,0,0l1.09-1.62A.44.44,0,0,0,66.37,62.44Z"/><g class="cls-4"><rect class="cls-2" x="36.25" y="34.11" width="37.62" height="28.77"/></g><path class="cls-2" d="M68.25,26.21a1.5,1.5,0,0,0-2,.67l-1.51,3A23.4,23.4,0,0,0,46.05,15.74,1.51,1.51,0,0,0,44.37,17a1.5,1.5,0,0,0,1.3,1.67A20.43,20.43,0,0,1,62,31.1l-2.92-1a1.5,1.5,0,1,0-1,2.84l6,2h0a1.54,1.54,0,0,0,.42.07h0A1.2,1.2,0,0,0,65,35l.13,0,.27-.13.13-.11.19-.19s.07-.1.11-.15a1.48,1.48,0,0,0,.08-.13l3-6A1.5,1.5,0,0,0,68.25,26.21Z"/></g></svg>