<svg xmlns="http://www.w3.org/2000/svg" viewBox="0 0 80 80"><defs><style>.cls-1{fill:#06c;}</style></defs><title>Weather Icons_20200701</title><g id="_16" data-name="16"><path class="cls-1" d="M73.94,39.44a2.35,2.35,0,0,0-4.7,0V66.71H11.44V39a2.35,2.35,0,0,0-4.7,0V69.06a2.35,2.35,0,0,0,2.35,2.35l.25,0a1.9,1.9,0,0,0,.25,0h62a2.35,2.35,0,0,0,2.35-2.35,2.4,2.4,0,0,0,0-.28,2.4,2.4,0,0,0,0-.28Z"/><path class="cls-1" d="M54.55,37.36H45.39l7.44-7.73a2.51,2.51,0,1,0-3.62-3.48L42,33.65V23.24a2.51,2.51,0,0,0-5,0V34l-7.72-7.43a2.52,2.52,0,0,0-4.17,1.16,2.54,2.54,0,0,0,.69,2.46l7.49,7.2H24.44a2.51,2.51,0,0,0,0,5H33.6l-7.43,7.73a2.51,2.51,0,0,0,.07,3.55,2.49,2.49,0,0,0,3.54-.07L37,46.09V56.5a2.5,2.5,0,0,0,1.3,2.19,2.47,2.47,0,0,0,1.21.31A2.51,2.51,0,0,0,42,56.49V45.78l7.72,7.42a2.51,2.51,0,0,0,3.48-3.61l-7.49-7.21h8.82a2.51,2.51,0,1,0,0-5Zm-15,5.48a3,3,0,1,1,3-3A3,3,0,0,1,39.5,42.84Z"/></g></svg>