<svg xmlns="http://www.w3.org/2000/svg" xmlns:xlink="http://www.w3.org/1999/xlink" viewBox="0 0 80 80"><defs><style>.cls-1{fill:none;}.cls-2{clip-path:url(#clip-path);}.cls-3{fill:#3a66c7;}.cls-4{fill:#06c;}</style><clipPath id="clip-path"><path class="cls-1" d="M51.75,51.7H25.4A13.26,13.26,0,0,1,13.65,32.26l.18-.35a14.35,14.35,0,0,1,1-1.47l.28-.36a13.86,13.86,0,0,1,1.17-1.26l.35-.32A12,12,0,0,1,18,27.43l.33-.22A13.18,13.18,0,0,1,20,26.3l.18-.08a13.84,13.84,0,0,1,2.06-.69h0a13,13,0,0,1,5-.25,1.73,1.73,0,1,0,.49-3.43,17.38,17.38,0,0,0-3.45-.12,15,15,0,0,1,25-4.3A20,20,0,0,0,46.6,18a18.85,18.85,0,0,0-11.39,9,1.74,1.74,0,0,0,.67,2.36,1.84,1.84,0,0,0,.85.21,1.7,1.7,0,0,0,1.5-.88,15.52,15.52,0,0,1,14.23-7.91l.14,0a15.48,15.48,0,0,1-.85,30.94Zm9.39-31.92s-.08-.08-.14-.12l-.51-.25-.24-.12a19,19,0,0,0-6.57-1.93,18.65,18.65,0,0,0-15.44-8.3A18.43,18.43,0,0,0,20.43,22.45c-.21.06-.41.15-.62.22l-.53.18a16.71,16.71,0,0,0-7.61,6v0c-.26.36-.5.75-.73,1.14a.87.87,0,0,0-.08.14c-.2.35-.4.72-.57,1.1l-.1.2c-.17.37-.32.74-.46,1.12l-.06.15s0,0,0,0A16.74,16.74,0,0,0,25.4,55.16H51.75a18.93,18.93,0,0,0,9.39-35.38Z"/></clipPath></defs><title>Weather Icons_20200701</title><g id="_19" data-name="19"><g class="cls-2"><path class="cls-3" d="M5.21,5.62V75.33h69V5.62ZM43.42,66.75a5,5,0,0,1-2.34-.54c1.19,3-.29,7.09-4.43,7.09a4.64,4.64,0,0,1-4.79-4.38h0c-6.44,0-6.43-10,0-10a5.23,5.23,0,0,1,1.64.25,4.64,4.64,0,0,1,4.75-4A4.59,4.59,0,0,1,42,56.93a5.44,5.44,0,0,1,1.39-.18C49.86,56.75,49.85,66.75,43.42,66.75Z"/></g><rect class="cls-4" x="24.9" y="61.78" width="4.83" height="4.83" rx="0.86" transform="translate(53.39 -0.51) rotate(45)"/><rect class="cls-4" x="37.4" y="61.78" width="4.83" height="4.83" rx="0.86" transform="translate(57.05 -9.35) rotate(45)"/><rect class="cls-4" x="49.9" y="61.78" width="4.83" height="4.83" rx="0.86" transform="translate(60.71 -18.19) rotate(45)"/></g></svg>