<svg xmlns="http://www.w3.org/2000/svg" xmlns:xlink="http://www.w3.org/1999/xlink" viewBox="0 0 80 80"><defs><style>.cls-1{fill:none;}.cls-2{clip-path:url(#clip-path);}.cls-3{fill:#3a66c7;}.cls-4{clip-path:url(#clip-path-2);}.cls-5{clip-path:url(#clip-path-3);}.cls-6{clip-path:url(#clip-path-4);}.cls-7{clip-path:url(#clip-path-5);}.cls-8{clip-path:url(#clip-path-6);}</style><clipPath id="clip-path"><path class="cls-1" d="M49.53,15.48a.73.73,0,0,1-.73-.72V10.11a.73.73,0,0,1,.73-.73.73.73,0,0,1,.72.73v4.65A.72.72,0,0,1,49.53,15.48Z"/></clipPath><clipPath id="clip-path-2"><path class="cls-1" d="M57.71,17.14a.7.7,0,0,1-.62.37.71.71,0,0,1-.37-.1.73.73,0,0,1-.26-1l2.32-4a.73.73,0,0,1,1-.26.72.72,0,0,1,.27,1Z"/></clipPath><clipPath id="clip-path-3"><path class="cls-1" d="M62.26,21.69l4-2.33A.73.73,0,0,1,67,20.62l-4,2.32a.65.65,0,0,1-.36.1.74.74,0,0,1-.63-.36A.72.72,0,0,1,62.26,21.69Z"/></clipPath><clipPath id="clip-path-4"><path class="cls-1" d="M63.92,29.88a.73.73,0,0,1,.73-.73H69.3a.73.73,0,0,1,.72.73.72.72,0,0,1-.72.72H64.65A.73.73,0,0,1,63.92,29.88Z"/></clipPath><clipPath id="clip-path-5"><path class="cls-1" d="M63,36.81l4,2.32a.71.71,0,0,1,.26,1,.7.7,0,0,1-.62.37.78.78,0,0,1-.36-.1l-4-2.33a.72.72,0,0,1-.27-1A.73.73,0,0,1,63,36.81Z"/></clipPath><clipPath id="clip-path-6"><path class="cls-1" d="M11.69,40a12.1,12.1,0,0,1,.06-1.21c0-.19.05-.37.07-.55s.06-.41.1-.6.1-.49.15-.72.07-.24.1-.36c.08-.28.16-.56.26-.84a.88.88,0,0,0,.05-.15,13.25,13.25,0,0,1,3.57-5.24h0c.25-.22.51-.44.78-.64l.12-.1c.25-.18.5-.36.76-.52l.22-.13.75-.44.26-.11a12.43,12.43,0,0,1,2.64-1l.34-.08.19-.05a13.34,13.34,0,0,1,2.54-.25,12.77,12.77,0,0,1,8,2.77,1.45,1.45,0,0,0,1.79-2.28,15.7,15.7,0,0,0-9.8-3.39c-.42,0-.84,0-1.25.07a12.62,12.62,0,0,1,24.74,3.57c0,.27,0,.54,0,.8s0,.54-.09.84L48,30a12.47,12.47,0,0,1-2.58,5.71,1.45,1.45,0,0,0,.22,2,1.42,1.42,0,0,0,.9.32,1.45,1.45,0,0,0,1.13-.54,15.6,15.6,0,0,0,3-6A11.11,11.11,0,0,1,46.73,53H24.66A13,13,0,0,1,11.69,40Zm46.36-6.37a14,14,0,0,0-7-5.11c0-.26,0-.51,0-.75a15.4,15.4,0,0,0-1.82-7.28l.3,0a9.37,9.37,0,0,1,9.36,9.37A9.25,9.25,0,0,1,58.05,33.67ZM8.79,40A15.89,15.89,0,0,0,24.66,55.91H46.73a14,14,0,0,0,14-14,13.74,13.74,0,0,0-1-5.23,12.07,12.07,0,0,0,2.08-6.78A12.28,12.28,0,0,0,49.53,17.61a11.59,11.59,0,0,0-2.14.2,15.52,15.52,0,0,0-27.11,7l-.1,0c-.26.07-.51.16-.77.25l-.57.21c-.26.1-.51.21-.76.33l-.47.23q-.42.2-.81.42l-.27.17a15.88,15.88,0,0,0-6.87,8.47.14.14,0,0,0,0,.06c-.11.31-.2.63-.29,1l-.12.47c-.06.27-.12.53-.17.8s-.08.51-.12.77,0,.4-.07.61A14.13,14.13,0,0,0,8.79,40Z"/></clipPath></defs><title>Weather Icons_20200701</title><g id="_19" data-name="19"><g class="cls-2"><rect class="cls-3" x="45.4" y="5.98" width="8.26" height="12.9"/></g><g class="cls-4"><rect class="cls-3" x="52.96" y="8.63" width="10.58" height="12.28"/></g><g class="cls-5"><rect class="cls-3" x="58.49" y="15.86" width="12.28" height="10.58"/></g><g class="cls-6"><rect class="cls-3" x="60.52" y="25.75" width="12.91" height="8.26"/></g><g class="cls-7"><rect class="cls-3" x="58.49" y="33.31" width="12.28" height="10.58"/></g><g class="cls-8"><rect class="cls-3" x="5.39" y="8.86" width="59.81" height="50.45"/></g><path class="cls-3" d="M29.49,68.41l-1.29-.47,1-1.07a.8.8,0,0,0-.07-1.18.93.93,0,0,0-1.25,0l-.71.74L27,65.39a.8.8,0,0,0-1-.62.92.92,0,0,0-.69,1L25.51,67l-1.19-.43a.8.8,0,0,0-1.05.54.91.91,0,0,0,0,.49.89.89,0,0,0,.55.63l1.3.47-1,1.07a.8.8,0,0,0,.07,1.18,1,1,0,0,0,.44.21.91.91,0,0,0,.81-.26l.7-.74.22,1.1a.8.8,0,0,0,1,.62.92.92,0,0,0,.68-1l-.22-1.14,1.19.43A.8.8,0,0,0,30,69.54.93.93,0,0,0,29.49,68.41Z"/><path class="cls-3" d="M50.49,68.41l-1.29-.47,1-1.07a.8.8,0,0,0-.07-1.18.93.93,0,0,0-1.25,0l-.71.74L48,65.39a.8.8,0,0,0-1-.62.92.92,0,0,0-.69,1L46.51,67l-1.19-.43a.8.8,0,0,0-1,.54.91.91,0,0,0,0,.49.89.89,0,0,0,.55.63l1.3.47-1,1.07a.8.8,0,0,0,.07,1.18,1,1,0,0,0,.44.21.91.91,0,0,0,.81-.26l.7-.74.22,1.1a.8.8,0,0,0,1,.62.92.92,0,0,0,.68-1l-.22-1.14,1.19.43a.8.8,0,0,0,1-.54A.93.93,0,0,0,50.49,68.41Z"/><path class="cls-3" d="M40,61.41l-1.29-.47,1-1.07a.8.8,0,0,0-.07-1.18.93.93,0,0,0-1.25.05l-.71.74-.21-1.09a.8.8,0,0,0-1-.62.92.92,0,0,0-.69,1L36,60l-1.19-.43a.8.8,0,0,0-1,.54.91.91,0,0,0,0,.49.89.89,0,0,0,.55.63l1.3.47-1,1.07a.8.8,0,0,0,.07,1.18,1,1,0,0,0,.44.21.91.91,0,0,0,.81-.26l.7-.74.22,1.1a.8.8,0,0,0,1,.62.92.92,0,0,0,.68-1.05l-.22-1.14,1.19.43a.8.8,0,0,0,1-.54A.93.93,0,0,0,40,61.41Z"/></g></svg>