<svg xmlns="http://www.w3.org/2000/svg" viewBox="0 0 80 80"><defs><style>.cls-1{fill:#06c;}</style></defs><title>Weather Icons_20200701</title><g id="_19" data-name="19"><path class="cls-1" d="M59.91,49.81H54.64l2.91-5.28a1.22,1.22,0,0,0-2.14-1.18L52.57,48.5l-2.85-5.15a1.22,1.22,0,0,0-2.14,1.18l2.91,5.28H45.23a1.23,1.23,0,1,0,0,2.45h5.26l-2.91,5.28a1.22,1.22,0,0,0,.48,1.66,1.16,1.16,0,0,0,.59.16,1.21,1.21,0,0,0,1.07-.64l2.85-5.15,2.84,5.15a1.21,1.21,0,0,0,1.07.64,1.16,1.16,0,0,0,.59-.16,1.22,1.22,0,0,0,.48-1.66l-2.91-5.28h5.27a1.23,1.23,0,0,0,0-2.45Zm-7.34,2.46A1.24,1.24,0,1,1,53.8,51,1.23,1.23,0,0,1,52.57,52.27Z"/><path class="cls-1" d="M71.86,16.9H66.6l2.91-5.28a1.22,1.22,0,1,0-2.14-1.19l-2.85,5.16-2.84-5.16a1.22,1.22,0,1,0-2.14,1.19l2.91,5.28H57.18a1.22,1.22,0,1,0,0,2.44h5.27l-2.91,5.29a1.22,1.22,0,0,0,2.14,1.18l2.84-5.16,2.85,5.16a1.22,1.22,0,0,0,1.07.63,1.26,1.26,0,0,0,.59-.15,1.22,1.22,0,0,0,.48-1.66L66.6,19.34h5.26a1.22,1.22,0,1,0,0-2.44Zm-7.34,2.46a1.24,1.24,0,1,1,1.24-1.24A1.24,1.24,0,0,1,64.52,19.36Z"/><path class="cls-1" d="M25,59.32H19.72L22.64,54a1.23,1.23,0,0,0-2.15-1.19L17.65,58l-2.84-5.16A1.23,1.23,0,0,0,12.66,54l2.92,5.28H10.31a1.22,1.22,0,0,0,0,2.44h5.27l-2.92,5.29a1.23,1.23,0,0,0,2.15,1.18l2.84-5.16,2.84,5.16a1.24,1.24,0,0,0,1.67.48,1.23,1.23,0,0,0,.48-1.66l-2.92-5.29H25a1.22,1.22,0,1,0,0-2.44Zm-7.34,2.46a1.24,1.24,0,1,1,1.24-1.24A1.24,1.24,0,0,1,17.65,61.78Z"/><path class="cls-1" d="M36,27.4H30.68l2.91-5.28a1.22,1.22,0,1,0-2.14-1.18l-2.84,5.15-2.84-5.15a1.23,1.23,0,0,0-2.15,1.18l2.92,5.28H21.27a1.23,1.23,0,1,0,0,2.45h5.27l-2.92,5.28a1.23,1.23,0,0,0,.48,1.66,1.16,1.16,0,0,0,.59.16,1.24,1.24,0,0,0,1.08-.64l2.84-5.15,2.84,5.15a1.22,1.22,0,0,0,1.07.64,1.14,1.14,0,0,0,.59-.16,1.21,1.21,0,0,0,.48-1.66l-2.91-5.28H36a1.23,1.23,0,0,0,0-2.45Zm-7.34,2.47a1.24,1.24,0,1,1,1.24-1.24A1.24,1.24,0,0,1,28.61,29.87Z"/></g></svg>