<svg xmlns="http://www.w3.org/2000/svg" xmlns:xlink="http://www.w3.org/1999/xlink" viewBox="0 0 80 80"><defs><style>.cls-1{fill:none;}.cls-2{clip-path:url(#clip-path);}.cls-3{fill:#3a66c7;}.cls-4{clip-path:url(#clip-path-2);}.cls-5{clip-path:url(#clip-path-3);}.cls-6{clip-path:url(#clip-path-4);}.cls-7{clip-path:url(#clip-path-5);}.cls-8{clip-path:url(#clip-path-6);}.cls-9{clip-path:url(#clip-path-7);}.cls-10{fill:#06c;}</style><clipPath id="clip-path"><path class="cls-1" d="M40.53,21a1.18,1.18,0,0,0,1.19-1.18V12.2a1.19,1.19,0,0,0-2.37,0v7.61A1.18,1.18,0,0,0,40.53,21Z"/></clipPath><clipPath id="clip-path-2"><path class="cls-1" d="M27.15,23.71a1.19,1.19,0,0,0,1,.59,1.16,1.16,0,0,0,.59-.16,1.18,1.18,0,0,0,.43-1.62l-3.8-6.58a1.17,1.17,0,0,0-1.61-.43,1.18,1.18,0,0,0-.44,1.62Z"/></clipPath><clipPath id="clip-path-3"><path class="cls-1" d="M19.73,31.13l-6.59-3.79a1.18,1.18,0,1,0-1.18,2l6.58,3.81a1.16,1.16,0,0,0,.59.16,1.19,1.19,0,0,0,.6-2.22Z"/></clipPath><clipPath id="clip-path-4"><path class="cls-1" d="M17,42.51a1.18,1.18,0,0,0-1.19-1.18H8.22a1.18,1.18,0,0,0,0,2.36h7.6A1.18,1.18,0,0,0,17,42.51Z"/></clipPath><clipPath id="clip-path-5"><path class="cls-1" d="M72.84,41.33h-7.6a1.18,1.18,0,1,0,0,2.36h7.6a1.18,1.18,0,0,0,0-2.36Z"/></clipPath><clipPath id="clip-path-6"><path class="cls-1" d="M61.93,33.35a1.14,1.14,0,0,0,.59-.16l6.58-3.81a1.18,1.18,0,1,0-1.18-2l-6.58,3.79a1.18,1.18,0,0,0-.43,1.62A1.17,1.17,0,0,0,61.93,33.35Z"/></clipPath><clipPath id="clip-path-7"><path class="cls-1" d="M52.3,24.14a1.14,1.14,0,0,0,.59.16,1.17,1.17,0,0,0,1-.59l3.8-6.58a1.19,1.19,0,0,0-2.05-1.19l-3.8,6.58A1.18,1.18,0,0,0,52.3,24.14Z"/></clipPath></defs><title>Weather Icons_20200701</title><g id="_19" data-name="19"><g class="cls-2"><rect class="cls-3" x="35.63" y="7.29" width="9.81" height="17.42"/></g><g class="cls-4"><rect class="cls-3" x="19.47" y="11.62" width="13.62" height="16.4"/></g><g class="cls-5"><rect class="cls-3" x="7.65" y="23.45" width="16.4" height="13.62"/></g><g class="cls-6"><rect class="cls-3" x="3.32" y="37.6" width="17.41" height="9.81"/></g><g class="cls-7"><rect class="cls-3" x="60.34" y="37.6" width="17.41" height="9.81"/></g><g class="cls-8"><rect class="cls-3" x="57.02" y="23.45" width="16.4" height="13.62"/></g><g class="cls-9"><rect class="cls-3" x="47.98" y="11.62" width="13.62" height="16.4"/></g><path class="cls-10" d="M21.07,51.15a26.67,26.67,0,0,1-.3-3.64c0-11.06,8.79-20.11,19.59-20.11S60,36.48,60,47.54a26.48,26.48,0,0,1-.31,3.61H62.3a29.57,29.57,0,0,0,.27-3.64c0-12.53-10-22.79-22.21-22.79S18.15,35,18.15,47.54a29.14,29.14,0,0,0,.27,3.61Z"/><path class="cls-10" d="M71.86,51.68H8.32a1.34,1.34,0,0,1,0-2.67H71.86a1.34,1.34,0,0,1,0,2.67Z"/><path class="cls-10" d="M63.36,58.64H16.85a1.34,1.34,0,0,1,0-2.68H63.36a1.34,1.34,0,0,1,0,2.68Z"/><path class="cls-10" d="M52.9,65.59H27.3a1.34,1.34,0,0,1,0-2.67H52.9a1.34,1.34,0,0,1,0,2.67Z"/></g></svg>