<svg xmlns="http://www.w3.org/2000/svg" viewBox="0 0 80 80"><defs><style>.cls-1{fill:#3a66c7;}</style></defs><title>Weather Icons_20200701</title><g id="_19" data-name="19"><path class="cls-1" d="M13.77,19.87a2.94,2.94,0,1,0-2.93-2.94,2.93,2.93,0,0,0,2.93,2.94m15.07,0a2.94,2.94,0,1,0-2.94-2.94,2.94,2.94,0,0,0,2.94,2.94m38,0a2.94,2.94,0,1,0-2.94-2.94,2.94,2.94,0,0,0,2.94,2.94M13.77,60.37a2.94,2.94,0,1,0,2.94,2.94,2.94,2.94,0,0,0-2.94-2.94m15.07,0a2.94,2.94,0,1,0,2.94,2.94,2.94,2.94,0,0,0-2.94-2.94m15.23,0A2.94,2.94,0,1,0,47,63.31a2.94,2.94,0,0,0-2.94-2.94M10.84,40.21a2.94,2.94,0,1,0,2.93-2.94,2.93,2.93,0,0,0-2.93,2.94"/><path class="cls-1" d="M10.64,29.94H48.77A9.88,9.88,0,1,0,40.27,15a2,2,0,0,0,3.37,2,6,6,0,1,1,5.13,9H10.64a2,2,0,0,0,0,3.92"/><path class="cls-1" d="M61.17,49.24H10.64a2,2,0,0,0,0,3.92H61.17a6,6,0,1,1-5.14,9,2,2,0,0,0-3.37,2,9.88,9.88,0,1,0,8.51-14.91"/><path class="cls-1" d="M61.17,38.17H24.55a2,2,0,0,0,0,3.92H61.17a9.88,9.88,0,0,0,3.84-19,2,2,0,1,0-1.52,3.61,6,6,0,0,1-2.32,11.45"/></g></svg>