<svg xmlns="http://www.w3.org/2000/svg" viewBox="0 0 80 80"><defs><style>.cls-1{fill:#3a66c7;}</style></defs><title>Weather Icons_20200701</title><g id="_19" data-name="19"><path class="cls-1" d="M51.59,38.2a6.71,6.71,0,0,0-.09-1.1,1.32,1.32,0,1,0-2.61.43,3.78,3.78,0,0,1,0,.67,4.58,4.58,0,0,1-2.46,3.93l-.24.12-.35.18a7.52,7.52,0,0,0-3.45,4.07,6.87,6.87,0,0,0-.35,2.15,1.32,1.32,0,1,0,2.64,0,3.86,3.86,0,0,1,.22-1.3,4.84,4.84,0,0,1,2.22-2.61c.21-.09.42-.2.62-.31l0,0h0A7.21,7.21,0,0,0,51.59,38.2Z"/><path class="cls-1" d="M60.81,38.2a6.71,6.71,0,0,0-.09-1.1,1.32,1.32,0,0,0-2.61.43,3.79,3.79,0,0,1,.06.67,4.59,4.59,0,0,1-2.47,3.93l-.48.25h0l-.09,0a7.54,7.54,0,0,0-3.44,4.07,6.6,6.6,0,0,0-.36,2.15,1.33,1.33,0,1,0,2.65,0,4.11,4.11,0,0,1,.21-1.3,4.85,4.85,0,0,1,2.24-2.61l.6-.31h0l.08,0A7.19,7.19,0,0,0,60.81,38.2Z"/><path class="cls-1" d="M69.87,38.2a6.71,6.71,0,0,0-.09-1.1,1.32,1.32,0,1,0-2.61.43,3.79,3.79,0,0,1,.06.67,4.57,4.57,0,0,1-2.47,3.93l-.24.12-.35.18a7.54,7.54,0,0,0-3.44,4.07,6.6,6.6,0,0,0-.36,2.15,1.32,1.32,0,1,0,2.64,0,3.86,3.86,0,0,1,.22-1.3,4.93,4.93,0,0,1,2.22-2.61c.21-.09.42-.2.62-.31l0,0h0A7.2,7.2,0,0,0,69.87,38.2Z"/><path class="cls-1" d="M36.59,19.92H32.35a1.5,1.5,0,1,1,0-3h4.24a1.5,1.5,0,1,1,0,3Zm0,4.22H32.35a1.5,1.5,0,1,1,0-3h4.24a1.5,1.5,0,1,1,0,3Z"/><path class="cls-1" d="M21.47,68.4A11.53,11.53,0,0,1,14,48.09V19.36a7.49,7.49,0,0,1,15,0V48.09A11.43,11.43,0,0,1,33,56.86,11.56,11.56,0,0,1,21.47,68.4Zm0-53.53A4.5,4.5,0,0,0,17,19.36v30.2l-.6.45a8.55,8.55,0,1,0,10.19,0l-.6-.45V19.36A4.5,4.5,0,0,0,21.47,14.87Z"/><path class="cls-1" d="M21.59,53.49A1.5,1.5,0,0,1,20.1,52V24.29a1.5,1.5,0,0,1,3,0V52a1.5,1.5,0,0,1-1.5,1.49Z"/><path class="cls-1" d="M36.59,28.36H32.35a1.5,1.5,0,1,1,0-3h4.24a1.5,1.5,0,1,1,0,3Zm0,4.22H32.35a1.5,1.5,0,1,1,0-3h4.24a1.5,1.5,0,1,1,0,3Zm0,4.22H32.35a1.5,1.5,0,0,1,0-3h4.24a1.5,1.5,0,0,1,0,3Zm0,4.21H32.35a1.5,1.5,0,1,1,0-3h4.24a1.5,1.5,0,1,1,0,3Z"/><path class="cls-1" d="M68,56.62H39.88a1.84,1.84,0,1,1,0-3.62H68a1.84,1.84,0,1,1,0,3.62Z"/><path class="cls-1" d="M68,64H39.88a1.83,1.83,0,1,1,0-3.61H68A1.83,1.83,0,1,1,68,64Z"/></g></svg>