<svg xmlns="http://www.w3.org/2000/svg" viewBox="0 0 80 80"><defs><style>.cls-1{fill:#3a66c7;}.cls-2{fill:#06c;}</style></defs><title>Weather Icons_20200701</title><g id="_19" data-name="19"><path class="cls-1" d="M38.59,20.92H34.35a1.5,1.5,0,1,1,0-3h4.24a1.5,1.5,0,1,1,0,3Zm0,4.22H34.35a1.5,1.5,0,1,1,0-3h4.24a1.5,1.5,0,1,1,0,3Z"/><path class="cls-1" d="M23.47,69.4A11.53,11.53,0,0,1,16,49.09V20.36a7.49,7.49,0,0,1,15,0V49.09A11.43,11.43,0,0,1,35,57.86,11.56,11.56,0,0,1,23.47,69.4Zm0-53.53A4.5,4.5,0,0,0,19,20.36v30.2l-.6.45a8.55,8.55,0,1,0,10.19,0l-.6-.45V20.36A4.5,4.5,0,0,0,23.47,15.87Z"/><path class="cls-1" d="M23.59,54.49c-.82,0-1.49-.3-1.49-.66V41.66c0-.36.67-.66,1.49-.66s1.5.3,1.5.66V53.83c0,.37-.67.66-1.5.66Z"/><path class="cls-1" d="M38.59,29.36H34.35a1.5,1.5,0,1,1,0-3h4.24a1.5,1.5,0,1,1,0,3Zm0,4.22H34.35a1.5,1.5,0,1,1,0-3h4.24a1.5,1.5,0,1,1,0,3Zm0,4.22H34.35a1.5,1.5,0,0,1,0-3h4.24a1.5,1.5,0,0,1,0,3Zm0,4.21H34.35a1.5,1.5,0,1,1,0-3h4.24a1.5,1.5,0,1,1,0,3Z"/><path class="cls-2" d="M67.13,51.42H60l5.81-6A2,2,0,0,0,63,42.66l-5.63,5.86V40.39a2,2,0,0,0-3.93,0v8.38l-6-5.81a2,2,0,0,0-3.26.91,2,2,0,0,0,.54,1.92l5.85,5.63H43.6a2,2,0,1,0,0,3.92h7.15l-5.81,6A2,2,0,0,0,45,64.16a2.06,2.06,0,0,0,.85.48,1.94,1.94,0,0,0,1.92-.54l5.64-5.86v8.13a2,2,0,0,0,1,1.72,2,2,0,0,0,1,.24,2,2,0,0,0,2-2V58l6,5.8A2,2,0,0,0,66.08,61l-5.85-5.63h6.9a2,2,0,1,0,0-3.92ZM55.36,55.7a2.32,2.32,0,1,1,2.32-2.32A2.32,2.32,0,0,1,55.36,55.7Z"/></g></svg>