<svg xmlns="http://www.w3.org/2000/svg" viewBox="0 0 80 80"><defs><style>.cls-1{fill:#3a66c7;}</style></defs><title>Weather Icons_20200701</title><g id="_19" data-name="19"><path class="cls-1" d="M19.92,56.81A14.32,14.32,0,0,1,22.41,30.1a18.41,18.41,0,0,1,36.1,0A14.32,14.32,0,0,1,61,56.81h0a2,2,0,0,1-1.75-3.69h0A10.23,10.23,0,0,0,54.77,33.7a14.31,14.31,0,0,0-28.62,0,10.22,10.22,0,0,0-4.39,19.46,2,2,0,1,1-1.84,3.65Z"/><path class="cls-1" d="M28.45,50.22l5.66,8.25h.06V50.22h1.89V61.66H34.24L28.52,53.3h-.07v8.36H26.58V50.22Z"/><path class="cls-1" d="M51.71,50.22l4.37,11.44h-2l-1-2.87H48.25l-1,2.87h-2l4.38-11.44Zm.77,7-1.8-5h-.06l-1.81,5Z"/><path class="cls-1" d="M45.56,47.42a.93.93,0,0,0-1.14.5L42.36,53l0,.08L41,56.38h0l-1.49,3.7s0,.06,0,.09l-1.32,3.26a.82.82,0,0,0,.51,1.07,1,1,0,0,0,.49,0,.91.91,0,0,0,.65-.54l2.06-5.1s0,0,0-.08L42.67,57h0l2.07-5.1s0-.05,0-.08l1.32-3.27A.8.8,0,0,0,45.56,47.42Z"/></g></svg>