<?xml version="1.0" encoding="UTF-8"?>
<svg width="1037px" height="508px" viewBox="0 0 1037 508" version="1.1" xmlns="http://www.w3.org/2000/svg" xmlns:xlink="http://www.w3.org/1999/xlink">
    <!-- Generator: Sketch 53.1 (72631) - https://sketchapp.com -->
    <title>symbol_mark_rgb_red备份</title>
    <desc>Created with Sketch.</desc>
    <g id="正式设计" stroke="none" stroke-width="1" fill="none" fill-rule="evenodd" fill-opacity="0.05">
        <g id="symbol_mark_rgb_red备份" fill="#424242">
            <path d="M427.209801,68.313695 C419.56944,61.5151927 407.248913,57.4460943 395.056317,57.4067966 C365.877245,57.3210562 342.092622,80.4566847 342.000227,110.330083 C341.914939,139.664031 365.877245,162.91398 395.056317,162.99972 C411.463549,163.049735 425.66396,156.394134 435.390318,144.622686 L435.390318,115.488799 C430.226855,124.562996 419.764891,136.109375 410.329933,140.064153 C405.589355,142.0469 400.699524,143.307999 395.056317,143.307999 C376.843828,143.307999 361.836737,129.092949 361.836737,110.330083 C361.836737,93.0426667 375.660461,77.0520748 395.056317,77.1056626 C404.153678,77.1342427 412.323534,80.9139671 418.368304,86.8229123 C424.619185,92.9354912 434.363311,105.657229 439.015047,110.687335 C450.877153,123.51982 467.920489,131.557987 486.715778,131.615147 C522.735639,131.71875 552,102.391947 552,66.2559245 C552,30.0484515 522.678781,0 486.715778,0 C465.777634,0 447.369694,10.9640587 435.390318,26.3473225 L435.390318,65.6950391 C444.512554,40.7231361 460.926893,20.7920565 486.715778,20.7920565 C511.488317,20.7920565 531.577137,41.3554719 531.50251,66.2559245 C531.431437,91.156377 511.488317,111.287518 486.715778,111.21964 C475.702996,111.183915 465.432929,107.164832 457.646868,100.52352 C447.973815,92.8961935 437.255988,76.8091435 427.209801,68.313695" id="Fill-1"></path>
            <path d="M0,178 L144,178 L144,218.416581 C144,218.416581 136.626485,202.490238 121.027845,202.461632 L54.3858854,202.461632 L54.3858854,272.1957 L126.63782,272.1957 L126.63782,309.158117 C126.63782,309.158117 124.317185,297.379632 106.876941,297.343874 L54.3858854,297.343874 L54.3858854,392.623024 C54.3574984,406.679255 69.4877532,415 69.4877532,415 L0.943866739,415 C0.943866739,415 15.332512,407.684037 15.332512,392.623024 L15.332512,202.844237 C15.3608989,186.92147 0,178 0,178" id="Fill-2"></path>
            <path d="M361.800082,178 L435,178 C435,178 418.599418,185.833258 418.599418,198.612333 L418.599418,420.798848 C418.599418,495.908075 343.892745,508.204718 340,508 C346.367368,503.873555 377.39588,477.225468 377.51642,420.798848 L377.51642,198.612333 C377.541237,186.580134 361.800082,178 361.800082,178" id="Fill-3"></path>
            <path d="M446,178 L520,178 C520,178 503.566675,185.88761 503.566675,198.950237 L503.566675,392.50941 C503.566675,406.354721 520,415 520,415 L446,415 C446,415 462.429751,406.419052 462.429751,392.50941 L462.429751,198.950237 C462.429751,185.88761 446,178 446,178" id="Fill-4"></path>
            <path d="M534.345628,178 L696,178 L682.278712,221.048325 C682.278712,221.048325 678.167291,202.955084 662.576531,202.965812 L629.004071,202.965812 L629.004071,392.605145 C629.007619,404.60175 644.793486,415 644.793486,415 L572.82767,415 C572.82767,415 588.429072,405.635139 588.421978,392.605145 L588.421978,202.965812 L547.935663,202.965812 C536.445681,202.972963 520,224.65267 520,224.65267 L534.345628,178" id="Fill-5"></path>
            <path d="M966.131861,178 L1037,178 C1037,178 1021.84315,186.099095 1021.82539,198.935194 L1021.82539,342.638637 C1021.75079,401.029461 973.733375,419 940.460765,419 C907.390624,419 855.547584,400.821792 855.615074,342.638637 L855.615074,198.935194 C855.632834,186.099095 840,178 840,178 L912.924811,178 C912.924811,178 896.684565,185.869943 896.684565,198.935194 L896.684565,342.638637 C896.684565,373.262669 916.839235,393.320641 940.460765,393.320641 C964.050325,393.320641 982.087937,372.457056 982.123458,342.638637 L982.123458,198.935194 C982.137667,186.099095 966.131861,178 966.131861,178" id="Fill-6"></path>
            <path d="M276.802685,178 L349,178 C349,178 333.656783,186.413787 333.656783,199.13089 C333.656783,199.191601 333.642573,342.097416 333.642573,342.097416 C333.642573,400.601091 283.346377,419 249.686506,419 C216.609244,419 164.806791,400.322536 164.806791,342.097416 L164.735741,199.13089 C164.735741,186.342363 150,178 150,178 L222.932681,178 C222.932681,178 206.068997,186.353076 206.068997,199.13089 L206.0015,342.097416 C206.0015,372.384906 226.062427,393.280096 249.686506,393.394375 C273.310584,393.505083 292.266687,372.088495 292.266687,342.097416 L292.362604,199.13089 C292.362604,186.324507 276.802685,178 276.802685,178" id="Fill-7"></path>
            <path d="M818.888693,215.69702 C818.885152,215.69702 808.699748,197.687173 779.209532,197.601429 C749.715775,197.50854 733.690408,213.163994 733.630203,233.413907 C733.562914,256.350471 750.650735,265.024922 777.130661,277.840101 C802.28606,290.02649 840.127173,306.878791 839.999679,349.236406 C839.889892,387.249651 806.496924,419 746.606323,419 C728.176266,418.942837 702.712755,412.872865 702.712755,412.872865 L689,367.378442 C701.660925,379.811345 724.156644,393.176717 747.296918,393.176717 C771.226952,393.176717 799.845954,378.242942 799.845954,354.281021 C799.845954,307.982747 693.065662,315.728303 693.065662,238.251307 C693.065662,211.599163 711.488636,173 775.186368,173 C795.872371,173 818.913484,179.127135 818.913484,179.127135 L818.888693,215.69702" id="Fill-8"></path>
        </g>
    </g>
</svg>