<?xml version="1.0" encoding="UTF-8"?>
<svg width="114px" height="91px" viewBox="0 0 114 91" version="1.1" xmlns="http://www.w3.org/2000/svg" xmlns:xlink="http://www.w3.org/1999/xlink">
    <title>Group</title>
    <defs>
        <linearGradient x1="50%" y1="0%" x2="50%" y2="100%" id="linearGradient-1">
            <stop stop-color="#000000" offset="0%"></stop>
            <stop stop-color="#FFFFFF" offset="100%"></stop>
        </linearGradient>
        <path d="M68.0252949,9.625 C67.4350892,9.625 66.9565217,9.1145247 66.9565217,8.48140284 L66.9565217,1.14337624 C66.9565217,0.510364841 67.4350892,0 68.0252949,0 C68.6169464,0 69.0954106,0.510364733 69.0954106,1.14337624 L69.0954106,8.48140284 C69.0954106,9.11441424 68.6168432,9.625 68.0252949,9.625 Z" id="path-2"></path>
        <filter x="-444.2%" y="-98.7%" width="988.3%" height="297.4%" filterUnits="objectBoundingBox" id="filter-3">
            <feMorphology radius="0.5" operator="dilate" in="SourceAlpha" result="shadowSpreadOuter1"></feMorphology>
            <feOffset dx="0" dy="0" in="shadowSpreadOuter1" result="shadowOffsetOuter1"></feOffset>
            <feGaussianBlur stdDeviation="3" in="shadowOffsetOuter1" result="shadowBlurOuter1"></feGaussianBlur>
            <feComposite in="shadowBlurOuter1" in2="SourceAlpha" operator="out" result="shadowBlurOuter1"></feComposite>
            <feColorMatrix values="0 0 0 0 1   0 0 0 0 1   0 0 0 0 1  0 0 0 0.5 0" type="matrix" in="shadowBlurOuter1"></feColorMatrix>
        </filter>
        <path d="M81.0189734,13.2646348 C80.7905935,13.6741581 80.3767737,13.9027778 79.953914,13.9027778 C79.7470637,13.9027778 79.5328385,13.8474368 79.3384776,13.7329425 C78.7480203,13.3788831 78.5428351,12.6006661 78.8888546,11.9919154 L82.8386384,4.91663319 C83.1775209,4.30431599 83.9339106,4.09770974 84.5228216,4.44820262 C85.1095915,4.7986955 85.3129925,5.57703558 84.9705414,6.18935266 L81.0189734,13.2646348 Z" id="path-4"></path>
        <filter x="-148.1%" y="-98.7%" width="396.1%" height="297.4%" filterUnits="objectBoundingBox" id="filter-5">
            <feMorphology radius="0.5" operator="dilate" in="SourceAlpha" result="shadowSpreadOuter1"></feMorphology>
            <feOffset dx="0" dy="0" in="shadowSpreadOuter1" result="shadowOffsetOuter1"></feOffset>
            <feGaussianBlur stdDeviation="3" in="shadowOffsetOuter1" result="shadowBlurOuter1"></feGaussianBlur>
            <feComposite in="shadowBlurOuter1" in2="SourceAlpha" operator="out" result="shadowBlurOuter1"></feComposite>
            <feColorMatrix values="0 0 0 0 1   0 0 0 0 1   0 0 0 0 1  0 0 0 0.5 0" type="matrix" in="shadowBlurOuter1"></feColorMatrix>
        </filter>
        <path d="M88.9817497,20.1603192 L96.0637191,16.2065738 C96.6686225,15.8674095 97.4489208,16.0673868 97.7977427,16.6598241 C98.1518534,17.2484545 97.9433721,17.9980422 97.3363777,18.3406565 L90.2563762,22.2909519 C90.0534298,22.4051567 89.8376916,22.4583333 89.6181405,22.4583333 C89.1792842,22.4583333 88.7510058,22.2336117 88.5166949,21.8411517 C88.1644291,21.2522833 88.3730334,20.4994836 88.9817497,20.1603192 Z" id="path-6"></path>
        <filter x="-98.7%" y="-148.1%" width="297.4%" height="396.1%" filterUnits="objectBoundingBox" id="filter-7">
            <feMorphology radius="0.5" operator="dilate" in="SourceAlpha" result="shadowSpreadOuter1"></feMorphology>
            <feOffset dx="0" dy="0" in="shadowSpreadOuter1" result="shadowOffsetOuter1"></feOffset>
            <feGaussianBlur stdDeviation="3" in="shadowOffsetOuter1" result="shadowBlurOuter1"></feGaussianBlur>
            <feComposite in="shadowBlurOuter1" in2="SourceAlpha" operator="out" result="shadowBlurOuter1"></feComposite>
            <feColorMatrix values="0 0 0 0 1   0 0 0 0 1   0 0 0 0 1  0 0 0 0.5 0" type="matrix" in="shadowBlurOuter1"></feColorMatrix>
        </filter>
        <path d="M91.553744,34.2238732 C91.553744,33.632707 92.0654254,33.1527778 92.6981261,33.1527778 L100.037674,33.1527778 C100.667062,33.1527778 101.178744,33.6326038 101.178744,34.2238732 C101.178744,34.8149363 100.667063,35.2916667 100.037674,35.2916667 L92.6981261,35.2916667 C92.065315,35.2916667 91.553744,34.8149363 91.553744,34.2238732 Z" id="path-8"></path>
        <filter x="-98.7%" y="-444.2%" width="297.4%" height="988.3%" filterUnits="objectBoundingBox" id="filter-9">
            <feMorphology radius="0.5" operator="dilate" in="SourceAlpha" result="shadowSpreadOuter1"></feMorphology>
            <feOffset dx="0" dy="0" in="shadowSpreadOuter1" result="shadowOffsetOuter1"></feOffset>
            <feGaussianBlur stdDeviation="3" in="shadowOffsetOuter1" result="shadowBlurOuter1"></feGaussianBlur>
            <feComposite in="shadowBlurOuter1" in2="SourceAlpha" operator="out" result="shadowBlurOuter1"></feComposite>
            <feColorMatrix values="0 0 0 0 1   0 0 0 0 1   0 0 0 0 1  0 0 0 0.5 0" type="matrix" in="shadowBlurOuter1"></feColorMatrix>
        </filter>
        <path d="M90.2562777,45.0833 L97.3363696,49.0356843 C97.9433717,49.3746233 98.1518557,50.131111 97.7977404,50.715751 C97.5650255,51.1120122 97.1336666,51.3333333 96.6982487,51.3333333 C96.4823848,51.3333333 96.2627078,51.2796977 96.0638177,51.1688588 L88.9817578,47.2164745 C88.3730337,46.8775356 88.1644268,46.1212856 88.5166971,45.5324833 C88.8633093,44.9439188 89.6492756,44.7406744 90.2562777,45.0833 Z" id="path-10"></path>
        <filter x="-98.7%" y="-148.1%" width="297.4%" height="396.1%" filterUnits="objectBoundingBox" id="filter-11">
            <feMorphology radius="0.5" operator="dilate" in="SourceAlpha" result="shadowSpreadOuter1"></feMorphology>
            <feOffset dx="0" dy="0" in="shadowSpreadOuter1" result="shadowOffsetOuter1"></feOffset>
            <feGaussianBlur stdDeviation="3" in="shadowOffsetOuter1" result="shadowBlurOuter1"></feGaussianBlur>
            <feComposite in="shadowBlurOuter1" in2="SourceAlpha" operator="out" result="shadowBlurOuter1"></feComposite>
            <feColorMatrix values="0 0 0 0 1   0 0 0 0 1   0 0 0 0 1  0 0 0 0.5 0" type="matrix" in="shadowBlurOuter1"></feColorMatrix>
        </filter>
        <path d="M0.650966184,50.5522484 C0.650966184,65.1368019 12.4281504,77 26.9139817,77 L63.4317399,77 C76.2213379,77 86.6282206,66.5216152 86.6282206,53.6441467 C86.6282206,50.5907252 86.0115559,47.6421237 84.909178,44.9214677 C87.0656519,41.6827748 88.3454106,37.8075831 88.3454106,33.6211962 C88.3454106,22.3454099 79.2427172,13.1821137 68.0508201,13.1821137 C66.8438894,13.1821137 65.6649784,13.3011585 64.5133924,13.5107984 C59.7935802,7.86940742 52.7399133,4.27777778 44.8594339,4.27777778 C32.5612224,4.27777778 22.0067154,13.1366413 19.6552616,25.1503649 C19.5998011,25.164473 19.5475826,25.1887251 19.4902696,25.2063311 C19.0616378,25.3321383 18.6447003,25.4790496 18.2278784,25.6258443 C17.9119043,25.7378932 17.596046,25.8533234 17.2830823,25.9757495 C16.8523664,26.1471459 16.4325343,26.3324173 16.0157124,26.5248011 C15.7548515,26.6438458 15.4912116,26.7766488 15.2344031,26.9025728 C14.7860881,27.1333167 14.334647,27.3642938 13.8987208,27.6161416 C13.7476229,27.7068534 13.6019669,27.8015296 13.4491322,27.8888601 C8.17679952,31.0820805 4.10526098,36.0657524 2.08390675,42.011576 C2.07649662,42.0428238 2.06121315,42.0674257 2.05079253,42.0990232 C1.8773484,42.6234729 1.71918763,43.1620309 1.57295261,43.7043199 C1.50545063,43.9632801 1.43933804,44.2253883 1.3787831,44.487963 C1.27237775,44.9320779 1.17546672,45.3724619 1.09719678,45.8204245 C1.01568497,46.2401708 0.954782683,46.670061 0.900943187,47.0968032 C0.855787465,47.4394795 0.805768893,47.7720118 0.772654667,48.1215673 C0.699363881,48.92235 0.650966184,49.7337431 0.650966184,50.5522484 Z M82.1547964,39.9409439 C79.3106823,36.0064048 75.2764262,32.9600956 70.5341519,31.4213754 C70.5602032,30.9911354 70.5738657,30.5748869 70.5738657,30.1692487 C70.5738657,25.7902448 69.4764664,21.6668198 67.5662648,18.0470905 C67.7294043,18.0400948 67.8857123,18.011995 68.0508201,18.011995 C76.5980986,18.011995 83.5526545,25.0139472 83.5526545,33.6211961 C83.5526545,35.8803644 83.0214383,37.9999668 82.1547964,39.9409439 Z M5.44696415,50.5522484 C5.44696415,49.8699274 5.48552017,49.198683 5.55174851,48.5307033 C5.57895773,48.2230059 5.62411346,47.9221877 5.66973227,47.6177549 C5.71106707,47.2856889 5.76004371,46.9461607 5.8188618,46.6142114 C5.89493181,46.2118378 5.98559049,45.8130788 6.08250163,45.4179342 C6.12974143,45.2184381 6.18358093,45.0191752 6.23904141,44.8235268 C6.36732993,44.3511956 6.50939668,43.8828286 6.66593646,43.4243723 C6.70078742,43.3405396 6.73065967,43.2599716 6.76006871,43.1761389 C7.98922993,39.8185178 10.0247097,36.8073042 12.660876,34.4359704 C12.664118,34.4325891 12.6662021,34.4253602 12.6711808,34.4253602 C13.0897393,34.0512029 13.5204553,33.6943019 13.9597391,33.3588546 C14.0293251,33.3027719 14.1020374,33.2504201 14.1733602,33.1978352 C14.5811509,32.8901378 15.0017936,32.5998133 15.4288043,32.3235968 C15.5488722,32.2501412 15.6652349,32.1803001 15.7832187,32.1067278 C16.1930934,31.8549966 16.6116521,31.6066467 17.0369261,31.3828985 C17.1722774,31.3092097 17.3114495,31.2499789 17.4535164,31.183519 C18.8256707,30.494552 20.2913782,29.9557609 21.8245876,29.5781057 C22.0140101,29.5361311 22.198222,29.4766671 22.3890338,29.4345758 L22.7050079,29.3612367 C24.0700993,29.0884016 25.4695785,28.9414904 26.9142134,28.9414904 C31.7662508,28.9414904 36.3489749,30.5327955 40.1605788,33.5546195 C41.2044859,34.3765061 42.7062022,34.1911183 43.5260675,33.1453668 C44.3438487,32.0961175 44.163226,30.5747701 43.1232555,29.7562648 C38.462493,26.0596985 32.8531137,24.115107 26.9142134,24.115107 C26.2093215,24.115107 25.5233022,24.1639608 24.8339253,24.219927 C27.410926,15.4169131 35.5102368,9.10392786 44.8596656,9.10392786 C56.3933564,9.10392786 65.7745101,18.5575486 65.7745101,30.1690154 C65.7745101,30.623624 65.7467219,31.0677389 65.7188181,31.5154684 C65.6911458,31.9492063 65.6426324,32.4038149 65.5801091,32.9073939 L65.4618939,33.8308359 C64.8660703,37.2967748 63.4163409,40.538849 61.1831023,43.3405394 C60.3564056,44.3791785 60.5161874,45.9040237 61.5494423,46.7366373 C61.9959047,47.0966864 62.5236474,47.2681994 63.0480325,47.2681994 C63.753156,47.2681994 64.4460064,46.9602687 64.9200255,46.3693592 C67.2781949,43.4104973 68.938535,39.9586665 69.8257866,36.3001106 C76.9055049,38.958271 81.8286335,45.8900323 81.8286335,53.6441466 C81.8286335,63.86019 73.5783407,72.1700019 63.4319717,72.1700019 L26.9139817,72.1700019 C15.0746216,72.1700019 5.44696415,62.4749105 5.44696415,50.5522484 Z" id="path-12"></path>
        <filter x="-10.8%" y="-13.1%" width="121.7%" height="126.1%" filterUnits="objectBoundingBox" id="filter-13">
            <feMorphology radius="0.5" operator="dilate" in="SourceAlpha" result="shadowSpreadOuter1"></feMorphology>
            <feOffset dx="0" dy="0" in="shadowSpreadOuter1" result="shadowOffsetOuter1"></feOffset>
            <feGaussianBlur stdDeviation="3" in="shadowOffsetOuter1" result="shadowBlurOuter1"></feGaussianBlur>
            <feComposite in="shadowBlurOuter1" in2="SourceAlpha" operator="out" result="shadowBlurOuter1"></feComposite>
            <feColorMatrix values="0 0 0 0 1   0 0 0 0 1   0 0 0 0 1  0 0 0 0.5 0" type="matrix" in="shadowBlurOuter1"></feColorMatrix>
        </filter>
    </defs>
    <g id="页面-1" stroke="none" stroke-width="1" fill="none" fill-rule="evenodd">
        <g id="画板" transform="translate(-114.000000, -283.000000)">
            <rect id="矩形" stroke="#979797" fill="url(#linearGradient-1)" opacity="0" x="-7.5" y="0.5" width="1087" height="1919"></rect>
            <g id="编组-14" transform="translate(120.000000, 285.000000)" fill-rule="nonzero">
                <g id="编组-9" transform="translate(0.000000, 1.000000)">
                    <g id="Group" transform="translate(-0.000000, 4.000000)">
                        <g id="Path">
                            <use fill="black" fill-opacity="1" filter="url(#filter-3)" xlink:href="#path-2"></use>
                            <use stroke="#FFFFFF" stroke-width="1" fill="#E0F2FF" xlink:href="#path-2"></use>
                        </g>
                        <g id="Path">
                            <use fill="black" fill-opacity="1" filter="url(#filter-5)" xlink:href="#path-4"></use>
                            <use stroke="#FFFFFF" stroke-width="1" fill="#E0F2FF" xlink:href="#path-4"></use>
                        </g>
                        <g id="Path">
                            <use fill="black" fill-opacity="1" filter="url(#filter-7)" xlink:href="#path-6"></use>
                            <use stroke="#FFFFFF" stroke-width="1" fill="#E0F2FF" xlink:href="#path-6"></use>
                        </g>
                        <g id="Path">
                            <use fill="black" fill-opacity="1" filter="url(#filter-9)" xlink:href="#path-8"></use>
                            <use stroke="#FFFFFF" stroke-width="1" fill="#E0F2FF" xlink:href="#path-8"></use>
                        </g>
                        <g id="Path">
                            <use fill="black" fill-opacity="1" filter="url(#filter-11)" xlink:href="#path-10"></use>
                            <use stroke="#FFFFFF" stroke-width="1" fill="#E0F2FF" xlink:href="#path-10"></use>
                        </g>
                        <g id="Shape">
                            <use fill="black" fill-opacity="1" filter="url(#filter-13)" xlink:href="#path-12"></use>
                            <use stroke="#FFFFFF" stroke-width="1" fill="#E0F2FF" xlink:href="#path-12"></use>
                        </g>
                    </g>
                </g>
            </g>
        </g>
    </g>
</svg>