<?xml version="1.0" encoding="UTF-8"?>
<svg width="20px" height="20px" viewBox="0 0 20 20" version="1.1" xmlns="http://www.w3.org/2000/svg" xmlns:xlink="http://www.w3.org/1999/xlink">
    <!-- Generator: Sketch 56 (81588) - https://sketch.com -->
    <title></title>
    <desc>Created with Sketch.</desc>
    <g id="icon/灰叉" stroke="none" stroke-width="1" fill="none" fill-rule="evenodd">
        <g id="编组" transform="translate(3.007637, 3.013026)" fill-rule="nonzero">
            <path d="M13.969184,6.984592 C13.969184,3.12669626 10.8424877,-7.99360578e-15 6.984592,-7.99360578e-15 C3.12669626,-7.99360578e-15 7.01660952e-13,3.12669626 7.01660952e-13,6.984592 C7.01660952e-13,10.8424877 3.12669626,13.969184 6.984592,13.969184 C10.8424877,13.969184 13.969184,10.8424877 13.969184,6.984592 Z" id="路径" fill="#CCCCCC"></path>
            <path d="M4.21121787,8.93945925 L6.25612088,6.89455624 L4.21121787,4.84965323 C3.68328094,4.3217163 4.50178781,3.5045736 5.02972475,4.03114636 L7.07462776,6.07604937 L9.11953077,4.03114636 C9.6474677,3.50320943 10.4646104,4.3217163 9.93803764,4.84965323 L7.89313463,6.89455624 L9.93803764,8.93945925 C10.4659746,9.46739619 9.6474677,10.2845389 9.11953077,9.75796613 L7.07462776,7.71306312 L5.02972475,9.75796613 C4.50315199,10.2845389 3.68464512,9.46603201 4.21121787,8.93945925 L4.21121787,8.93945925 Z" id="路径" fill="#FFFFFF"></path>
        </g>
    </g>
</svg>