<?xml version="1.0" encoding="UTF-8"?>
<svg width="20px" height="20px" viewBox="0 0 20 20" version="1.1" xmlns="http://www.w3.org/2000/svg" xmlns:xlink="http://www.w3.org/1999/xlink">
    <!-- Generator: Sketch 56 (81588) - https://sketch.com -->
    <title></title>
    <desc>Created with Sketch.</desc>
    <g id="icon/不可见" stroke="none" stroke-width="1" fill="none" fill-rule="evenodd">
        <g id="编组" transform="translate(1.000000, 6.000000)" fill="#D9D9D9" fill-rule="nonzero" stroke="#D9D9D9" stroke-width="0.4">
            <path d="M17.8115831,1.02257234 C17.9991537,0.736825125 17.9441677,0.356061888 17.683417,0.135056727 C17.5487937,0.0297506453 17.377112,-0.0162347338 17.2078761,0.0076818642 C17.0386402,0.0315984622 16.8864246,0.123357327 16.7862545,0.261844666 C16.7542819,0.292163525 13.19788,4.45687187 8.9686752,4.45687188 C4.86763646,4.45687188 1.15109593,0.261844666 1.11912331,0.228769552 C0.884415053,-0.027380771 0.490356535,-0.0552251522 0.221960796,0.165375578 C-0.036154149,0.396193361 -0.0645743748,0.790173317 0.157739946,1.05564745 C0.777541167,1.75669503 1.46435637,2.39550702 2.20839713,2.96297914 L0.57421078,4.64705379 C0.455638801,4.7670075 0.391866416,4.93060225 0.397971983,5.09915767 C0.404077551,5.26771309 0.47951903,5.42626511 0.606459018,5.53732566 C0.690238088,5.66622329 0.837666318,5.73914478 0.99095724,5.72750757 C1.15975653,5.72615101 1.32108916,5.6577309 1.43940069,5.53732566 L3.20147749,3.7237068 C4.10321434,4.34804697 5.08357386,4.8503677 6.11704896,5.21759954 L5.44424598,7.4749762 C5.39539028,7.63981068 5.4155777,7.81741937 5.50018018,7.96708469 C5.58478266,8.11675 5.72654409,8.22563561 5.89296505,8.26884186 L6.08590322,8.26884186 C6.37577127,8.27289691 6.62928771,8.07435303 6.69476098,7.79194606 L7.36756396,5.53732566 C8.42525075,5.74680142 9.51375341,5.74680142 10.5714402,5.53732566 L11.2442432,7.7616272 C11.3196128,8.03718437 11.5674756,8.2301785 11.8531009,8.23570387 C11.9083668,8.24368472 11.9647162,8.23301616 12.0132396,8.20538501 C12.1796098,8.16218074 12.3213042,8.05326996 12.4058506,7.90361187 C12.4903971,7.75395379 12.5105471,7.5763789 12.4616831,7.41158223 L11.7888801,5.18728068 C12.8214069,4.81785497 13.8014879,4.31567691 14.7044516,3.69338795 L16.4348314,5.47117542 C16.5514817,5.59432875 16.7136457,5.66408937 16.8832748,5.66408937 C17.052904,5.66408937 17.2150679,5.59432875 17.3317183,5.47117542 C17.5806475,5.23270946 17.5949326,4.83956297 17.3639665,4.58365981 L15.7297802,2.89958516 C16.4921389,2.35393947 17.1907362,1.72431432 17.81241,1.02257234 L17.8115831,1.02257234 Z" id="路径"></path>
        </g>
    </g>
</svg>