<?xml version="1.0" encoding="UTF-8"?>
<svg width="20px" height="20px" viewBox="0 0 20 20" version="1.1" xmlns="http://www.w3.org/2000/svg" xmlns:xlink="http://www.w3.org/1999/xlink">
    <!-- Generator: Sketch 56 (81588) - https://sketch.com -->
    <title></title>
    <desc>Created with Sketch.</desc>
    <g id="icon/可见" stroke="none" stroke-width="1" fill="none" fill-rule="evenodd">
        <g id="编组" transform="translate(1.000000, 5.000000)" fill="#D9D9D9" fill-rule="nonzero">
            <path d="M8.99960992,1.77635684e-15 C3.11828419,1.77635684e-15 0,5.43357894 0,5.43357894 C0,5.43357894 3.36695196,10.263158 8.99960992,10.263158 C14.6326785,10.263158 18,5.43357894 18,5.43357894 C18,5.43357894 15.233653,1.77635684e-15 8.99960992,1.77635684e-15 Z M9.00513267,8.22316324 C7.21179694,8.22316324 5.75793626,6.84105193 5.75793626,5.13639932 C5.75793626,3.43176671 7.21179694,2.04963541 9.00513267,2.04963541 C10.7984684,2.04963541 12.2523291,3.43176671 12.2523291,5.13639932 C12.2523291,6.84105193 10.7984479,8.22316324 9.00513267,8.22316324 Z M9.00000001,3.87771617 C8.21484461,3.87771617 7.57837253,4.49277681 7.57837253,5.25126692 C7.57837253,6.00975703 8.21484461,6.62481767 9.00000001,6.62481767 C9.78515541,6.62481767 10.4216275,6.00975703 10.4216275,5.25126692 C10.4216275,4.49277681 9.78515541,3.87771617 9.00000001,3.87771617 Z" id="形状"></path>
        </g>
    </g>
</svg>