<?xml version="1.0" standalone="no"?><!DOCTYPE svg PUBLIC "-//W3C//DTD SVG 1.1//EN" "http://www.w3.org/Graphics/SVG/1.1/DTD/svg11.dtd"><svg t="1613963712192" class="icon" viewBox="0 0 1024 1024" version="1.1" xmlns="http://www.w3.org/2000/svg" xmlns:xlink="http://www.w3.org/1999/xlink" width="24" height="24"><defs><style type="text/css"></style></defs><path d="M373.76 527.36c7.68 0 15.36-2.56 23.04-10.24l104.96-104.96v332.8c0 17.92 15.36 33.28 33.28 33.28s33.28-15.36 33.28-33.28v-332.8l104.96 104.96c12.8 12.8 33.28 12.8 46.08 0s12.8-30.72 0-43.52l-158.72-158.72-5.12-5.12h-2.56-2.56c-2.56 0-2.56-2.56-5.12-2.56h-2.56-2.56-2.56c-7.68 0-17.92 2.56-23.04 10.24l-158.72 158.72c-12.8 12.8-12.8 33.28 0 43.52 2.56 2.56 10.24 5.12 17.92 7.68z m622.08 30.72c-7.68-17.92-28.16-28.16-46.08-20.48-5.12 2.56-10.24 5.12-15.36 10.24-7.68 10.24-10.24 23.04-5.12 35.84 20.48 53.76 15.36 112.64-17.92 161.28-30.72 48.64-81.92 76.8-138.24 81.92H243.2c-97.28-10.24-168.96-97.28-158.72-197.12 10.24-89.6 84.48-158.72 174.08-158.72h7.68c10.24 0 20.48-2.56 25.6-10.24 7.68-7.68 10.24-17.92 10.24-28.16V424.96c-2.56-122.88 94.72-222.72 217.6-222.72 84.48 0 161.28 46.08 199.68 120.32 10.24 17.92 30.72 23.04 48.64 15.36 7.68-5.12 15.36-12.8 17.92-20.48 2.56-10.24 2.56-17.92-2.56-28.16-74.24-143.36-248.32-199.68-391.68-125.44-89.6 46.08-148.48 135.68-156.16 238.08-135.68 17.92-232.96 140.8-217.6 279.04 12.8 112.64 99.84 199.68 212.48 217.6 0-2.56 5.12-2.56 10.24-2.56h542.72c128-10.24 227.84-117.76 227.84-248.32 0-30.72-5.12-61.44-15.36-89.6z" ></path></svg>