<?xml version="1.0" standalone="no"?><!DOCTYPE svg PUBLIC "-//W3C//DTD SVG 1.1//EN" "http://www.w3.org/Graphics/SVG/1.1/DTD/svg11.dtd"><svg t="1613963813046" class="icon" viewBox="0 0 1024 1024" version="1.1" xmlns="http://www.w3.org/2000/svg" xmlns:xlink="http://www.w3.org/1999/xlink" width="24" height="24"><defs><style type="text/css"></style></defs><path d="M380.587 510.293a28.33 28.33 0 0 0-28.331-28.33H243.371a28.33 28.33 0 1 0 0 56.661h108.885a28.33 28.33 0 0 0 28.33-28.33z m162.133-168.96a28.33 28.33 0 0 0-27.99-28.33H243.37a28.33 28.33 0 1 0 0 56.661h271.02a28.33 28.33 0 0 0 28.33-28.33zM243.37 650.24a28.33 28.33 0 0 0 0 56.661h77.483a28.33 28.33 0 0 0 0-56.661z" ></path><path d="M441.685 914.773H194.22a56.32 56.32 0 0 1-51.542-61.44V195.584a56.32 56.32 0 0 1 51.542-59.05H714.41a56.32 56.32 0 0 1 51.541 60.074v144.725a28.33 28.33 0 0 0 56.661 0V195.584A112.981 112.981 0 0 0 714.411 78.848H194.219A112.981 112.981 0 0 0 86.016 195.584v657.75A112.981 112.981 0 0 0 194.56 969.727h247.125a28.33 28.33 0 0 0 0-56.661z" ></path><path d="M693.59 565.248a121.515 121.515 0 1 0 121.514 121.515 121.515 121.515 0 0 0-121.515-121.515z m0 189.44a68.267 68.267 0 1 1 68.266-68.267 68.267 68.267 0 0 1-68.267 68.267z" ></path><path d="M958.464 758.101a94.55 94.55 0 0 1-34.133-71.338 94.89 94.89 0 0 1 34.133-72.363 25.6 25.6 0 0 0 5.12-34.133l-44.373-75.776a25.6 25.6 0 0 0-30.379-11.606 97.963 97.963 0 0 1-30.037 4.438 97.963 97.963 0 0 1-96.256-75.776 25.6 25.6 0 0 0-25.259-20.139h-88.747a25.6 25.6 0 0 0-25.258 20.139 97.963 97.963 0 0 1-96.256 75.776 100.352 100.352 0 0 1-30.72-4.779 23.21 23.21 0 0 0-7.168 0 25.6 25.6 0 0 0-22.187 12.63l-44.373 76.117a25.941 25.941 0 0 0 5.461 32.426 94.55 94.55 0 0 1 0 142.678 25.941 25.941 0 0 0-5.461 34.133l44.373 75.776a25.6 25.6 0 0 0 30.379 11.605 97.963 97.963 0 0 1 30.037-4.437 97.963 97.963 0 0 1 96.256 75.776 25.941 25.941 0 0 0 25.259 20.139h88.064a25.6 25.6 0 0 0 25.258-20.139 97.963 97.963 0 0 1 96.256-75.776 102.4 102.4 0 0 1 30.72 4.779 23.21 23.21 0 0 0 7.168 0 25.6 25.6 0 0 0 22.187-12.63l44.373-76.117a25.941 25.941 0 0 0-5.461-32.427z m-80.213 72.704a123.221 123.221 0 0 0-31.062-3.754 124.587 124.587 0 0 0-119.466 89.088h-68.267a124.587 124.587 0 0 0-119.467-89.088 126.635 126.635 0 0 0-31.061 3.754l-34.133-58.368a120.49 120.49 0 0 0 0-170.666l34.133-58.368a122.88 122.88 0 0 0 31.061 3.754 124.587 124.587 0 0 0 119.467-89.088h68.267a124.587 124.587 0 0 0 119.466 88.064 126.976 126.976 0 0 0 32.086-4.096l34.133 58.368a120.49 120.49 0 0 0 0 170.667z" ></path></svg>