<?xml version="1.0" standalone="no"?><!DOCTYPE svg PUBLIC "-//W3C//DTD SVG 1.1//EN" "http://www.w3.org/Graphics/SVG/1.1/DTD/svg11.dtd"><svg t="1614248024551" class="icon" viewBox="0 0 1024 1024" version="1.1" xmlns="http://www.w3.org/2000/svg" xmlns:xlink="http://www.w3.org/1999/xlink" width="200" height="200"><defs><style type="text/css"></style></defs><path d="M244.77184 500.4544H102.144V434.87744h142.62784v65.57696z m423.936 18.11456l-17.792-63.0784 137.97888-39.55712 17.78688 63.0784z m-152.32-179.5328H373.76V273.4592h142.6432v65.57696z"></path><path d="M265.86624 880.7424H114.45248a32.65024 32.65024 0 0 1-32.53248-32.768V332.25216a32.64512 32.64512 0 0 1 32.53248-32.768h151.41376a32.64512 32.64512 0 0 1 32.53248 32.768v515.73248a32.65024 32.65024 0 0 1-32.53248 32.75776z m-118.88128-65.536h86.3488V365.00992H146.98496v450.22208zM755.09248 890.88a32.37376 32.37376 0 0 1-15.83616-4.14208 32.72704 32.72704 0 0 1-15.45728-19.65568l-140.08832-496.0768a32.768 32.768 0 0 1 22.39488-40.448l154.49088-44.22656a32.38912 32.38912 0 0 1 24.73984 2.89792 32.7168 32.7168 0 0 1 15.45728 19.65568l140.0832 496.07168a32.768 32.768 0 0 1-22.39488 40.448l-154.49088 44.22656a32.38912 32.38912 0 0 1-8.89856 1.24928z m-99.89632-506.28096l122.2912 433.06496 91.88864-26.3168-122.27072-433.05984zM528.896 880.7424H373.0176a32.65024 32.65024 0 0 1-32.53248-32.768V171.008a32.64512 32.64512 0 0 1 32.53248-32.768H528.896a32.64512 32.64512 0 0 1 32.53248 32.768v676.97664a32.65024 32.65024 0 0 1-32.53248 32.75776z m-123.33056-65.536h90.78272V203.776H405.55008v611.456z"></path></svg>