<?xml version="1.0" standalone="no"?><!DOCTYPE svg PUBLIC "-//W3C//DTD SVG 1.1//EN" "http://www.w3.org/Graphics/SVG/1.1/DTD/svg11.dtd"><svg t="1613963522684" class="icon" viewBox="0 0 1024 1024" version="1.1" xmlns="http://www.w3.org/2000/svg" xmlns:xlink="http://www.w3.org/1999/xlink" width="24" height="24"><defs><style type="text/css"></style></defs><path d="M817.1 770.8h-144c-17.2 0-31.2-13.9-31.2-31.2 0-17.2 13.9-31.2 31.2-31.2h144c26.9 0 48.6-21.8 48.7-48.7V280.1c0-26.9-21.8-48.6-48.7-48.7H209c-26.9 0-48.6 21.8-48.7 48.7v379.8c0 26.9 21.8 48.6 48.7 48.7h126.1c17.2 0 31.2 13.9 31.2 31.2S352.4 771 335.1 771H209c-61.2-0.2-110.8-49.8-110.9-111V280.1c0.1-61.2 49.7-110.8 110.9-110.9h608.1c61.2 0.1 110.8 49.7 110.9 110.9v379.8c-0.1 61.2-49.6 110.9-110.9 110.9z m-158.8 83.1H367.9l145.2-186.8 145.2 186.8z m0 0" ></path><path d="M452.2 593.4c-16.9-0.1-30.5-13.9-30.5-30.8V377.9c-0.4-16.8 12.8-30.8 29.7-31.3 16.8-0.4 30.8 12.8 31.3 29.7v186.3c0 16.9-13.7 30.7-30.5 30.8z m-122.1 0c-16.9-0.1-30.5-13.9-30.5-30.8V501c-0.4-16.8 12.8-30.8 29.7-31.3 16.8-0.4 30.8 12.8 31.3 29.7v63.1c0.1 17-13.6 30.8-30.5 30.9z m244 0c-16.9-0.1-30.5-13.9-30.5-30.8v-123c-0.4-16.8 12.8-30.8 29.7-31.3 16.9-0.4 30.8 12.8 31.3 29.7v124.7c0 16.8-13.6 30.6-30.5 30.7z m122 0c-16.9-0.1-30.5-13.9-30.5-30.8v-154c-0.4-16.8 12.8-30.8 29.7-31.3 16.8-0.4 30.8 12.8 31.3 29.7v155.5c0 17-13.6 30.8-30.5 30.9z m0 0" ></path></svg>