<?xml version="1.0" standalone="no"?><!DOCTYPE svg PUBLIC "-//W3C//DTD SVG 1.1//EN" "http://www.w3.org/Graphics/SVG/1.1/DTD/svg11.dtd"><svg t="1613963775976" class="icon" viewBox="0 0 1024 1024" version="1.1" xmlns="http://www.w3.org/2000/svg" xmlns:xlink="http://www.w3.org/1999/xlink" width="24" height="24"><defs><style type="text/css"></style></defs><path d="M751.502 666.738a100.693 100.693 0 1 0 102.4 100.693A100.693 100.693 0 0 0 753.21 666.738m0 149.618a49.493 49.493 0 1 1 49.493-48.925 49.493 49.493 0 0 1-49.493 48.925m266.809-101.832a35.271 35.271 0 0 0-32.996-32.995 56.889 56.889 0 0 1-56.889-56.889 73.387 73.387 0 0 1 4.551-21.618 42.098 42.098 0 0 0-15.36-51.2l-66.56-36.978A43.236 43.236 0 0 0 835.698 512a43.804 43.804 0 0 0-31.858 13.084 88.747 88.747 0 0 1-46.08 26.17 83.058 83.058 0 0 1-45.511-27.307A46.649 46.649 0 0 0 675.84 512a38.116 38.116 0 0 0-15.929 3.413l-67.698 36.978a40.96 40.96 0 0 0-14.222 49.493 64.853 64.853 0 0 1 5.12 21.618 56.889 56.889 0 0 1-56.889 56.89c-15.929 0-28.444 13.084-32.426 32.995a485.262 485.262 0 0 0-5.12 52.906 455.111 455.111 0 0 0 5.12 52.907c3.982 19.911 16.497 32.996 32.995 32.996a56.889 56.889 0 0 1 56.889 56.888 69.404 69.404 0 0 1-4.551 21.618 41.529 41.529 0 0 0 15.36 51.2l65.422 36.41a41.529 41.529 0 0 0 16.498 3.981 47.218 47.218 0 0 0 32.427-13.653 85.902 85.902 0 0 1 46.648-28.444 89.884 89.884 0 0 1 46.65 28.444 43.236 43.236 0 0 0 32.426 14.222 43.804 43.804 0 0 0 18.204-3.982l66.56-36.409a40.391 40.391 0 0 0 14.223-49.493 64.853 64.853 0 0 1-5.12-21.618 56.889 56.889 0 0 1 56.889-56.889 35.271 35.271 0 0 0 32.426-32.995 349.298 349.298 0 0 0 5.69-52.907 307.769 307.769 0 0 0-5.12-53.476m-50.632 87.61a108.658 108.658 0 0 0-93.867 107.52 119.467 119.467 0 0 0 5.69 32.995l-47.787 26.738-19.912-17.067a104.676 104.676 0 0 0-60.302-23.325A100.124 100.124 0 0 0 691.2 952.89a179.2 179.2 0 0 0-19.911 16.498l-45.511-25.6a107.52 107.52 0 0 0 5.689-32.996 108.658 108.658 0 0 0-95.005-108.089A298.667 298.667 0 0 1 533.05 768a296.96 296.96 0 0 1 3.413-35.271 108.658 108.658 0 0 0 95.005-106.951 119.467 119.467 0 0 0-5.69-32.996l49.494-27.306a170.667 170.667 0 0 0 19.342 16.497 104.107 104.107 0 0 0 59.734 21.618 104.107 104.107 0 0 0 56.889-21.618 160.996 160.996 0 0 0 18.773-15.36l47.787 26.17a104.107 104.107 0 0 0-5.69 32.995 108.658 108.658 0 0 0 95.574 106.95 316.302 316.302 0 0 1 0 35.272c0 11.378 0 25.6-3.413 34.702M67.697 950.613v-56.889a376.036 376.036 0 0 1 341.334-372.053h40.391A257.707 257.707 0 0 0 588.8 479.004l16.498-13.084a256.569 256.569 0 0 0 100.124-203.662 261.689 261.689 0 0 0-522.809 0 255.431 255.431 0 0 0 102.4 201.386l15.93 13.085-19.343 7.395A439.182 439.182 0 0 0 0.569 893.156v90.453a34.133 34.133 0 0 0 33.564 33.564h492.09a346.453 346.453 0 0 1-40.392-66.56H67.698m182.613-690.63A193.991 193.991 0 1 1 444.302 455.11a193.422 193.422 0 0 1-193.99-195.129" ></path></svg>