<?xml version="1.0" encoding="UTF-8"?>
<svg width="172px" height="152px" viewBox="0 0 172 152" version="1.1" xmlns="http://www.w3.org/2000/svg" xmlns:xlink="http://www.w3.org/1999/xlink">
    <!-- Generator: Sketch 52.2 (67145) - http://www.bohemiancoding.com/sketch -->
    <title>天气-多云</title>
    <desc>Created with Sketch.</desc>
    <g id="页面-1" stroke="none" stroke-width="1" fill="none" fill-rule="evenodd">
        <g id="三一大屏-工位" transform="translate(-2658.000000, -455.000000)" fill="#E0F2FF">
            <g id="编组-5" transform="translate(2420.000000, 420.000000)">
                <g id="天气-雨" transform="translate(234.000000, 20.000000)">
                    <path d="M144.210839,118.339187 L139.449698,118.337427 L139.449698,118.337427 L35.8601327,118.2983 C18.5672705,118.2983 4.49844107,104.179465 4.49844107,86.8246092 C4.49844107,71.8436251 14.8387062,59.3202721 28.9154439,56.1354663 C28.6867881,54.8754362 28.571691,53.5894701 28.571691,52.2828354 C28.571691,40.4637961 38.1794209,30.8482686 49.9891468,30.8482686 C53.9121023,30.8482686 57.6714225,31.8955077 60.9514608,33.8587529 C69.9404347,21.9623379 83.8098213,14.9948036 98.9457169,14.9948036 C122.600751,14.9948036 142.539961,32.4303394 146.079627,55.4074047 C162.454789,56.5095995 175.439202,70.1892253 175.439202,86.8463673 C175.439202,104.042294 161.450764,118.169921 144.256746,118.338746 C144.241591,118.339187 144.226215,118.339187 144.210839,118.339187 L144.210839,118.339187 Z M139.453212,109.33345 L40.4859696,109.294323 L35.8601327,109.294323 C23.5280749,109.294323 13.4953232,99.2145322 13.4953232,86.8246092 C13.4953232,74.7132017 22.9611588,64.8516945 35.0450152,64.3742406 C36.5731266,64.3137879 37.9659294,63.4806544 38.7426123,62.1623731 C39.5192951,60.8438711 39.5735508,59.2209132 38.8867018,57.8536097 C38.0120519,56.1126097 37.5685776,54.2383913 37.5685776,52.2828399 C37.5685776,45.4285172 43.1404502,39.8522504 49.9891513,39.8522504 C53.3190503,39.8522504 56.446434,41.1538249 58.7951556,43.5173689 C59.7708405,44.4993202 61.1432159,44.9750183 62.5175706,44.8130098 C63.8914844,44.6487997 65.1136164,43.8611723 65.8309963,42.6772033 C72.9188975,30.9814824 85.2981755,23.9987854 98.9457169,23.9987854 C119.297429,23.9987854 136.259053,39.9023666 137.560263,60.2048409 C137.636921,61.400461 138.186707,62.5162879 139.087713,63.3052344 C139.98894,64.0941809 141.168463,64.4918416 142.361166,64.4078705 C142.845711,64.3742361 143.412411,64.3397239 143.942647,64.3397239 C156.348942,64.3397239 166.44232,74.4362258 166.44232,86.8463718 C166.44232,99.1186849 156.462501,109.202437 144.190853,109.33521 L139.453212,109.33345 Z M74.2053887,166.44232 C73.0533199,166.44232 71.9014761,166.002232 71.0228721,165.122057 C69.2669866,163.363027 69.268525,160.512354 71.0261649,158.755525 L82.2911566,147.49308 C84.0490169,145.73581 86.8972273,145.737129 88.6528924,147.496159 C90.4087779,149.25519 90.4072394,152.105863 88.6495995,153.862692 L77.3846079,165.125137 C76.5064447,166.003115 75.3556985,166.44232 74.2053887,166.44232 Z M35.0689514,140.780984 C33.9168826,140.780984 32.7650388,140.340897 31.8864348,139.460722 C30.1305493,137.701691 30.1320877,134.85146 31.8897276,133.09419 L38.9936613,125.991686 C40.7513057,124.234415 43.5995116,124.235734 45.3553971,125.994765 C47.1112826,127.753796 47.1097441,130.604027 45.3521043,132.361297 L38.2481706,139.463801 C37.3700074,140.341779 36.2194772,140.780984 35.0689514,140.780984 Z M97.5972822,140.780984 C96.4452135,140.780984 95.2933696,140.340897 94.4147656,139.460722 C92.6588801,137.701691 92.6604186,134.85146 94.4180585,133.09419 L101.521992,125.991686 C103.279637,124.234415 106.127842,124.235734 107.883728,125.994765 C109.639613,127.753796 109.638075,130.604027 107.880435,132.361297 L100.776501,139.463801 C99.8983383,140.341779 98.747808,140.780984 97.5972822,140.780984 Z M117.840267,152.109379 C116.687982,152.109379 115.535914,151.669291 114.657314,150.78868 C112.901649,149.029649 112.903624,146.178977 114.661489,144.422147 L133.101584,125.991253 C134.859444,124.233983 137.707655,124.235743 139.46332,125.995211 C141.218985,127.754241 141.21701,130.604914 139.459145,132.361743 L121.01905,150.792637 C120.140887,151.67061 118.990577,152.109379 117.840267,152.109379 Z M49.9138069,157.061566 C48.7617382,157.061566 47.6098943,156.621479 46.7312903,155.741304 C44.9754048,153.982274 44.9769433,151.132042 46.7345832,149.374772 L70.1229634,125.99169 C71.8806078,124.23442 74.7288138,124.235739 76.4846993,125.994769 C78.2405848,127.7538 78.2390463,130.604032 76.4814064,132.361302 L53.0930261,155.744383 C52.214863,156.622357 51.0641168,157.061566 49.9138069,157.061566 Z" id="Shape"></path>
                </g>
            </g>
        </g>
    </g>
</svg>