<?xml version="1.0" encoding="UTF-8"?>
<svg width="22px" height="11px" viewBox="0 0 22 11" version="1.1" xmlns="http://www.w3.org/2000/svg" xmlns:xlink="http://www.w3.org/1999/xlink">
    <!-- Generator: Sketch 59 (86127) - https://sketch.com -->
    <title>箭头 向右</title>
    <desc>Created with Sketch.</desc>
    <g id="页面1" stroke="none" stroke-width="1" fill="none" fill-rule="evenodd" opacity="0.5">
        <g id="1-默认地图样式" transform="translate(-949.000000, -892.000000)" fill="#FFFFFF" fill-rule="nonzero">
            <g id="编组-13" transform="translate(866.500000, 882.000000)">
                <g id="编组-10" transform="translate(34.322274, 10.000000)">
                    <g id="箭头-向右" transform="translate(59.000000, 5.500000) scale(-1, 1) translate(-59.000000, -5.500000) translate(48.000000, 0.000000)">
                        <path d="M20.6167493,5.59426812 C20.4767829,5.5941433 20.3425941,5.53844229 20.2436845,5.43940945 L15.7035569,0.89928182 C15.5001237,0.692760295 15.5012761,0.360834276 15.7061384,0.155730332 C15.9110008,-0.0493736123 16.2429252,-0.0509172327 16.4496864,0.152272449 L20.9906939,4.69240008 C21.1422268,4.84340647 21.1876483,5.07093404 21.1057106,5.26854828 C21.023773,5.46616252 20.8306765,5.59479241 20.6167493,5.59426812 L20.6167493,5.59426812 Z" id="路径"></path>
                        <path d="M16.0766216,10.1343941 C15.8632415,10.1342065 15.6709554,10.0055847 15.5893238,9.80843657 C15.5076921,9.61128844 15.5527681,9.38438394 15.7035569,9.23340757 L20.2436845,4.69240008 C20.4499654,4.48611915 20.7844129,4.48611916 20.9906939,4.69240009 C21.1969748,4.89868103 21.1969748,5.2331285 20.9906939,5.43940945 L16.4496864,9.97953708 C16.3507768,10.0785699 16.216588,10.1342709 16.0766216,10.1343941 L16.0766216,10.1343941 Z" id="路径"></path>
                        <path d="M20.6167493,5.59426651 L8.70595319,5.59426651 C8.41439002,5.59426651 8.17803137,5.35790787 8.17803137,5.0663447 C8.17803137,4.77478153 8.41439002,4.53842288 8.70595319,4.53842288 L20.6167493,4.53842288 C20.9083124,4.53842288 21.1446711,4.77478153 21.1446711,5.0663447 C21.1446711,5.35790787 20.9083124,5.59426651 20.6167493,5.59426651 Z" id="路径"></path>
                        <path d="M12.4956765,5.59426651 L0.584880417,5.59426651 C0.293317248,5.59426651 0.0569585995,5.35790787 0.0569585995,5.0663447 C0.0569585995,4.77478153 0.293317248,4.53842288 0.584880417,4.53842288 L12.4956765,4.53842288 C12.7872397,4.53842288 13.0235983,4.77478153 13.0235983,5.0663447 C13.0235983,5.35790787 12.7872397,5.59426651 12.4956765,5.59426651 Z" id="路径备份-2"></path>
                    </g>
                </g>
            </g>
        </g>
    </g>
</svg>