<?xml version="1.0" encoding="UTF-8"?>
<svg width="76px" height="76px" viewBox="0 0 76 76" version="1.1" xmlns="http://www.w3.org/2000/svg" xmlns:xlink="http://www.w3.org/1999/xlink">
    <!-- Generator: Sketch 58 (84663) - https://sketch.com -->
    <title>注销按钮</title>
    <desc>Created with Sketch.</desc>
    <g id="页面1" stroke="none" stroke-width="1" fill="none" fill-rule="evenodd">
        <g id="3.3主界面-快速预定-按下状态" transform="translate(-410.000000, -988.000000)">
            <g id="注销按钮" transform="translate(410.000000, 988.000000)">
                <circle id="椭圆形" fill="#FFFFFF" opacity="0.164202009" cx="38" cy="38" r="38"></circle>
                <g id="注销" opacity="0.395298549" transform="translate(20.000000, 18.000000)" fill="#FEFEFE" stroke-width="1">
                    <g id="编组">
                        <path d="M14.0998162,35.3677486 L6.27628676,35.3677486 C5.15863971,35.3677486 4.48805147,34.7047652 4.48805147,33.5997928 L4.48805147,6.1964779 C4.48805147,5.09150552 5.15863971,4.4285221 6.27628676,4.4285221 L14.3233456,4.4285221 C15.6645221,4.4285221 16.5586397,3.5445442 16.5586397,2.21857735 C16.5586397,0.892610497 15.6645221,0.00863259669 14.3233456,0.00863259669 L6.27628676,0.00863259669 C2.69981618,0.00863259669 0.0174632353,2.6605663 0.0174632353,6.1964779 L0.0174632353,33.5997928 C0.0174632353,37.1357044 2.69981618,39.7876381 6.27628676,39.7876381 L14.3233456,39.7876381 C15.6645221,39.7876381 16.5586397,38.9036602 16.5586397,37.5776934 C16.5586397,36.2517265 15.4409926,35.3677486 14.0998162,35.3677486" id="路径" fill-rule="nonzero"></path>
                        <path d="M37.7939338,20.7821133 C38.0174632,20.3401243 38.0174632,19.6771409 37.7939338,19.0141575 C37.5704044,18.793163 37.5704044,18.5721685 37.346875,18.351174 L27.5115809,8.62741713 C26.6174632,7.74343923 25.2762868,7.74343923 24.3821691,8.62741713 C23.4880515,9.51139503 23.4880515,10.8373619 24.3821691,11.7213398 L30.4174632,17.6881906 L15.6645221,17.6881906 C14.3233456,17.6881906 13.4292279,18.5721685 13.4292279,19.8981354 C13.4292279,21.2241022 14.3233456,22.1080801 15.6645221,22.1080801 L30.4174632,22.1080801 L24.3821691,28.0749309 C23.4880515,28.9589088 23.4880515,30.2848757 24.3821691,31.1688536 C24.8292279,31.6108425 25.4998162,31.831837 25.946875,31.831837 C26.6174632,31.831837 27.0645221,31.6108425 27.5115809,31.1688536 L37.346875,21.4450967 C37.5704044,21.2241022 37.7939338,21.0031077 37.7939338,20.7821133" id="路径" fill-rule="nonzero"></path>
                    </g>
                </g>
            </g>
        </g>
    </g>
</svg>