<?xml version="1.0" encoding="UTF-8"?>
<svg width="601px" height="600px" viewBox="0 0 601 600" version="1.1" xmlns="http://www.w3.org/2000/svg" xmlns:xlink="http://www.w3.org/1999/xlink">
    <!-- Generator: Sketch 62 (91390) - https://sketch.com -->
    <title>编组 3</title>
    <desc>Created with Sketch.</desc>
    <g id="组件" stroke="none" stroke-width="1" fill="none" fill-rule="evenodd">
        <g id="编组-3" transform="translate(7.500000, 7.000000)">
            <rect id="矩形" fill="#A7A7A7" transform="translate(361.500000, 45.500000) rotate(-345.000000) translate(-361.500000, -45.500000) " x="360.5" y="28" width="2" height="35" rx="1"></rect>
            <rect id="矩形备份-2" fill="#A7A7A7" transform="translate(228.500000, 542.500000) rotate(-345.000000) translate(-228.500000, -542.500000) " x="227.5" y="525" width="2" height="35" rx="1"></rect>
            <rect id="矩形" fill="#A7A7A7" transform="translate(476.840689, 112.042687) rotate(-675.000000) translate(-476.840689, -112.042687) " x="475.840689" y="94.5426872" width="2" height="35" rx="1"></rect>
            <rect id="矩形备份-2" fill="#A7A7A7" transform="translate(113.159311, 475.957313) rotate(-675.000000) translate(-113.159311, -475.957313) " x="112.159311" y="458.457313" width="2" height="35" rx="1"></rect>
            <rect id="矩形" fill="#A7A7A7" transform="translate(543.457313, 227.340689) rotate(-645.000000) translate(-543.457313, -227.340689) " x="542.457313" y="209.840689" width="2" height="35" rx="1"></rect>
            <rect id="矩形备份-2" fill="#A7A7A7" transform="translate(46.542687, 360.659311) rotate(-645.000000) translate(-46.542687, -360.659311) " x="45.5426872" y="343.159311" width="2" height="35" rx="1"></rect>
            <rect id="矩形" fill="#A7A7A7" transform="translate(543.500000, 360.500000) rotate(-615.000000) translate(-543.500000, -360.500000) " x="542.5" y="343" width="2" height="35" rx="1"></rect>
            <rect id="矩形备份-2" fill="#A7A7A7" transform="translate(46.500000, 227.500000) rotate(-615.000000) translate(-46.500000, -227.500000) " x="45.5" y="210" width="2" height="35" rx="1"></rect>
            <rect id="矩形" fill="#A7A7A7" transform="translate(476.957313, 475.840689) rotate(-585.000000) translate(-476.957313, -475.840689) " x="475.957313" y="458.340689" width="2" height="35" rx="1"></rect>
            <rect id="矩形备份-2" fill="#A7A7A7" transform="translate(113.042687, 112.159311) rotate(-585.000000) translate(-113.042687, -112.159311) " x="112.042687" y="94.6593106" width="2" height="35" rx="1"></rect>
            <rect id="矩形" fill="#A7A7A7" transform="translate(361.659311, 542.457313) rotate(-555.000000) translate(-361.659311, -542.457313) " x="360.659311" y="524.957313" width="2" height="35" rx="1"></rect>
            <rect id="矩形备份-2" fill="#A7A7A7" transform="translate(228.340689, 45.542687) rotate(-555.000000) translate(-228.340689, -45.542687) " x="227.340689" y="28.0426872" width="2" height="35" rx="1"></rect>
            <rect id="矩形" fill="#D8D8D8" x="292.5" y="18" width="4" height="47" rx="2"></rect>
            <rect id="矩形备份" fill="#D8D8D8" x="293.5" y="523" width="4" height="47" rx="2"></rect>
            <rect id="矩形" fill="#D8D8D8" transform="translate(420.816987, 75.078586) rotate(-330.000000) translate(-420.816987, -75.078586) " x="418.816987" y="51.5785855" width="4" height="47" rx="2"></rect>
            <rect id="矩形备份" fill="#D8D8D8" transform="translate(169.183013, 512.921414) rotate(-330.000000) translate(-169.183013, -512.921414) " x="167.183013" y="489.421414" width="4" height="47" rx="2"></rect>
            <rect id="矩形" fill="#D8D8D8" transform="translate(420.816987, 75.078586) rotate(-330.000000) translate(-420.816987, -75.078586) " x="418.816987" y="51.5785855" width="4" height="47" rx="2"></rect>
            <rect id="矩形备份" fill="#D8D8D8" transform="translate(169.183013, 512.921414) rotate(-330.000000) translate(-169.183013, -512.921414) " x="167.183013" y="489.421414" width="4" height="47" rx="2"></rect>
            <rect id="矩形" fill="#D8D8D8" transform="translate(76.578586, 420.683013) rotate(-120.000000) translate(-76.578586, -420.683013) " x="74.5785855" y="397.183013" width="4" height="47" rx="2"></rect>
            <rect id="矩形备份" fill="#D8D8D8" transform="translate(513.421414, 167.316987) rotate(-120.000000) translate(-513.421414, -167.316987) " x="511.421414" y="143.816987" width="4" height="47" rx="2"></rect>
            <rect id="矩形" fill="#D8D8D8" transform="translate(42.500000, 294.500000) rotate(-90.000000) translate(-42.500000, -294.500000) " x="40.5" y="271" width="4" height="47" rx="2"></rect>
            <rect id="矩形备份" fill="#D8D8D8" transform="translate(547.500000, 293.500000) rotate(-90.000000) translate(-547.500000, -293.500000) " x="545.5" y="270" width="4" height="47" rx="2"></rect>
            <rect id="矩形" fill="#D8D8D8" transform="translate(76.078586, 168.183013) rotate(-60.000000) translate(-76.078586, -168.183013) " x="74.0785855" y="144.683013" width="4" height="47" rx="2"></rect>
            <rect id="矩形备份" fill="#D8D8D8" transform="translate(513.921414, 419.816987) rotate(-60.000000) translate(-513.921414, -419.816987) " x="511.921414" y="396.316987" width="4" height="47" rx="2"></rect>
            <rect id="矩形" fill="#D8D8D8" transform="translate(168.316987, 75.578586) rotate(-30.000000) translate(-168.316987, -75.578586) " x="166.316987" y="52.0785855" width="4" height="47" rx="2"></rect>
            <rect id="矩形备份" fill="#D8D8D8" transform="translate(421.683013, 512.421414) rotate(-30.000000) translate(-421.683013, -512.421414) " x="419.683013" y="488.921414" width="4" height="47" rx="2"></rect>
            <text id="12" font-family="PingFangSC-Medium, PingFang SC" font-size="30" font-weight="400" fill="#B3B3B3">
                <tspan x="279.38" y="99">12</tspan>
            </text>
            <text id="1" font-family="PingFangSC-Medium, PingFang SC" font-size="30" font-weight="400" fill="#B3B3B3">
                <tspan x="395.88" y="131">1</tspan>
            </text>
            <text id="2" font-family="PingFangSC-Medium, PingFang SC" font-size="30" font-weight="400" fill="#B3B3B3">
                <tspan x="460" y="200">2</tspan>
            </text>
            <text id="3" font-family="PingFangSC-Medium, PingFang SC" font-size="30" font-weight="400" fill="#B3B3B3">
                <tspan x="496" y="305">3</tspan>
            </text>
            <text id="4" font-family="PingFangSC-Medium, PingFang SC" font-size="30" font-weight="400" fill="#B3B3B3">
                <tspan x="469" y="409">4</tspan>
            </text>
            <text id="5" font-family="PingFangSC-Medium, PingFang SC" font-size="30" font-weight="400" fill="#B3B3B3">
                <tspan x="394" y="485">5</tspan>
            </text>
            <text id="6" font-family="PingFangSC-Medium, PingFang SC" font-size="30" font-weight="400" fill="#B3B3B3">
                <tspan x="285.5" y="516">6</tspan>
            </text>
            <text id="10" font-family="PingFangSC-Medium, PingFang SC" font-size="30" font-weight="400" fill="#B3B3B3">
                <tspan x="96.88" y="200">10</tspan>
            </text>
            <text id="11" font-family="PingFangSC-Medium, PingFang SC" font-size="30" font-weight="400" fill="#B3B3B3">
                <tspan x="172.76" y="131">11</tspan>
            </text>
            <text id="9" font-family="PingFangSC-Medium, PingFang SC" font-size="30" font-weight="400" fill="#B3B3B3">
                <tspan x="76" y="305">9</tspan>
            </text>
            <text id="8" font-family="PingFangSC-Medium, PingFang SC" font-size="30" font-weight="400" fill="#B3B3B3">
                <tspan x="102" y="409">8</tspan>
            </text>
            <text id="7" font-family="PingFangSC-Medium, PingFang SC" font-size="30" font-weight="400" fill="#B3B3B3">
                <tspan x="176.735" y="485">7</tspan>
            </text>
            <circle id="椭圆形" stroke="#0F1522" stroke-width="14" cx="293" cy="293" r="293"></circle>
        </g>
    </g>
</svg>