<?xml version="1.0" encoding="UTF-8"?>
<svg width="58px" height="67px" viewBox="0 0 58 67" version="1.1" xmlns="http://www.w3.org/2000/svg" xmlns:xlink="http://www.w3.org/1999/xlink">
    <!-- Generator: Sketch 58 (84663) - https://sketch.com -->
    <title>关闭</title>
    <desc>Created with Sketch.</desc>
    <g id="页面1" stroke="none" stroke-width="1" fill="none" fill-rule="evenodd">
        <g id="5.2快速预定-按钮弹出-选中" transform="translate(-102.000000, -1039.000000)" fill-rule="nonzero">
            <g id="关闭-copy" transform="translate(102.000000, 1032.000000)">
                <rect id="矩形" fill="#000000" opacity="0" x="46.25" y="0" width="27.75" height="30.6206897"></rect>
                <path d="M33.3820823,40.8275862 L56.9213477,13.8029913 C58.1095508,12.4388575 58.1095508,10.1898803 56.9213477,8.82574662 L56.7928933,8.6782727 C55.6046903,7.31413898 53.645761,7.31413898 52.457558,8.6782727 L28.9182926,35.7397361 L5.37902722,8.6782727 C4.19082419,7.31413898 2.23189488,7.31413898 1.04369185,8.6782727 L0.915237467,8.82574662 C-0.305079156,10.1898803 -0.305079156,12.4388575 0.915237467,13.8029913 L24.4545028,40.8275862 L0.915237467,67.8521812 C-0.27296556,69.2163149 -0.27296556,71.4652921 0.915237467,72.8294258 L1.04369185,72.9768997 C2.23189488,74.3410334 4.19082419,74.3410334 5.37902722,72.9768997 L28.9182926,45.9523048 L52.457558,72.9768997 C53.645761,74.3410334 55.6046903,74.3410334 56.7928933,72.9768997 L56.9213477,72.8294258 C58.1095508,71.4652921 58.1095508,69.2163149 56.9213477,67.8521812 L33.3820823,40.8275862 Z" id="路径" fill="#FFFFFF" opacity="0.797154018"></path>
            </g>
        </g>
    </g>
</svg>