<?xml version="1.0" encoding="UTF-8"?>
<svg width="25px" height="32px" viewBox="0 0 25 32" version="1.1" xmlns="http://www.w3.org/2000/svg" xmlns:xlink="http://www.w3.org/1999/xlink">
    <!-- Generator: Sketch 53.1 (72631) - https://sketchapp.com -->
    <title>定位</title>
    <desc>Created with Sketch.</desc>
    <g id="darksvg" stroke="none" stroke-width="1" fill="none" fill-rule="evenodd">
        <g id="定制1-2.1" transform="translate(-142.000000, -224.000000)" fill-rule="nonzero">
            <g id="Group-8" transform="translate(84.000000, 130.000000)">
                <g id="Group-7" transform="translate(55.000000, 94.000000)">
                    <g id="Group-2">
                        <g id="Group">
                            <g id="定位">
                                <rect id="Rectangle" fill="#000000" opacity="0" x="0" y="0" width="31" height="32"></rect>
                                <path d="M15.5049492,10.0000037 C17.1730704,10.0024315 18.6076312,11.1818417 18.9326016,12.8180146 C19.257572,14.4541876 18.3826189,16.0923103 16.8420417,16.7320456 C15.3014644,17.3717808 13.5235032,16.835299 12.593889,15.4502085 C11.6642748,14.0651179 11.841416,12.2164375 13.0171395,11.0330837 C13.6753621,10.3705893 14.5710603,9.99864451 15.5049492,10.0000037 M15.4918832,8.00005901 C12.8683589,8.00403743 10.6129213,9.86055023 10.1047128,12.4343873 C9.59650426,15.0082244 10.9770418,17.5826687 13.402162,18.5835133 C15.8272822,19.5843579 18.62168,18.7329052 20.0766527,16.5497967 C21.5316254,14.3666882 21.2420176,11.4598378 19.384917,9.60671012 C18.3544091,8.57194905 16.9522352,7.99327331 15.4918832,8.00005901 L15.4918832,8.00005901 Z" id="Shape" fill="#FFFFFF"></path>
                                <path d="M24.3423119,3.8848419 C22.0251326,1.4020144 18.8339992,-5.553148e-16 15.5,0 C12.1660008,5.55316494e-16 8.97486743,1.4020144 6.65768815,3.8848419 C1.78077062,9.10910261 1.78077062,17.3973608 6.65768815,22.6216215 L15.5,32.0000096 L24.3423119,22.6216215 C29.2192294,17.3973608 29.2192294,9.10910261 24.3423119,3.8848419 Z M23.0101732,21.3018484 L15.5,29.3004736 L7.98982682,21.3018484 C3.8433468,16.8729368 3.8433468,9.83349224 7.98982682,5.40458071 C9.96052393,3.30078322 12.6699207,2.11347068 15.5,2.11347068 C18.3300793,2.11347068 21.0394761,3.30078322 23.0101732,5.40458071 C27.1566532,9.83349224 27.1566532,16.8729368 23.0101732,21.3018484 L23.0101732,21.3018484 Z" id="Shape" fill="#FFFFFF"></path>
                            </g>
                        </g>
                    </g>
                </g>
            </g>
        </g>
    </g>
</svg>