<?xml version="1.0" encoding="UTF-8"?>
<svg width="27px" height="63px" viewBox="0 0 27 63" version="1.1" xmlns="http://www.w3.org/2000/svg" xmlns:xlink="http://www.w3.org/1999/xlink">
    <!-- Generator: Sketch 53.1 (72631) - https://sketchapp.com -->
    <title>Group 6</title>
    <desc>Created with Sketch.</desc>
    <g id="暗黑模式" stroke="none" stroke-width="1" fill="none" fill-rule="evenodd">
        <g id="定制1-2.1" transform="translate(-517.000000, -284.000000)" fill="#E0F2FF" fill-rule="nonzero">
            <g id="Group-8" transform="translate(84.000000, 130.000000)">
                <g id="Group-7" transform="translate(55.000000, 94.000000)">
                    <g id="Group-2">
                        <g id="Group">
                            <g id="Group-6" transform="translate(378.000000, 60.000000)">
                                <path d="M13.5,10 C15.9883081,10 18,7.75790922 18,5 C18,2.2352132 15.9821183,0 13.5,0 C11.0116919,0 9,2.24209078 9,5 C9,7.75790922 11.0116919,10 13.5,10 Z" id="Shape-Copy"></path>
                                <path d="M26.9042886,32.225392 L23.1089305,18.3696552 C21.5946866,12.8300894 17.1754341,13.0074646 17.1754341,13.0074646 L9.83167613,13.0074646 L9.83167613,13.0006425 L9.82517723,13.0006425 C9.82517723,13.0006425 5.40592466,12.8232672 3.89168077,18.3628331 L0.0963226778,32.2117478 C-0.261116868,33.5079516 0.414768819,34.4971598 1.48708746,34.8177997 C2.565905,35.1452617 3.66421924,34.5722032 3.95017087,33.5352401 L7.63504765,20.0274317 L8.64237728,20.0274317 L2.25395776,43.4136778 L8.27193993,43.4136778 L8.27843883,43.4204999 L8.27843883,60.5849676 C8.27843883,61.8879935 9.34425857,62.9863557 10.6440387,62.9863557 C11.7943442,62.9931779 13.0031397,61.7720174 13.0031397,60.4621693 L13.0031397,43.4136778 L13.971476,43.4136778 L13.971476,60.4758136 C13.971476,61.7788395 15.1802715,63 16.330577,63 C17.6303571,62.9931779 18.6961769,61.9016378 18.6961769,60.5986118 L18.6961769,43.4341442 L18.7026758,43.4273221 L24.7206579,43.4273221 L18.3452362,20.041076 L19.3525659,20.041076 L23.0374426,33.5488844 C23.3168954,34.5858475 24.4217085,35.158906 25.5005261,34.831444 C26.5793436,34.5108041 27.2617282,33.5215959 26.9042886,32.225392 Z" id="Shape"></path>
                            </g>
                        </g>
                    </g>
                </g>
            </g>
        </g>
    </g>
</svg>