<?xml version="1.0" encoding="UTF-8"?>
<svg width="28px" height="62px" viewBox="0 0 28 62" version="1.1" xmlns="http://www.w3.org/2000/svg" xmlns:xlink="http://www.w3.org/1999/xlink">
    <title>Group 6</title>
    <g id="纯净模式" stroke="none" stroke-width="1" fill="none" fill-rule="evenodd">
        <g id="定制1-2" transform="translate(-538.000000, -869.000000)" fill-rule="nonzero">
            <g id="Group-4-Copy-2" transform="translate(208.000000, 869.000000)">
                <g id="Group-6" transform="translate(330.000000, 0.000000)">
                    <path d="M14.4827586,9.53846154 C17.1522079,9.53846154 19.3103448,7.39985187 19.3103448,4.76923077 C19.3103448,2.13204952 17.1455675,0 14.4827586,0 C11.8133093,0 9.65517241,2.13860967 9.65517241,4.76923077 C9.65517241,7.39985187 11.8133093,9.53846154 14.4827586,9.53846154 Z" id="Shape-Copy" fill="#000000"></path>
                    <path d="M27.9007438,31.4715889 L23.9648169,17.726698 C22.3944899,12.2314486 17.8115613,12.4074049 17.8115613,12.4074049 L10.1958123,12.4074049 L10.1958123,12.4006374 L10.1890727,12.4006374 C10.1890727,12.4006374 5.60614409,12.2246811 4.03581709,17.7199304 L0.0998901844,31.4580538 C-0.270787863,32.743888 0.430130627,33.7251825 1.54216477,34.0432573 C2.66093851,34.3680997 3.79993106,33.7996256 4.0964735,32.7709582 L7.91782719,19.3712123 L8.96246533,19.3712123 L2.33743767,42.5703684 L8.57830808,42.5703684 L8.58504768,42.5771359 L8.58504768,59.6042878 C8.58504768,60.8968896 9.69034222,61.9864649 11.0382624,61.9864649 C12.2311717,61.9932325 13.4847375,60.7818413 13.4847375,59.482472 L13.4847375,42.5703684 L14.488938,42.5703684 L14.488938,59.4960071 C14.488938,60.7886088 15.7425038,62 16.9354132,62 C18.2833333,61.9932325 19.3886279,60.9104247 19.3886279,59.6178229 L19.3886279,42.590671 L19.3953675,42.5839035 L25.6362379,42.5839035 L19.0246894,19.3847474 L20.0693276,19.3847474 L23.8906812,32.7844933 C24.1804841,33.8131607 25.3262162,34.3816347 26.44499,34.0567924 C27.5637637,33.7387176 28.2714218,32.7574231 27.9007438,31.4715889 Z" id="Shape" fill="#424242"></path>
                </g>
            </g>
        </g>
    </g>
</svg>