<?xml version="1.0" encoding="UTF-8"?>
<svg width="31px" height="31px" viewBox="0 0 31 31" version="1.1" xmlns="http://www.w3.org/2000/svg" xmlns:xlink="http://www.w3.org/1999/xlink">
    <title>定位 copy备份</title>
    <g id="纯净模式" stroke="none" stroke-width="1" fill="none" fill-rule="evenodd">
        <g id="定制1.2-2" transform="translate(-277.000000, -763.000000)" fill="#424242" fill-rule="nonzero">
            <g id="定位-copy备份" transform="translate(277.000000, 763.000000)">
                <rect id="Rectangle" opacity="0" x="0" y="0" width="31" height="31"></rect>
                <path d="M14.9926211,9.87264693 C16.4742046,9.87480653 17.7483456,10.9223184 18.0369762,12.3755116 C18.3256068,13.8287047 17.5484953,15.2836295 16.1801931,15.8518205 C14.8118909,16.4200116 13.2327502,15.9435267 12.4070902,14.7133364 C11.5814301,13.4831462 11.7387625,11.8412112 12.7830107,10.7901967 C13.3676275,10.2017917 14.1631643,9.87144303 14.9926211,9.87264693 M14.9926211,8.00005272 C12.607599,8.00372309 10.5572012,9.6914531 10.0951935,12.0312927 C9.63318569,14.3711322 10.8882198,16.7115238 13.0928745,17.6213777 C15.2975292,18.5312317 17.8378909,17.7571878 19.1605934,15.7725542 C20.4832958,13.7879206 20.220016,11.1453432 18.5317428,9.46069059 C17.5949174,8.52000367 16.3202138,7.99393758 14.9926211,8.00005272 L14.9926211,8.00005272 Z" id="Shape"></path>
                <path d="M24.3423119,3.76344059 C22.0251326,1.35820145 18.8339992,0 15.5,0 C12.1660008,0 8.97486743,1.35820145 6.65768815,3.76344059 C1.78077062,8.82444315 1.78077062,16.8536933 6.65768815,21.9146959 L15.5,31 L24.3423119,21.9146959 C29.2192294,16.8536933 29.2192294,8.82444315 24.3423119,3.76344059 Z M23.0101732,20.6361656 L15.5,28.3848338 L7.98982682,20.6361656 C3.8433468,16.3456576 3.8433468,9.52619561 7.98982682,5.23568757 C9.96052393,3.19763374 12.6699207,2.04742472 15.5,2.04742472 C18.3300793,2.04742472 21.0394761,3.19763374 23.0101732,5.23568757 C27.1566532,9.52619561 27.1566532,16.3456576 23.0101732,20.6361656 L23.0101732,20.6361656 Z" id="Shape"></path>
            </g>
        </g>
    </g>
</svg>