<?xml version="1.0" encoding="UTF-8"?>
<svg width="25px" height="63px" viewBox="0 0 25 63" version="1.1" xmlns="http://www.w3.org/2000/svg" xmlns:xlink="http://www.w3.org/1999/xlink">
    <!-- Generator: Sketch 53.1 (72631) - https://sketchapp.com -->
    <title>Shape</title>
    <desc>Created with Sketch.</desc>
    <g id="暗黑模式" stroke="none" stroke-width="1" fill="none" fill-rule="evenodd">
        <g id="定制1-2.1" transform="translate(-186.000000, -284.000000)" fill="#E0F2FF" fill-rule="nonzero">
            <g id="Group-8" transform="translate(84.000000, 130.000000)">
                <g id="Group-7" transform="translate(55.000000, 94.000000)">
                    <g id="Group-2">
                        <g id="Group">
                            <path d="M59,70 C61.7647868,70 64,67.7579092 64,65 C64,62.2352132 61.7579092,60 59,60 C56.2352132,60 54,62.2420908 54,65 C54,67.7579092 56.2352132,70 59,70 Z M65.283046,73 L53.716954,73 C50.0244253,73 47,75.88063 47,79.4382426 L47,95.0157502 C47,96.2315557 47.9913793,97.2193976 49.2557471,97.2193976 C50.5201149,97.2193976 51.5474138,96.2315557 51.5474138,95.0157502 L51.5474138,80.9787234 L52.7255747,80.9787234 L52.7255747,120.05029 C52.7255747,121.680575 54.1048851,123 55.8002874,123 C57.4956897,123 58.8678161,121.680575 58.8678161,120.05029 L58.8678161,97.3644653 L60.125,97.3644653 L60.125,120.05029 C60.125,121.680575 61.4971264,123 63.1925287,123 C64.887931,123 66.2744253,121.680575 66.2744253,120.05029 L66.2744253,80.9787234 L67.4525862,80.9787234 L67.4525862,95.0157502 C67.4525862,96.2315557 68.4798851,97.2193976 69.7442529,97.2193976 C71.0086207,97.2193976 72,96.2315557 72,95.0157502 L72,79.4382426 C72,75.88063 68.9827586,73 65.283046,73 L65.283046,73 Z" id="Shape"></path>
                        </g>
                    </g>
                </g>
            </g>
        </g>
    </g>
</svg>