<?xml version="1.0" encoding="UTF-8"?>
<svg width="25px" height="62px" viewBox="0 0 25 62" version="1.1" xmlns="http://www.w3.org/2000/svg" xmlns:xlink="http://www.w3.org/1999/xlink">
    <title>Shape</title>
    <g id="纯净模式" stroke="none" stroke-width="1" fill="none" fill-rule="evenodd">
        <g id="定制1-2" transform="translate(-208.000000, -660.000000)" fill="#424242" fill-rule="nonzero">
            <g id="Group-4-Copy-2" transform="translate(208.000000, 660.000000)">
                <path d="M12.5,9.53846154 C15.1584488,9.53846154 17.3076923,7.39985187 17.3076923,4.76923077 C17.3076923,2.13204952 15.1518358,0 12.5,0 C9.84155116,0 7.69230769,2.13860967 7.69230769,4.76923077 C7.69230769,7.39985187 9.84155116,9.53846154 12.5,9.53846154 Z M6.71695402,12.4 C3.02442529,12.4 0,15.257585 0,18.7867367 L0,34.2396242 C0,35.4457032 0.99137931,36.4256424 2.25574713,36.4256424 C3.52011494,36.4256424 4.54741379,35.4457032 4.54741379,34.2396242 L4.54741379,20.3148936 L5.72557471,20.3148936 L5.72557471,59.0738878 C5.72557471,60.6911301 7.10488506,62 8.80028736,62 C10.4956897,62 11.8678161,60.6911301 11.8678161,59.0738878 L11.8678161,36.5695496 L13.125,36.5695496 L13.125,59.0738878 C13.125,60.6911301 14.4971264,62 16.1925287,62 C17.887931,62 19.2744253,60.6911301 19.2744253,59.0738878 L19.2744253,20.3148936 L20.4525862,20.3148936 L20.4525862,34.2396242 C20.4525862,35.4457032 21.4798851,36.4256424 22.7442529,36.4256424 C24.0086207,36.4256424 25,35.4457032 25,34.2396242 L25,18.7867367 C25,15.257585 21.9827586,12.4 18.283046,12.4 L6.71695402,12.4 Z" id="Shape"></path>
            </g>
        </g>
    </g>
</svg>
