<?xml version="1.0" encoding="UTF-8"?>
<svg width="42px" height="40px" viewBox="0 0 42 40" version="1.1" xmlns="http://www.w3.org/2000/svg" xmlns:xlink="http://www.w3.org/1999/xlink">
    <!-- Generator: Sketch 53.1 (72631) - https://sketchapp.com -->
    <title>Group Copy</title>
    <desc>Created with Sketch.</desc>
    <g id="页面-1" stroke="none" stroke-width="1" fill="none" fill-rule="evenodd">
        <g id="大屏-厕位系统" transform="translate(-1978.000000, -1726.000000)" fill="#5ABA88" fill-rule="nonzero">
            <g id="刷新" transform="translate(1948.000000, 1696.000000)">
                <g id="Group-Copy" transform="translate(30.000000, 30.000000)">
                    <path d="M41.0638649,7.42919148 C40.3981009,7.25676053 39.7181716,7.65288569 39.5434676,8.31464772 L38.6652256,11.6607402 C37.39508,8.92048619 35.5488832,6.54373525 33.1785742,4.60505213 C29.0140075,1.19371548 23.7539992,-0.409426335 18.3665042,0.0892253337 C12.9790092,0.587877002 8.11090459,3.12307801 4.65459753,7.23811935 C-2.47521621,15.7291786 -1.28061828,28.3585807 7.32237552,35.3956276 C10.9911605,38.3968582 15.509857,40 20.2174228,40 C20.8548564,40 21.4970118,39.9720382 22.1391673,39.9114544 C27.5266623,39.4128027 32.3994886,36.8776017 35.8510739,32.7625604 C36.9181851,31.4949599 37.8200358,30.1061917 38.5330171,28.6335381 C38.9060339,27.8692496 38.5755127,26.946511 37.8011488,26.5830079 C37.026785,26.2148445 36.0918822,26.5410652 35.7235872,27.3053538 C35.1192057,28.5496528 34.3542852,29.7287077 33.4524346,30.8005758 C30.5296832,34.2818168 26.407612,36.4302133 21.8511417,36.8496399 C17.2899496,37.2737269 12.8373573,35.9129204 9.31494598,33.0281972 C2.03403685,27.072339 1.0188647,16.3862803 7.05323686,9.20010395 C9.97598832,5.71886286 14.0980594,3.57046642 18.6545298,3.15103978 C23.2157219,2.73161315 27.6683142,4.08775927 31.1907255,6.97248248 C33.1549656,8.58028459 34.6942499,10.5376089 35.7613611,12.7885318 L32.9660963,11.2925768 C32.3617148,10.9710164 31.6015161,11.1900503 31.2757167,11.7865682 C30.9451955,12.3830861 31.1718386,13.1333937 31.7762201,13.4549542 L38.1788873,16.8802717 C38.3677565,16.9827982 38.570791,17.0294012 38.7738254,17.0294012 C39.2176681,17.0294012 39.6473456,16.7963864 39.869267,16.3862803 C39.8739887,16.38162 39.8739887,16.3769597 39.8787105,16.3722994 C39.9967537,16.2371509 40.0864666,16.0740405 40.1384057,15.8876287 L41.9609938,8.92980678 C42.1309761,8.27270505 41.729629,7.60162243 41.0638649,7.42919148 L41.0638649,7.42919148 Z M38.208905,13.9675867 L38.158905,14.1675867 L38.008905,14.0675867 C38.0922383,14.0475867 38.1422383,14.0075867 38.208905,13.9675867 L38.208905,13.9675867 Z" id="Shape"></path>
                </g>
            </g>
        </g>
    </g>
</svg>