<?xml version="1.0" encoding="UTF-8"?>
<svg width="39px" height="45px" viewBox="0 0 39 45" version="1.1" xmlns="http://www.w3.org/2000/svg" xmlns:xlink="http://www.w3.org/1999/xlink">
    <title>厕所 copy备份</title>
    <g id="纯净模式" stroke="none" stroke-width="1" fill="none" fill-rule="evenodd">
        <g id="定制1.2-2" transform="translate(-495.000000, -548.000000)">
            <g id="编组-7" transform="translate(277.000000, 478.000000)">
                <g id="厕所-copy备份" transform="translate(218.000000, 70.000000)">
                    <path d="M2,0 L13,0 C14.1045695,-2.02906125e-16 15,0.8954305 15,2 L15,23 L15,23 L0,23 L0,2 C-1.3527075e-16,0.8954305 0.8954305,2.02906125e-16 2,0 Z" id="Rectangle" fill="#71C38F"></path>
                    <path d="M13.6122,24 L24.9882469,24 C25.7654062,24.000032 26.3954184,24.6300441 26.3954184,25.4072035 C26.3954184,25.5612487 26.3701241,25.7142487 26.3205452,25.8600974 C26.3205452,25.8600974 26.3205452,25.8600974 26.3205452,25.8600974 C26.1103285,26.4785011 26.0312813,27.1173544 26.0834035,27.7766576 C28.7383829,28.3673266 30.5132107,28.8854301 31.4078869,29.3309681 C34.5092622,30.8754158 36.2417122,32.6392859 36.8148011,34 C37.6049337,35.8760522 38,39.2093855 38,44 L0.981691142,44 C0.362432513,44 0.0528031979,43.7228071 0.0528031979,43.1684213 C0.0528031979,42.3368427 -0.0660039973,40.941654 0.0528031979,39.8309888 C0.798804855,32.857017 4.93489549,29.6558837 7.76033797,28.6448291 C9.01622319,28.1954239 10.6708235,27.6754238 12.2026956,27.6754238 C12.5597645,27.6754238 12.4285472,26.6358726 12.2026956,25.9356618 C12.2026956,25.9356618 12.2026956,25.9356618 12.2026956,25.9356618 C11.9516087,25.157214 12.3791193,24.3226112 13.1575671,24.0715244 C13.3044595,24.0241445 13.4578555,24.0000177 13.6122,24 Z" id="Rectangle-Copy-3" fill="#71C38F" transform="translate(19.000000, 34.000000) rotate(-180.000000) translate(-19.000000, -34.000000) "></path>
                    <rect id="Rectangle" fill="#D8D8D8" x="6" y="5" width="3" height="7" rx="1.5"></rect>
                    <line x1="17" y1="21" x2="35.3666667" y2="13.6666667" id="Line-3" stroke="#71C38F" stroke-width="2" stroke-linecap="round"></line>
                </g>
            </g>
        </g>
    </g>
</svg>