<?xml version="1.0" encoding="UTF-8"?>
<svg width="39px" height="45px" viewBox="0 0 39 45" version="1.1" xmlns="http://www.w3.org/2000/svg" xmlns:xlink="http://www.w3.org/1999/xlink">
    <title>Group 10备份</title>
    <g id="纯净模式" stroke="none" stroke-width="1" fill="none" fill-rule="evenodd">
        <g id="定制1.2-2" transform="translate(-668.000000, -935.000000)">
            <g id="编组-2" transform="translate(277.000000, 763.000000)">
                <g id="Group-10备份" transform="translate(391.000000, 172.000000)">
                    <g id="厕所-copy-12">
                        <path d="M2,0 L13.2195122,0 C14.3240817,-2.02906125e-16 15.2195122,0.8954305 15.2195122,2 L15.2195122,22.9787234 L15.2195122,22.9787234 L0,22.9787234 L0,2 C-1.3527075e-16,0.8954305 0.8954305,2.02906125e-16 2,0 Z" id="Rectangle" fill="#71C38F"></path>
                        <path d="M13.6371314,23.9361702 L25.0132184,23.9361702 C25.7951957,23.9362059 26.4291135,24.5701237 26.4291135,25.352101 C26.4291135,25.5065198 26.403853,25.6598986 26.3543328,25.8061618 C26.3543328,25.8061618 26.3543328,25.8061618 26.3543328,25.8061618 C26.1438463,26.4278548 26.0646976,27.0701063 26.1168867,27.7329164 C28.7752743,28.3267273 30.5523804,28.8475866 31.4482051,29.2954945 C34.5535617,30.8481574 36.2882356,32.6214098 36.8620601,33.9893617 C37.653207,35.8753929 38.0487805,39.2264567 38.0487805,44.0425532 L0.982951336,44.0425532 C0.362897766,44.0425532 0.0528709812,43.7638859 0.0528709812,43.2065512 C0.0528709812,42.3705493 -0.0660887265,40.9679394 0.0528709812,39.8513664 C0.799830278,32.840299 4.9412304,29.6221384 7.7702999,28.6057059 C9.02779729,28.1539102 10.6845216,27.6311442 12.2183601,27.6311442 C12.5758875,27.6311442 12.4445017,26.5860634 12.2183601,25.8821281 C12.2183601,25.8821281 12.2183601,25.8821281 12.2183601,25.8821281 C11.966637,25.0985623 12.3977807,24.2592949 13.1813464,24.0075718 C13.3286464,23.9602512 13.482417,23.9361579 13.6371314,23.9361702 Z" id="Rectangle-Copy-3" fill="#71C38F" transform="translate(19.024390, 33.989362) rotate(-180.000000) translate(-19.024390, -33.989362) "></path>
                        <rect id="Rectangle" fill="#D8D8D8" x="5.70731707" y="4.78723404" width="2.85365854" height="6.70212766" rx="1.42682927"></rect>
                        <line x1="17.1219512" y1="21.0638298" x2="35.5121951" y2="14.0425532" id="Line-3" stroke="#71C38F" stroke-width="2" stroke-linecap="round"></line>
                    </g>
                    <rect id="Rectangle" fill="#1D6120" x="0" y="20" width="23" height="10" rx="3"></rect>
                    <text id="自" font-family="PingFangSC-Semibold, PingFang SC" font-size="8" font-weight="500" fill="#FFFFFF">
                        <tspan x="7" y="28">自 </tspan>
                    </text>
                </g>
            </g>
        </g>
    </g>
</svg>