<?xml version="1.0" encoding="UTF-8"?>
<svg width="38px" height="45px" viewBox="0 0 38 45" version="1.1" xmlns="http://www.w3.org/2000/svg" xmlns:xlink="http://www.w3.org/1999/xlink">
    <title>Group 9备份</title>
    <g id="纯净模式" stroke="none" stroke-width="1" fill="none" fill-rule="evenodd">
        <g id="定制1.2-2" transform="translate(-583.000000, -935.000000)">
            <g id="编组-2" transform="translate(277.000000, 763.000000)">
                <g id="Group-9备份" transform="translate(306.000000, 172.000000)">
                    <g id="厕所-copy-9">
                        <path d="M2,0 L12.25,0 C13.3545695,-2.02906125e-16 14.25,0.8954305 14.25,2 L14.25,22.9787234 L14.25,22.9787234 L0,22.9787234 L0,2 C-1.3527075e-16,0.8954305 0.8954305,2.02906125e-16 2,0 Z" id="Rectangle" fill="#C90F30"></path>
                        <path d="M13.3278511,23.9361702 L24.3100557,23.9361702 C25.0965539,23.9361935 25.7341366,24.5737762 25.7341366,25.3602744 C25.7341366,25.511766 25.7099644,25.6622874 25.6625315,25.8061618 C25.6625315,25.8061618 25.6625315,25.8061618 25.6625315,25.8061618 C25.4575703,26.4278548 25.3804993,27.0701063 25.4313185,27.7329164 C28.0199234,28.3267273 29.7503804,28.8475866 30.6226897,29.2954945 C33.6465307,30.8481574 35.3356694,32.6214098 35.894431,33.9893617 C36.6648103,35.8753929 37.05,39.2264567 37.05,44.0425532 L0.957148864,44.0425532 C0.3533717,44.0425532 0.0514831179,43.7638859 0.0514831179,43.2065512 C0.0514831179,42.3705493 -0.0643538974,40.9679394 0.0514831179,39.8513664 C0.778834733,32.840299 4.8115231,29.6221384 7.56632952,28.6057059 C8.79081761,28.1539102 10.4040529,27.6311442 11.8976282,27.6311442 C12.2457704,27.6311442 12.1178335,26.5860634 11.8976282,25.8821281 C11.8976282,25.8821281 11.8976282,25.8821281 11.8976282,25.8821281 C11.6505343,25.0922378 12.0905578,24.251596 12.8804481,24.0045022 C13.0252623,23.9592013 13.1761167,23.9361568 13.3278511,23.9361702 Z" id="Rectangle-Copy-3" fill="#C90F30" transform="translate(18.525000, 33.989362) rotate(-180.000000) translate(-18.525000, -33.989362) "></path>
                        <rect id="Rectangle" fill="#D8D8D8" x="5.7" y="4.78723404" width="2.85" height="6.70212766" rx="1.425"></rect>
                        <line x1="17.1" y1="21.0638298" x2="34.5483333" y2="14.0425532" id="Line-3" stroke="#C90F30" stroke-width="2" stroke-linecap="round"></line>
                    </g>
                    <rect id="Rectangle-Copy-4" fill="#630303" x="0" y="20" width="23" height="10" rx="3"></rect>
                    <text id="自" font-family="PingFangSC-Semibold, PingFang SC" font-size="8" font-weight="500" fill="#FFFFFF">
                        <tspan x="8" y="28">自 </tspan>
                    </text>
                </g>
            </g>
        </g>
    </g>
</svg>