<?xml version="1.0" encoding="UTF-8"?>
<svg width="38px" height="45px" viewBox="0 0 38 45" version="1.1" xmlns="http://www.w3.org/2000/svg" xmlns:xlink="http://www.w3.org/1999/xlink">
    <title>厕所备份</title>
    <g id="纯净模式" stroke="none" stroke-width="1" fill="none" fill-rule="evenodd">
        <g id="定制1.2-2" transform="translate(-410.000000, -548.000000)">
            <g id="编组-7" transform="translate(277.000000, 478.000000)">
                <g id="厕所备份" transform="translate(133.000000, 70.000000)">
                    <path d="M2,0 L12,0 C13.1045695,-4.2495073e-16 14,0.8954305 14,2 L14,23 L14,23 L0,23 L0,2 C-3.57315355e-16,0.8954305 0.8954305,-1.91384796e-17 2,0 Z" id="Rectangle" fill="#C90F30"></path>
                    <path d="M13.3025216,24 L24.284245,24 C25.0659173,24.0000203 25.6995878,24.6336909 25.6995878,25.4153631 C25.6995878,25.5664844 25.6753851,25.7166306 25.6278992,25.8600974 C25.6278992,25.8600974 25.6278992,25.8600974 25.6278992,25.8600974 C25.4232146,26.4785011 25.3462476,27.1173544 25.3969982,27.7766576 C27.9821097,28.3673266 29.7102315,28.8854301 30.5813635,29.3309681 C33.6011237,30.8754158 35.2879829,32.6392859 35.8459905,34 C36.6153302,35.8760522 37,39.2093855 37,44 L0.955857165,44 C0.352894815,44 0.05141364,43.7228071 0.05141364,43.1684213 C0.05141364,42.3368427 -0.06426705,40.941654 0.05141364,39.8309888 C0.777783674,32.857017 4.80502982,29.6558837 7.55611855,28.6448291 C8.77895416,28.1954239 10.3900124,27.6754238 11.881572,27.6754238 C12.2292444,27.6754238 12.1014802,26.6358726 11.881572,25.9356618 C11.881572,25.9356618 11.881572,25.9356618 11.881572,25.9356618 C11.6351075,25.150893 12.0714894,24.3149132 12.8562582,24.0684487 C13.0006712,24.0230944 13.1511542,24.0000197 13.3025216,24 Z" id="Rectangle-Copy-3" fill="#C90F30" transform="translate(18.500000, 34.000000) rotate(-180.000000) translate(-18.500000, -34.000000) "></path>
                    <rect id="Rectangle" fill="#D8D8D8" x="6" y="5" width="3" height="7" rx="1.5"></rect>
                    <line x1="17" y1="21" x2="34.4" y2="13.6666667" id="Line-3" stroke="#C90F30" stroke-width="2" stroke-linecap="round"></line>
                </g>
            </g>
        </g>
    </g>
</svg>