<?xml version="1.0" standalone="no"?><!DOCTYPE svg PUBLIC "-//W3C//DTD SVG 1.1//EN" "http://www.w3.org/Graphics/SVG/1.1/DTD/svg11.dtd"><svg t="1597650990334" class="icon" viewBox="0 0 1024 1024" version="1.1" xmlns="http://www.w3.org/2000/svg" p-id="16423" xmlns:xlink="http://www.w3.org/1999/xlink" width="24" height="24"><defs><style type="text/css"></style></defs><path d="M929.002904 334.572008c-22.626323-53.497425-55.014988-101.537558-96.260367-142.78396-41.247426-41.247426-89.285512-73.634044-142.782937-96.261391-55.403844-23.433712-114.238834-35.31532-174.871773-35.31532-60.654428 0-119.489418 11.881608-174.894286 35.31532-53.496401 22.627347-101.537558 55.014988-142.78396 96.261391s-73.634044 89.285512-96.260367 142.78396c-23.433712 55.403844-35.31532 114.237811-35.31532 174.87075 0 60.622706 11.881608 119.457696 35.31532 174.86154 22.627347 53.497425 55.014988 101.538581 96.260367 142.782937 41.247426 41.24845 89.285512 73.634044 142.78396 96.261391 55.404867 23.431665 114.238834 35.31532 174.894286 35.31532 60.632939 0 119.467929-11.881608 174.871773-35.31532 53.497425-22.627347 101.537558-55.014988 142.782937-96.261391 41.247426-41.246403 73.634044-89.285512 96.260367-142.782937 23.432689-55.403844 35.316344-114.238834 35.316344-174.86154C964.318224 448.810842 952.436616 389.975852 929.002904 334.572008zM710.147384 705.516412c-11.223622 11.222599-28.904307 11.736299-39.496549 1.147126L512.016885 548.029588 353.360422 706.664561c-10.590196 10.589173-28.271904 10.075473-39.495526-1.147126-11.222599-11.223622-11.736299-28.90533-1.147126-39.496549l158.63395-158.62474L312.716746 348.762195c-10.588149-10.588149-10.075473-28.271904 1.14815-39.494503 11.222599-11.223622 28.904307-11.737322 39.493479-1.14815L512.016885 466.753493l158.63395-158.635997c10.589173-10.588149 28.271904-10.07445 39.494503 1.14815 11.224646 11.223622 11.737322 28.906353 1.14815 39.495526L552.659537 507.396145l158.63395 158.62474C721.883683 676.611082 721.369983 694.293813 710.147384 705.516412z" p-id="16424" fill="#1296db" data-spm-anchor-id="a313x.7781069.0.i11" class="selected"></path></svg>