<svg xmlns="http://www.w3.org/2000/svg" xmlns:xlink="http://www.w3.org/1999/xlink" viewBox="0 0 80 80"><defs><style>.cls-1{fill:none;}.cls-2{opacity:0.5;}.cls-3{clip-path:url(#clip-path);}.cls-4{fill:#3a66c7;}.cls-5{clip-path:url(#clip-path-2);}.cls-6{clip-path:url(#clip-path-3);}.cls-7{clip-path:url(#clip-path-4);}.cls-8{clip-path:url(#clip-path-5);}.cls-9{clip-path:url(#clip-path-6);}.cls-10{clip-path:url(#clip-path-7);}.cls-11{clip-path:url(#clip-path-8);}.cls-12{clip-path:url(#clip-path-9);}.cls-13{clip-path:url(#clip-path-10);}.cls-14{clip-path:url(#clip-path-11);}.cls-15{clip-path:url(#clip-path-12);}.cls-16{clip-path:url(#clip-path-13);}</style><clipPath id="clip-path"><path class="cls-1" d="M40.56,57A16.47,16.47,0,1,1,57,40.53,16.49,16.49,0,0,1,40.56,57Zm0-36.53a20,20,0,1,0,20,20A20.06,20.06,0,0,0,40.53,20.47Z"/></clipPath><clipPath id="clip-path-2"><path class="cls-1" d="M40.53,17a1.18,1.18,0,0,0,1.19-1.18V8.2a1.19,1.19,0,0,0-2.37,0v7.61A1.18,1.18,0,0,0,40.53,17Z"/></clipPath><clipPath id="clip-path-3"><path class="cls-1" d="M27.15,19.71a1.19,1.19,0,0,0,1,.59,1.16,1.16,0,0,0,.59-.16,1.18,1.18,0,0,0,.43-1.62l-3.8-6.58a1.17,1.17,0,0,0-1.61-.43,1.18,1.18,0,0,0-.44,1.62Z"/></clipPath><clipPath id="clip-path-4"><path class="cls-1" d="M19.73,27.13l-6.59-3.79a1.18,1.18,0,1,0-1.18,2l6.58,3.81a1.16,1.16,0,0,0,.59.16,1.19,1.19,0,0,0,.6-2.22Z"/></clipPath><clipPath id="clip-path-5"><path class="cls-1" d="M17,40.51a1.18,1.18,0,0,0-1.19-1.18H8.22a1.18,1.18,0,0,0,0,2.36h7.6A1.18,1.18,0,0,0,17,40.51Z"/></clipPath><clipPath id="clip-path-6"><path class="cls-1" d="M18.54,51.84,12,55.64a1.19,1.19,0,0,0,.59,2.21,1.14,1.14,0,0,0,.59-.16l6.59-3.8a1.19,1.19,0,1,0-1.19-2Z"/></clipPath><clipPath id="clip-path-7"><path class="cls-1" d="M28.77,60.89a1.19,1.19,0,0,0-1.62.43l-3.8,6.58a1.19,1.19,0,0,0,.44,1.62,1.2,1.2,0,0,0,1.61-.43l3.8-6.58A1.18,1.18,0,0,0,28.77,60.89Z"/></clipPath><clipPath id="clip-path-8"><path class="cls-1" d="M40.53,64a1.18,1.18,0,0,0-1.18,1.18v7.6a1.19,1.19,0,0,0,2.37,0v-7.6A1.18,1.18,0,0,0,40.53,64Z"/></clipPath><clipPath id="clip-path-9"><path class="cls-1" d="M53.91,61.32a1.16,1.16,0,0,0-1.61-.43,1.18,1.18,0,0,0-.44,1.62l3.8,6.58a1.21,1.21,0,0,0,1.62.43,1.19,1.19,0,0,0,.43-1.62Z"/></clipPath><clipPath id="clip-path-10"><path class="cls-1" d="M69.1,55.64l-6.58-3.8a1.19,1.19,0,0,0-1.61.43,1.17,1.17,0,0,0,.43,1.62l6.58,3.8a1.16,1.16,0,0,0,.59.16,1.18,1.18,0,0,0,.59-2.21Z"/></clipPath><clipPath id="clip-path-11"><path class="cls-1" d="M72.84,39.33h-7.6a1.18,1.18,0,1,0,0,2.36h7.6a1.18,1.18,0,0,0,0-2.36Z"/></clipPath><clipPath id="clip-path-12"><path class="cls-1" d="M61.93,29.35a1.14,1.14,0,0,0,.59-.16l6.58-3.81a1.18,1.18,0,1,0-1.18-2l-6.58,3.79a1.18,1.18,0,0,0-.43,1.62A1.17,1.17,0,0,0,61.93,29.35Z"/></clipPath><clipPath id="clip-path-13"><path class="cls-1" d="M52.3,20.14a1.14,1.14,0,0,0,.59.16,1.17,1.17,0,0,0,1-.59l3.8-6.58a1.19,1.19,0,0,0-2.05-1.19l-3.8,6.58A1.18,1.18,0,0,0,52.3,20.14Z"/></clipPath></defs><title>Weather Icons_20200701</title><g id="_19" data-name="19"><g class="cls-2"><g class="cls-3"><rect class="cls-4" x="16.77" y="16.75" width="47.53" height="47.53"/></g><g class="cls-5"><rect class="cls-4" x="35.63" y="3.29" width="9.81" height="17.42"/></g><g class="cls-6"><rect class="cls-4" x="19.47" y="7.62" width="13.62" height="16.4"/></g><g class="cls-7"><rect class="cls-4" x="7.65" y="19.45" width="16.4" height="13.62"/></g><g class="cls-8"><rect class="cls-4" x="3.32" y="35.6" width="17.41" height="9.81"/></g><g class="cls-9"><rect class="cls-4" x="7.65" y="47.96" width="16.4" height="13.62"/></g><g class="cls-10"><rect class="cls-4" x="19.47" y="57.01" width="13.62" height="16.39"/></g><g class="cls-11"><rect class="cls-4" x="35.63" y="60.31" width="9.81" height="17.41"/></g><g class="cls-12"><rect class="cls-4" x="47.98" y="57" width="13.61" height="16.4"/></g><g class="cls-13"><rect class="cls-4" x="57.02" y="47.96" width="16.4" height="13.62"/></g><g class="cls-14"><rect class="cls-4" x="60.34" y="35.6" width="17.41" height="9.81"/></g><g class="cls-15"><rect class="cls-4" x="57.02" y="19.45" width="16.4" height="13.62"/></g><g class="cls-16"><rect class="cls-4" x="47.98" y="7.62" width="13.62" height="16.4"/></g></g></g></svg>