<svg xmlns="http://www.w3.org/2000/svg" xmlns:xlink="http://www.w3.org/1999/xlink" viewBox="0 0 80 80"><defs><style>.cls-1{fill:none;}.cls-2{opacity:0.5;}.cls-3{clip-path:url(#clip-path);}.cls-4{fill:#3a66c7;}.cls-5{clip-path:url(#clip-path-2);}.cls-6{clip-path:url(#clip-path-3);}.cls-7{clip-path:url(#clip-path-4);}.cls-8{clip-path:url(#clip-path-5);}.cls-9{clip-path:url(#clip-path-6);}</style><clipPath id="clip-path"><path class="cls-1" d="M51.66,21.35a.83.83,0,0,1-.83-.83V15.21a.83.83,0,0,1,1.66,0v5.31A.83.83,0,0,1,51.66,21.35Z"/></clipPath><clipPath id="clip-path-2"><path class="cls-1" d="M61,23.26a.86.86,0,0,1-.72.41.87.87,0,0,1-.41-.11.83.83,0,0,1-.31-1.13l2.66-4.6a.82.82,0,1,1,1.43.82Z"/></clipPath><clipPath id="clip-path-3"><path class="cls-1" d="M66.21,28.45l4.61-2.66a.83.83,0,0,1,.83,1.44L67,29.89a.87.87,0,0,1-.41.11.82.82,0,0,1-.72-.42A.83.83,0,0,1,66.21,28.45Z"/></clipPath><clipPath id="clip-path-4"><path class="cls-1" d="M68.11,37.81a.83.83,0,0,1,.83-.83h5.32a.83.83,0,1,1,0,1.66H68.94A.83.83,0,0,1,68.11,37.81Z"/></clipPath><clipPath id="clip-path-5"><path class="cls-1" d="M67,45.74l4.61,2.66a.83.83,0,0,1-.42,1.54.77.77,0,0,1-.41-.11l-4.61-2.66A.83.83,0,1,1,67,45.74Z"/></clipPath><clipPath id="clip-path-6"><path class="cls-1" d="M8.4,49.43c0-.47,0-.93.07-1.39,0-.21,0-.41.08-.62s.07-.46.11-.69.11-.55.18-.82.07-.28.11-.41c.09-.32.18-.65.29-1a1.22,1.22,0,0,0,.07-.17,15,15,0,0,1,4.08-6h0c.29-.26.59-.51.89-.74l.15-.11q.42-.32.87-.6l.24-.15c.29-.17.58-.34.87-.49l.29-.14a14.49,14.49,0,0,1,3-1.1l.39-.1.22,0a14.78,14.78,0,0,1,12.06,2.88,1.66,1.66,0,0,0,2-2.61,18,18,0,0,0-11.2-3.87c-.48,0-1,0-1.43.07a14.43,14.43,0,0,1,28.28,4.09c0,.31,0,.61,0,.92s-.06.61-.1,1l-.08.64a14.25,14.25,0,0,1-3,6.52,1.66,1.66,0,0,0,1.29,2.7,1.62,1.62,0,0,0,1.29-.62,17.73,17.73,0,0,0,3.39-6.91,12.7,12.7,0,0,1-4.41,24.61H23.23A14.84,14.84,0,0,1,8.4,49.43Zm53-7.28a16,16,0,0,0-8-5.85c0-.29,0-.58,0-.85a17.66,17.66,0,0,0-2.08-8.32c.11,0,.22,0,.34,0A10.73,10.73,0,0,1,62.37,37.81,10.52,10.52,0,0,1,61.4,42.15ZM5.09,49.43A18.16,18.16,0,0,0,23.23,67.58H48.47a16,16,0,0,0,16-16,15.64,15.64,0,0,0-1.19-6,13.9,13.9,0,0,0,2.38-7.76,14,14,0,0,0-14-14,13.21,13.21,0,0,0-2.45.23,17.73,17.73,0,0,0-31,8l-.12,0-.87.29c-.22.07-.43.15-.65.24l-.88.37-.54.26c-.31.16-.62.32-.92.49l-.31.19a18.2,18.2,0,0,0-7.85,9.69l0,.06c-.12.36-.22.73-.33,1.1,0,.18-.09.36-.13.54s-.14.61-.19.91-.1.59-.14.88-.07.46-.09.7C5.12,48.31,5.09,48.87,5.09,49.43Z"/></clipPath></defs><title>Weather Icons_20200701</title><g id="_19" data-name="19"><g class="cls-2"><g class="cls-3"><rect class="cls-4" x="46.94" y="10.49" width="9.44" height="14.75"/></g><g class="cls-5"><rect class="cls-4" x="55.58" y="13.52" width="12.1" height="14.04"/></g><g class="cls-6"><rect class="cls-4" x="61.91" y="21.79" width="14.04" height="12.1"/></g><g class="cls-7"><rect class="cls-4" x="64.22" y="33.09" width="14.76" height="9.44"/></g><g class="cls-8"><rect class="cls-4" x="61.91" y="41.73" width="14.04" height="12.1"/></g><g class="cls-9"><rect class="cls-4" x="1.2" y="13.79" width="68.37" height="57.68"/></g></g></g></svg>