<svg xmlns="http://www.w3.org/2000/svg" xmlns:xlink="http://www.w3.org/1999/xlink" viewBox="0 0 80 80"><defs><style>.cls-1{fill:none;}.cls-2{opacity:0.5;}.cls-3{clip-path:url(#clip-path);}.cls-4{fill:#3a66c7;}.cls-5{clip-path:url(#clip-path-2);}.cls-6{clip-path:url(#clip-path-3);}.cls-7{fill:#06c;}</style><clipPath id="clip-path"><path class="cls-1" d="M29.38,50.94H52.09a11.43,11.43,0,0,0,4-22.16A16,16,0,0,1,53,35a1.46,1.46,0,0,1-1.16.57,1.5,1.5,0,0,1-1.17-2.43,12.79,12.79,0,0,0,2.74-6.43v0c0-.31.07-.58.09-.85s0-.56,0-.84a13,13,0,0,0-25.46-3.67c.42,0,.85-.07,1.29-.07a16.22,16.22,0,0,1,10.08,3.48,1.49,1.49,0,0,1-1.84,2.35,13.23,13.23,0,0,0-8.24-2.85,13.48,13.48,0,0,0-3.13.39,12.72,12.72,0,0,0-2.79,1l-.22.11c-.27.14-.54.3-.8.46l-.2.12c-.27.17-.54.36-.8.55l-.11.08A13.58,13.58,0,0,0,16.84,33a.88.88,0,0,0-.05.15c-.1.28-.19.57-.28.86l-.09.37c-.06.24-.12.49-.16.74s-.07.41-.1.62-.06.37-.08.56c0,.42-.06.83-.06,1.25A13.38,13.38,0,0,0,29.38,50.94ZM13.11,36.08c0-.21.06-.42.09-.63s.07-.53.12-.79.1-.55.17-.83l.12-.48c.1-.33.19-.67.3-1,0,0,0,0,0,0A16.35,16.35,0,0,1,21,23.58l.26-.16c.27-.16.56-.31.85-.45a3.88,3.88,0,0,1,.46-.22c.26-.13.53-.24.81-.35l.56-.21c.27-.09.54-.19.81-.27l.09,0A16,16,0,0,1,56.54,25q0,.38,0,.78a14.42,14.42,0,0,1-4.42,28.15H29.38A16.36,16.36,0,0,1,13,37.58C13,37.08,13.07,36.58,13.11,36.08Z"/></clipPath><clipPath id="clip-path-2"><path class="cls-1" d="M30,57.25a.89.89,0,0,0-1.17.25l-2.93,4.35a.77.77,0,0,0,.26,1.1.87.87,0,0,0,1.17-.24l2.93-4.36A.77.77,0,0,0,30,57.25Z"/></clipPath><clipPath id="clip-path-3"><path class="cls-1" d="M49.76,57.25a.88.88,0,0,0-1.16.25l-2.94,4.35a.77.77,0,0,0,.26,1.1.94.94,0,0,0,.46.13.89.89,0,0,0,.71-.37L50,58.35A.77.77,0,0,0,49.76,57.25Z"/></clipPath></defs><title>Weather Icons_20200701</title><g id="_19" data-name="19"><g class="cls-2"><g class="cls-3"><rect class="cls-4" x="10.07" y="6.03" width="59.42" height="50.86"/></g><g class="cls-5"><rect class="cls-4" x="22.49" y="53.9" width="11.08" height="12.4"/></g><g class="cls-6"><rect class="cls-4" x="42.3" y="53.9" width="11.08" height="12.4"/></g><rect class="cls-7" x="37.67" y="66" width="4.83" height="4.83" rx="0.86" transform="translate(60.12 -8.31) rotate(45)"/><rect class="cls-7" x="47.67" y="66" width="4.83" height="4.83" rx="0.86" transform="translate(63.05 -15.38) rotate(45)"/><rect class="cls-7" x="27.67" y="66" width="4.83" height="4.83" rx="0.86" transform="translate(57.19 -1.24) rotate(45)"/><path class="cls-7" d="M36,62.28a1.36,1.36,0,0,1-.81-.27,1.31,1.31,0,0,1-.24-1.85L44.4,47.75H36A1.32,1.32,0,0,1,34.79,47a1.34,1.34,0,0,1,.15-1.4L40.23,39a1.32,1.32,0,0,1,2.06,1.65l-3.57,4.46h8.35a1.32,1.32,0,0,1,1.18.74,1.28,1.28,0,0,1-.13,1.38L37,61.76A1.33,1.33,0,0,1,36,62.28Z"/></g></g></svg>