<svg xmlns="http://www.w3.org/2000/svg" xmlns:xlink="http://www.w3.org/1999/xlink" viewBox="0 0 80 80"><defs><style>.cls-1{fill:none;}.cls-2{opacity:0.5;}.cls-3{fill:#3a66c7;}.cls-4{clip-path:url(#clip-path);}.cls-5{clip-path:url(#clip-path-2);}.cls-6{clip-path:url(#clip-path-3);}.cls-7{clip-path:url(#clip-path-4);}.cls-8{clip-path:url(#clip-path-5);}.cls-9{clip-path:url(#clip-path-6);}.cls-10{clip-path:url(#clip-path-7);}.cls-11{clip-path:url(#clip-path-8);}.cls-12{clip-path:url(#clip-path-9);}.cls-13{clip-path:url(#clip-path-10);}.cls-14{clip-path:url(#clip-path-11);}.cls-15{clip-path:url(#clip-path-12);}</style><clipPath id="clip-path"><path class="cls-1" d="M22,36a.52.52,0,0,0-.68.15l-1.71,2.53a.45.45,0,0,0,.15.64.51.51,0,0,0,.26.07.49.49,0,0,0,.42-.21l1.71-2.54A.45.45,0,0,0,22,36Z"/></clipPath><clipPath id="clip-path-2"><path class="cls-1" d="M27.79,36a.52.52,0,0,0-.68.15L25.4,38.67a.45.45,0,0,0,.15.64.54.54,0,0,0,.27.07.48.48,0,0,0,.41-.21l1.71-2.54A.45.45,0,0,0,27.79,36Z"/></clipPath><clipPath id="clip-path-3"><path class="cls-1" d="M23.17,40.61a.51.51,0,0,0-.68.14l-1.71,2.54a.45.45,0,0,0,.16.64.48.48,0,0,0,.26.07.51.51,0,0,0,.42-.21l1.7-2.54A.44.44,0,0,0,23.17,40.61Z"/></clipPath><clipPath id="clip-path-4"><path class="cls-1" d="M28.94,40.61a.5.5,0,0,0-.67.14l-1.71,2.54a.44.44,0,0,0,.15.64A.48.48,0,0,0,27,44a.51.51,0,0,0,.42-.21l1.71-2.54A.45.45,0,0,0,28.94,40.61Z"/></clipPath><clipPath id="clip-path-5"><path class="cls-1" d="M31.53,32.12H17.15a7.18,7.18,0,0,1-6.41-10.55,1.62,1.62,0,0,1,.1-.18,5.83,5.83,0,0,1,.53-.8l.15-.2a8.05,8.05,0,0,1,.63-.68l.19-.17A6.94,6.94,0,0,1,13.1,19l.18-.12a8.32,8.32,0,0,1,.93-.5l.1,0a7.11,7.11,0,0,1,1.13-.37h0a7.23,7.23,0,0,1,2.75-.13,1,1,0,0,0,1.07-.8.94.94,0,0,0-.8-1.06,8.54,8.54,0,0,0-1.89-.06,8.24,8.24,0,0,1,13.64-2.34,10.92,10.92,0,0,0-1.49.3A10.3,10.3,0,0,0,22.5,18.7a.94.94,0,0,0,1.65.92,8.4,8.4,0,0,1,5.08-4,8.49,8.49,0,0,1,2.69-.3H32a8.39,8.39,0,0,1-.46,16.78Zm5.12-17.31-.08-.07-.27-.13-.13-.07a10.44,10.44,0,0,0-3.59-1A10.21,10.21,0,0,0,24.15,9a10,10,0,0,0-9.71,7.26l-.3.11c-.11,0-.23.07-.34.12a9,9,0,0,0-4.14,3.25h0c-.14.2-.27.41-.4.62l0,.07c-.11.2-.22.4-.32.6a.37.37,0,0,1-.05.11c-.09.2-.17.41-.25.61l0,.08h0A9.05,9.05,0,0,0,17.15,34H31.53a10.26,10.26,0,0,0,5.12-19.19Z"/></clipPath><clipPath id="clip-path-6"><path class="cls-1" d="M49,62.77a.53.53,0,0,0-.7.14l-1.76,2.61a.46.46,0,0,0,.16.66.52.52,0,0,0,.27.07.53.53,0,0,0,.43-.22l1.76-2.61A.46.46,0,0,0,49,62.77Z"/></clipPath><clipPath id="clip-path-7"><path class="cls-1" d="M55,62.77a.52.52,0,0,0-.69.14l-1.76,2.61a.47.47,0,0,0,.15.66.54.54,0,0,0,.27.07.53.53,0,0,0,.43-.22l1.76-2.61A.45.45,0,0,0,55,62.77Z"/></clipPath><clipPath id="clip-path-8"><path class="cls-1" d="M60.9,62.77a.53.53,0,0,0-.7.14l-1.76,2.61a.46.46,0,0,0,.16.66.52.52,0,0,0,.27.07A.53.53,0,0,0,59.3,66l1.75-2.61A.45.45,0,0,0,60.9,62.77Z"/></clipPath><clipPath id="clip-path-9"><path class="cls-1" d="M50.61,67.52a.52.52,0,0,0-.7.14l-1.75,2.61a.47.47,0,0,0,.15.66.54.54,0,0,0,.27.07.53.53,0,0,0,.43-.22l1.76-2.61A.45.45,0,0,0,50.61,67.52Z"/></clipPath><clipPath id="clip-path-10"><path class="cls-1" d="M56.15,67.52a.52.52,0,0,0-.7.14l-1.76,2.61a.47.47,0,0,0,.16.66.52.52,0,0,0,.27.07.53.53,0,0,0,.43-.22l1.76-2.61A.45.45,0,0,0,56.15,67.52Z"/></clipPath><clipPath id="clip-path-11"><path class="cls-1" d="M62.08,67.52a.51.51,0,0,0-.69.14l-1.76,2.61a.47.47,0,0,0,.15.66.55.55,0,0,0,.28.07.51.51,0,0,0,.42-.22l1.76-2.61A.45.45,0,0,0,62.08,67.52Z"/></clipPath><clipPath id="clip-path-12"><path class="cls-1" d="M61.31,58.79H46.52a7.39,7.39,0,0,1-6.59-10.85l.11-.19a6.45,6.45,0,0,1,.54-.82,1.56,1.56,0,0,1,.16-.2,7.18,7.18,0,0,1,.65-.7c.07-.06.13-.13.2-.18a5.77,5.77,0,0,1,.78-.6l.18-.12a7.29,7.29,0,0,1,1-.51l.1,0a7.18,7.18,0,0,1,1.16-.39h0a7.41,7.41,0,0,1,2.82-.14,1,1,0,0,0,1.11-.82,1,1,0,0,0-.82-1.09,9.07,9.07,0,0,0-1.94-.07,8.46,8.46,0,0,1,14-2.4,11.81,11.81,0,0,0-1.53.3A10.57,10.57,0,0,0,52,45a1,1,0,0,0,1.7.94,8.67,8.67,0,0,1,8-4.41h.08a8.64,8.64,0,0,1-.48,17.26ZM66.58,41l-.08-.06-.28-.14-.14-.07a10.73,10.73,0,0,0-3.69-1.08A10.47,10.47,0,0,0,53.73,35a10.35,10.35,0,0,0-10,7.47,2.65,2.65,0,0,0-.3.11l-.36.12A9.35,9.35,0,0,0,38.82,46s0,0,0,0a6.73,6.73,0,0,0-.4.63.56.56,0,0,0,0,.08c-.11.2-.22.4-.32.61a.61.61,0,0,0,0,.12c-.1.2-.18.41-.27.62l0,.08v0a9.26,9.26,0,0,0-.56,3.16,9.38,9.38,0,0,0,9.39,9.34H61.31A10.55,10.55,0,0,0,66.58,41Z"/></clipPath></defs><title>Weather Icons_20200701</title><g id="_19" data-name="19"><g class="cls-2"><path class="cls-3" d="M68.26,25.16a1.5,1.5,0,0,0-2,.67l-1.52,3A23.37,23.37,0,0,0,46.05,14.69a1.5,1.5,0,0,0-.37,3A20.4,20.4,0,0,1,62,30.05l-2.92-1a1.5,1.5,0,1,0-1,2.84l6,2h0a1.61,1.61,0,0,0,.43.07h0a1.55,1.55,0,0,0,.43-.07l.13,0,.26-.13.13-.11a1.14,1.14,0,0,0,.19-.19l.11-.15a1,1,0,0,0,.09-.13l3-6A1.5,1.5,0,0,0,68.26,25.16Z"/><g class="cls-4"><rect class="cls-3" x="17.67" y="34.04" width="6.45" height="7.22"/></g><g class="cls-5"><rect class="cls-3" x="23.44" y="34.04" width="6.45" height="7.22"/></g><g class="cls-6"><rect class="cls-3" x="18.83" y="38.66" width="6.45" height="7.22"/></g><g class="cls-7"><rect class="cls-3" x="24.6" y="38.66" width="6.45" height="7.22"/></g><g class="cls-8"><rect class="cls-3" x="6.13" y="7.11" width="37.62" height="28.77"/></g><g class="cls-9"><rect class="cls-3" x="44.56" y="60.76" width="6.64" height="7.43"/></g><g class="cls-10"><rect class="cls-3" x="50.49" y="60.76" width="6.64" height="7.43"/></g><g class="cls-11"><rect class="cls-3" x="56.43" y="60.76" width="6.64" height="7.43"/></g><g class="cls-12"><rect class="cls-3" x="46.14" y="65.51" width="6.64" height="7.43"/></g><g class="cls-13"><rect class="cls-3" x="51.68" y="65.51" width="6.64" height="7.43"/></g><g class="cls-14"><rect class="cls-3" x="57.62" y="65.51" width="6.64" height="7.43"/></g><g class="cls-15"><rect class="cls-3" x="35.2" y="33.07" width="38.68" height="29.58"/></g></g></g></svg>