<svg xmlns="http://www.w3.org/2000/svg" xmlns:xlink="http://www.w3.org/1999/xlink" viewBox="0 0 80 80"><defs><style>.cls-1{fill:none;}.cls-2,.cls-20{opacity:0.5;}.cls-3{clip-path:url(#clip-path);}.cls-20,.cls-4{fill:#3a66c7;}.cls-5{clip-path:url(#clip-path-2);}.cls-6{clip-path:url(#clip-path-3);}.cls-7{clip-path:url(#clip-path-4);}.cls-8{clip-path:url(#clip-path-5);}.cls-9{clip-path:url(#clip-path-6);}.cls-10{clip-path:url(#clip-path-7);}.cls-11{clip-path:url(#clip-path-8);}.cls-12{clip-path:url(#clip-path-9);}.cls-13{clip-path:url(#clip-path-10);}.cls-14{clip-path:url(#clip-path-11);}.cls-15{clip-path:url(#clip-path-12);}.cls-16{clip-path:url(#clip-path-13);}.cls-17{clip-path:url(#clip-path-14);}.cls-18{clip-path:url(#clip-path-15);}.cls-19{clip-path:url(#clip-path-16);}</style><clipPath id="clip-path"><path class="cls-1" d="M19.53,35.87a.51.51,0,0,0-.68.14l-1.7,2.53a.44.44,0,0,0,.15.63A.49.49,0,0,0,18,39l1.7-2.52A.44.44,0,0,0,19.53,35.87Z"/></clipPath><clipPath id="clip-path-2"><path class="cls-1" d="M25.27,35.87a.5.5,0,0,0-.67.14l-1.7,2.53a.43.43,0,0,0,.15.63.5.5,0,0,0,.26.08.49.49,0,0,0,.41-.22l1.7-2.52A.44.44,0,0,0,25.27,35.87Z"/></clipPath><clipPath id="clip-path-3"><path class="cls-1" d="M31,35.87a.51.51,0,0,0-.68.14l-1.7,2.53a.44.44,0,0,0,.15.63.53.53,0,0,0,.27.08.49.49,0,0,0,.41-.22l1.7-2.52A.44.44,0,0,0,31,35.87Z"/></clipPath><clipPath id="clip-path-4"><path class="cls-1" d="M21.06,40.47a.49.49,0,0,0-.67.14l-1.71,2.52a.45.45,0,0,0,.16.64.51.51,0,0,0,.67-.14l1.7-2.53A.43.43,0,0,0,21.06,40.47Z"/></clipPath><clipPath id="clip-path-5"><path class="cls-1" d="M26.42,40.47a.49.49,0,0,0-.67.14l-1.7,2.52a.44.44,0,0,0,.15.64.51.51,0,0,0,.67-.14l1.7-2.53A.43.43,0,0,0,26.42,40.47Z"/></clipPath><clipPath id="clip-path-6"><path class="cls-1" d="M32.17,40.47a.5.5,0,0,0-.68.14l-1.7,2.52a.45.45,0,0,0,.15.64.48.48,0,0,0,.26.07.5.5,0,0,0,.42-.21l1.7-2.53A.44.44,0,0,0,32.17,40.47Z"/></clipPath><clipPath id="clip-path-7"><path class="cls-1" d="M31.42,32H17.1a7.16,7.16,0,0,1-6.38-10.5,1.74,1.74,0,0,0,.1-.19,7.25,7.25,0,0,1,.53-.79l.15-.2a8.18,8.18,0,0,1,.64-.68l.18-.17a7.25,7.25,0,0,1,.76-.58l.18-.12a7.34,7.34,0,0,1,.92-.49l.1,0a7,7,0,0,1,1.12-.37h0a7.13,7.13,0,0,1,2.73-.13A1,1,0,0,0,19.21,17a.94.94,0,0,0-.8-1.06,9.13,9.13,0,0,0-1.88-.07,8.21,8.21,0,0,1,13.58-2.32,12.64,12.64,0,0,0-1.49.29,10.21,10.21,0,0,0-6.18,4.86.92.92,0,0,0,.36,1.27.93.93,0,0,0,.46.12.94.94,0,0,0,.82-.48,8.34,8.34,0,0,1,5.05-4,8.46,8.46,0,0,1,2.68-.3h.07A8.36,8.36,0,0,1,31.42,32Zm5.1-17.24-.08-.06-.27-.14L36,14.52a10.33,10.33,0,0,0-3.57-1A10.16,10.16,0,0,0,24.08,9a10,10,0,0,0-9.67,7.23l-.3.11-.34.11a9.19,9.19,0,0,0-4.12,3.24v0a6.33,6.33,0,0,0-.39.61l-.05.07c-.11.2-.21.39-.31.6a1.17,1.17,0,0,0-.05.11c-.09.2-.17.4-.25.61a.25.25,0,0,1,0,.07v0A9,9,0,0,0,17.1,33.88H31.42a10.21,10.21,0,0,0,5.1-19.1Z"/></clipPath><clipPath id="clip-path-8"><path class="cls-1" d="M46.58,62.87a.5.5,0,0,0-.67.14l-1.7,2.53a.43.43,0,0,0,.15.63.5.5,0,0,0,.26.08A.49.49,0,0,0,45,66l1.7-2.52A.44.44,0,0,0,46.58,62.87Z"/></clipPath><clipPath id="clip-path-9"><path class="cls-1" d="M52.33,62.87a.51.51,0,0,0-.68.14L50,65.54a.44.44,0,0,0,.15.63.5.5,0,0,0,.26.08.51.51,0,0,0,.42-.22l1.7-2.52A.45.45,0,0,0,52.33,62.87Z"/></clipPath><clipPath id="clip-path-10"><path class="cls-1" d="M58.07,62.87a.5.5,0,0,0-.67.14l-1.7,2.53a.43.43,0,0,0,.15.63.5.5,0,0,0,.26.08.49.49,0,0,0,.41-.22l1.7-2.52A.44.44,0,0,0,58.07,62.87Z"/></clipPath><clipPath id="clip-path-11"><path class="cls-1" d="M63.43,62.87a.5.5,0,0,0-.67.15l-1.7,2.52a.43.43,0,0,0,.15.63.5.5,0,0,0,.26.08.49.49,0,0,0,.41-.22l1.71-2.52A.45.45,0,0,0,63.43,62.87Z"/></clipPath><clipPath id="clip-path-12"><path class="cls-1" d="M48.12,67.47a.5.5,0,0,0-.68.14l-1.7,2.52a.44.44,0,0,0,.15.64.48.48,0,0,0,.26.07.51.51,0,0,0,.42-.21l1.7-2.53A.45.45,0,0,0,48.12,67.47Z"/></clipPath><clipPath id="clip-path-13"><path class="cls-1" d="M53.48,67.47a.5.5,0,0,0-.68.14l-1.7,2.52a.45.45,0,0,0,.15.64.48.48,0,0,0,.26.07.51.51,0,0,0,.42-.21l1.7-2.53A.44.44,0,0,0,53.48,67.47Z"/></clipPath><clipPath id="clip-path-14"><path class="cls-1" d="M59.22,67.47a.49.49,0,0,0-.67.14l-1.71,2.52a.45.45,0,0,0,.16.64.51.51,0,0,0,.67-.14l1.7-2.53A.43.43,0,0,0,59.22,67.47Z"/></clipPath><clipPath id="clip-path-15"><path class="cls-1" d="M64.58,67.47a.49.49,0,0,0-.67.14l-1.7,2.52a.44.44,0,0,0,.15.64.51.51,0,0,0,.67-.14l1.7-2.53A.43.43,0,0,0,64.58,67.47Z"/></clipPath><clipPath id="clip-path-16"><path class="cls-1" d="M61.79,59H47.48a7.21,7.21,0,0,1-7.22-7.17,7.09,7.09,0,0,1,.84-3.33,1.74,1.74,0,0,1,.1-.19,6,6,0,0,1,.52-.79l.15-.2a8.18,8.18,0,0,1,.64-.68c.06,0,.12-.12.19-.17a7.13,7.13,0,0,1,.75-.58l.18-.12a7.34,7.34,0,0,1,.92-.49l.1,0a7.11,7.11,0,0,1,1.13-.37h0a7.14,7.14,0,0,1,2.73-.13A1,1,0,0,0,49.58,44a.94.94,0,0,0-.8-1.06,9,9,0,0,0-1.87-.07,8.2,8.2,0,0,1,13.57-2.32A12.64,12.64,0,0,0,59,40.8a10.24,10.24,0,0,0-6.18,4.86.94.94,0,0,0,1.64.91,8.4,8.4,0,0,1,7.73-4.27h.08A8.36,8.36,0,0,1,61.79,59Zm5.1-17.24-.07-.06-.28-.14-.13-.06a10.33,10.33,0,0,0-3.57-1.05A10.16,10.16,0,0,0,54.45,36a10,10,0,0,0-9.67,7.23l-.29.11-.34.11A9.16,9.16,0,0,0,40,46.68v0a6.33,6.33,0,0,0-.39.61l0,.07c-.11.2-.21.39-.31.6a1.17,1.17,0,0,0,0,.11c-.09.2-.17.4-.25.61l0,.07v0a8.91,8.91,0,0,0-.54,3.06,9.06,9.06,0,0,0,9.09,9H61.79a10.21,10.21,0,0,0,5.1-19.1Z"/></clipPath></defs><title>Weather Icons_20200701</title><g id="_19" data-name="19"><g class="cls-2"><g class="cls-3"><rect class="cls-4" x="15.2" y="33.93" width="6.43" height="7.19"/></g><g class="cls-5"><rect class="cls-4" x="20.95" y="33.93" width="6.43" height="7.19"/></g><g class="cls-6"><rect class="cls-4" x="26.69" y="33.93" width="6.43" height="7.19"/></g><g class="cls-7"><rect class="cls-4" x="16.74" y="38.52" width="6.43" height="7.19"/></g><g class="cls-8"><rect class="cls-4" x="22.1" y="38.52" width="6.43" height="7.19"/></g><g class="cls-9"><rect class="cls-4" x="27.84" y="38.52" width="6.43" height="7.19"/></g><g class="cls-10"><rect class="cls-4" x="6.14" y="7.12" width="37.45" height="28.64"/></g></g><g class="cls-2"><g class="cls-11"><rect class="cls-4" x="42.26" y="60.93" width="6.43" height="7.19"/></g><g class="cls-12"><rect class="cls-4" x="48" y="60.93" width="6.43" height="7.19"/></g><g class="cls-13"><rect class="cls-4" x="53.75" y="60.93" width="6.43" height="7.19"/></g><g class="cls-14"><rect class="cls-4" x="59.11" y="60.93" width="6.43" height="7.19"/></g><g class="cls-15"><rect class="cls-4" x="43.79" y="65.52" width="6.43" height="7.19"/></g><g class="cls-16"><rect class="cls-4" x="49.15" y="65.52" width="6.43" height="7.19"/></g><g class="cls-17"><rect class="cls-4" x="54.9" y="65.52" width="6.43" height="7.19"/></g><g class="cls-18"><rect class="cls-4" x="60.26" y="65.52" width="6.43" height="7.19"/></g><g class="cls-19"><rect class="cls-4" x="36.51" y="34.12" width="37.45" height="28.64"/></g></g><path class="cls-20" d="M68.25,26.21a1.5,1.5,0,0,0-2,.67l-1.51,3A23.4,23.4,0,0,0,46.05,15.74,1.51,1.51,0,0,0,44.37,17a1.5,1.5,0,0,0,1.3,1.67A20.43,20.43,0,0,1,62,31.1l-2.92-1a1.5,1.5,0,1,0-1,2.84l6,2h0a1.54,1.54,0,0,0,.42.07h0A1.2,1.2,0,0,0,65,35l.13,0,.27-.13.13-.11.19-.19s.07-.1.11-.15a1.48,1.48,0,0,0,.08-.13l3-6A1.5,1.5,0,0,0,68.25,26.21Z"/></g></svg>