<svg xmlns="http://www.w3.org/2000/svg" xmlns:xlink="http://www.w3.org/1999/xlink" viewBox="0 0 80 80"><defs><style>.cls-1{fill:none;}.cls-2{opacity:0.5;}.cls-3{fill:#3a66c7;}.cls-4{clip-path:url(#clip-path);}</style><clipPath id="clip-path"><path class="cls-1" d="M52.34,50.62H26.45a13,13,0,0,1-13-13,12.82,12.82,0,0,1,1.51-6,2.79,2.79,0,0,1,.18-.34,12.23,12.23,0,0,1,1-1.43l.27-.36a12,12,0,0,1,1.15-1.22c.11-.11.22-.22.34-.32a14,14,0,0,1,1.36-1l.33-.22a12,12,0,0,1,1.67-.88l.17-.08a13.82,13.82,0,0,1,2-.68h0a13,13,0,0,1,4.94-.24,1.69,1.69,0,1,0,.5-3.35,16.88,16.88,0,0,0-3.4-.12A14.82,14.82,0,0,1,50,17.17a20.92,20.92,0,0,0-2.69.52,18.53,18.53,0,0,0-11.18,8.78,1.68,1.68,0,0,0,.65,2.3,1.79,1.79,0,0,0,.83.21,1.7,1.7,0,0,0,1.49-.86A15.23,15.23,0,0,1,53,20.4l.13,0a15.11,15.11,0,0,1-.83,30.2Zm9.21-31.16s-.08-.08-.13-.11-.34-.16-.5-.25L60.68,19a18.57,18.57,0,0,0-6.45-1.9A18.38,18.38,0,0,0,39.06,9,18.11,18.11,0,0,0,21.57,22.06l-.53.19-.61.22A16.32,16.32,0,0,0,13,28.31s0,0,0,0c-.25.35-.49.72-.71,1.1,0,0-.05.09-.08.14-.2.35-.38.71-.56,1.07l-.09.2c-.17.36-.32.73-.46,1.1L11,32.1v0a16.22,16.22,0,0,0-1,5.54A16.41,16.41,0,0,0,26.45,54H52.34a18.46,18.46,0,0,0,9.21-34.54Z"/></clipPath></defs><title>Weather Icons_20200701</title><g id="_19" data-name="19"><g class="cls-2"><path class="cls-3" d="M52.1,62.89l-1.3-.47,1-1.07a.81.81,0,0,0-.08-1.18.92.92,0,0,0-1.24,0l-.71.74-.21-1.09a.81.81,0,0,0-1-.62.93.93,0,0,0-.42.24.89.89,0,0,0-.26.8l.22,1.15L46.93,61a.82.82,0,0,0-1,.55.91.91,0,0,0,0,.49.89.89,0,0,0,.55.63l1.3.47-1,1.07a.8.8,0,0,0,.08,1.18,1,1,0,0,0,.44.21.88.88,0,0,0,.8-.26l.71-.74.21,1.1a.81.81,0,0,0,1,.62.92.92,0,0,0,.68-1l-.22-1.15,1.18.44a.8.8,0,0,0,1-.54A.92.92,0,0,0,52.1,62.89Z"/><path class="cls-3" d="M36.1,62.89l-1.3-.47,1-1.07a.81.81,0,0,0-.08-1.18.92.92,0,0,0-1.24,0l-.71.74-.21-1.09a.81.81,0,0,0-1-.62.93.93,0,0,0-.42.24.89.89,0,0,0-.26.8l.22,1.15L30.93,61a.82.82,0,0,0-1.05.55.91.91,0,0,0,0,.49.89.89,0,0,0,.55.63l1.3.47-1,1.07a.8.8,0,0,0,.08,1.18,1,1,0,0,0,.44.21.88.88,0,0,0,.8-.26l.71-.74.21,1.1a.81.81,0,0,0,1,.62.92.92,0,0,0,.68-1l-.22-1.15,1.18.44a.8.8,0,0,0,1-.54A.92.92,0,0,0,36.1,62.89Z"/><g class="cls-4"><rect class="cls-3" x="6.63" y="5.61" width="67.7" height="51.78"/></g></g></g></svg>