<svg xmlns="http://www.w3.org/2000/svg" xmlns:xlink="http://www.w3.org/1999/xlink" viewBox="0 0 80 80"><defs><style>.cls-1{fill:none;}.cls-2{opacity:0.5;}.cls-3{clip-path:url(#clip-path);}.cls-4{fill:#3a66c7;}.cls-5{clip-path:url(#clip-path-2);}.cls-6{clip-path:url(#clip-path-3);}.cls-7{clip-path:url(#clip-path-4);}.cls-8{clip-path:url(#clip-path-5);}.cls-9{clip-path:url(#clip-path-6);}.cls-10{clip-path:url(#clip-path-7);}.cls-11{clip-path:url(#clip-path-8);}.cls-12{clip-path:url(#clip-path-9);}.cls-13{clip-path:url(#clip-path-10);}.cls-14{clip-path:url(#clip-path-11);}</style><clipPath id="clip-path"><path class="cls-1" d="M50.53,15.48a.73.73,0,0,1-.73-.72V10.11a.73.73,0,0,1,.73-.73.73.73,0,0,1,.72.73v4.65A.72.72,0,0,1,50.53,15.48Z"/></clipPath><clipPath id="clip-path-2"><path class="cls-1" d="M58.71,17.14a.7.7,0,0,1-.62.37.71.71,0,0,1-.37-.1.73.73,0,0,1-.26-1l2.32-4a.73.73,0,0,1,1-.26.72.72,0,0,1,.27,1Z"/></clipPath><clipPath id="clip-path-3"><path class="cls-1" d="M63.26,21.69l4-2.33A.73.73,0,0,1,68,20.62l-4,2.32a.65.65,0,0,1-.36.1.74.74,0,0,1-.63-.36A.72.72,0,0,1,63.26,21.69Z"/></clipPath><clipPath id="clip-path-4"><path class="cls-1" d="M64.92,29.88a.73.73,0,0,1,.73-.73H70.3a.73.73,0,0,1,.72.73.72.72,0,0,1-.72.72H65.65A.73.73,0,0,1,64.92,29.88Z"/></clipPath><clipPath id="clip-path-5"><path class="cls-1" d="M64,36.81l4,2.32a.71.71,0,0,1,.26,1,.7.7,0,0,1-.62.37.78.78,0,0,1-.36-.1l-4-2.33a.72.72,0,0,1-.27-1A.73.73,0,0,1,64,36.81Z"/></clipPath><clipPath id="clip-path-6"><path class="cls-1" d="M12.69,40a12.1,12.1,0,0,1,.06-1.21c0-.19.05-.37.07-.55s.06-.41.1-.6.1-.49.15-.72.07-.24.1-.36c.08-.28.16-.56.26-.84a.88.88,0,0,0,.05-.15,13.25,13.25,0,0,1,3.57-5.24h0c.25-.22.51-.44.78-.64l.12-.1c.25-.18.5-.36.76-.52l.22-.13.75-.44.26-.11a12.43,12.43,0,0,1,2.64-1l.34-.08.19-.05a13.34,13.34,0,0,1,2.54-.25,12.77,12.77,0,0,1,8,2.77,1.45,1.45,0,0,0,1.79-2.28,15.7,15.7,0,0,0-9.8-3.39c-.42,0-.84,0-1.25.07a12.62,12.62,0,0,1,24.74,3.57c0,.27,0,.54,0,.8s0,.54-.09.84L49,30a12.47,12.47,0,0,1-2.58,5.71,1.45,1.45,0,0,0,.22,2,1.42,1.42,0,0,0,.9.32,1.45,1.45,0,0,0,1.13-.54,15.6,15.6,0,0,0,3-6A11.11,11.11,0,0,1,47.73,53H25.66A13,13,0,0,1,12.69,40Zm46.36-6.37a14,14,0,0,0-7-5.11c0-.26,0-.51,0-.75a15.4,15.4,0,0,0-1.82-7.28l.3,0a9.37,9.37,0,0,1,9.36,9.37A9.25,9.25,0,0,1,59.05,33.67ZM9.79,40A15.89,15.89,0,0,0,25.66,55.91H47.73a14,14,0,0,0,14-14,13.74,13.74,0,0,0-1-5.23,12.07,12.07,0,0,0,2.08-6.78A12.28,12.28,0,0,0,50.53,17.61a11.59,11.59,0,0,0-2.14.2,15.52,15.52,0,0,0-27.11,7l-.1,0c-.26.07-.51.16-.77.25l-.57.21c-.26.1-.51.21-.76.33l-.47.23q-.42.2-.81.42l-.27.17a15.88,15.88,0,0,0-6.87,8.47.14.14,0,0,0,0,.06c-.11.31-.2.63-.29,1l-.12.47c-.06.27-.12.53-.17.8s-.08.51-.12.77,0,.4-.07.61A14.13,14.13,0,0,0,9.79,40Z"/></clipPath><clipPath id="clip-path-7"><path class="cls-1" d="M27,58.25a.89.89,0,0,0-1.17.25l-2.93,4.35a.77.77,0,0,0,.26,1.1.87.87,0,0,0,1.17-.24l2.93-4.36A.77.77,0,0,0,27,58.25Z"/></clipPath><clipPath id="clip-path-8"><path class="cls-1" d="M36.86,58.25a.89.89,0,0,0-1.17.25l-2.93,4.35A.77.77,0,0,0,33,64a.9.9,0,0,0,.45.13.87.87,0,0,0,.71-.37l2.94-4.36A.77.77,0,0,0,36.86,58.25Z"/></clipPath><clipPath id="clip-path-9"><path class="cls-1" d="M46.76,58.25a.88.88,0,0,0-1.16.25l-2.94,4.35a.77.77,0,0,0,.26,1.1.94.94,0,0,0,.46.13.89.89,0,0,0,.71-.37L47,59.35A.77.77,0,0,0,46.76,58.25Z"/></clipPath><clipPath id="clip-path-10"><path class="cls-1" d="M29.59,66.18a.87.87,0,0,0-1.16.25l-2.94,4.35a.77.77,0,0,0,.26,1.1.92.92,0,0,0,.45.12.86.86,0,0,0,.72-.37l2.93-4.35A.77.77,0,0,0,29.59,66.18Z"/></clipPath><clipPath id="clip-path-11"><path class="cls-1" d="M48.74,66.18a.87.87,0,0,0-1.16.25l-2.94,4.35a.77.77,0,0,0,.27,1.1.89.89,0,0,0,.45.12.85.85,0,0,0,.71-.37L49,67.28A.77.77,0,0,0,48.74,66.18Z"/></clipPath></defs><title>Weather Icons_20200701</title><g id="_19" data-name="19"><g class="cls-2"><g class="cls-3"><rect class="cls-4" x="46.4" y="5.98" width="8.26" height="12.9"/></g><g class="cls-5"><rect class="cls-4" x="53.96" y="8.63" width="10.58" height="12.28"/></g><g class="cls-6"><rect class="cls-4" x="59.49" y="15.86" width="12.28" height="10.58"/></g><g class="cls-7"><rect class="cls-4" x="61.52" y="25.75" width="12.91" height="8.26"/></g><g class="cls-8"><rect class="cls-4" x="59.49" y="33.31" width="12.28" height="10.58"/></g><g class="cls-9"><rect class="cls-4" x="6.39" y="8.86" width="59.81" height="50.45"/></g><g class="cls-10"><rect class="cls-4" x="19.49" y="54.9" width="11.08" height="12.4"/></g><g class="cls-11"><rect class="cls-4" x="29.4" y="54.9" width="11.08" height="12.4"/></g><g class="cls-12"><rect class="cls-4" x="39.3" y="54.9" width="11.08" height="12.4"/></g><g class="cls-13"><rect class="cls-4" x="22.13" y="62.83" width="11.08" height="12.4"/></g><g class="cls-14"><rect class="cls-4" x="41.28" y="62.83" width="11.08" height="12.4"/></g><path class="cls-4" d="M40.49,68.41l-1.29-.47,1-1.07a.8.8,0,0,0-.07-1.18.93.93,0,0,0-1.25,0l-.71.74L38,65.39a.8.8,0,0,0-1-.62.92.92,0,0,0-.69,1L36.51,67l-1.19-.43a.8.8,0,0,0-1,.54.91.91,0,0,0,0,.49.89.89,0,0,0,.55.63l1.3.47-1,1.07a.8.8,0,0,0,.07,1.18,1,1,0,0,0,.44.21.91.91,0,0,0,.81-.26l.7-.74.22,1.1a.8.8,0,0,0,1,.62.92.92,0,0,0,.68-1l-.22-1.14,1.19.43a.8.8,0,0,0,1-.54A.93.93,0,0,0,40.49,68.41Z"/></g></g></svg>