<svg xmlns="http://www.w3.org/2000/svg" xmlns:xlink="http://www.w3.org/1999/xlink" viewBox="0 0 80 80"><defs><style>.cls-1{fill:none;}.cls-2,.cls-6{opacity:0.5;}.cls-3,.cls-6{fill:#3a66c7;}.cls-4{clip-path:url(#clip-path);}.cls-5{clip-path:url(#clip-path-2);}</style><clipPath id="clip-path"><path class="cls-1" d="M32.07,32.65H17.36A7.34,7.34,0,0,1,10.8,21.86l.1-.19a8.77,8.77,0,0,1,.54-.81c.06-.07.1-.14.16-.2a7.18,7.18,0,0,1,.65-.7l.19-.18q.38-.32.78-.6l.18-.12a9.49,9.49,0,0,1,.95-.5l.1,0a7.53,7.53,0,0,1,1.16-.39h0A7.35,7.35,0,0,1,18.42,18a1,1,0,1,0,.28-1.9A9.62,9.62,0,0,0,16.77,16a8.42,8.42,0,0,1,14-2.38,11.81,11.81,0,0,0-1.53.3,10.46,10.46,0,0,0-6.35,5,.94.94,0,0,0,.37,1.3,1,1,0,0,0,.47.12.94.94,0,0,0,.84-.49,8.71,8.71,0,0,1,8-4.39l.07,0a8.58,8.58,0,0,1-.47,17.16Zm5.24-17.71s-.05,0-.08-.06L37,14.74l-.14-.07a10.62,10.62,0,0,0-3.66-1.07A10.45,10.45,0,0,0,24.53,9a10.31,10.31,0,0,0-10,7.43l-.3.11-.35.12A9.37,9.37,0,0,0,9.69,20s0,0,0,0c-.14.2-.27.41-.4.63a.56.56,0,0,0,0,.08c-.11.2-.21.4-.31.61l-.06.11c-.09.21-.18.41-.26.63l0,.08h0A9.2,9.2,0,0,0,8,25.29a9.32,9.32,0,0,0,9.35,9.28H32.07a10.49,10.49,0,0,0,5.24-19.63Z"/></clipPath><clipPath id="clip-path-2"><path class="cls-1" d="M61.83,62.65H47.11a7.4,7.4,0,0,1-7.41-7.36,7.27,7.27,0,0,1,.86-3.43,1.74,1.74,0,0,1,.1-.19,7.13,7.13,0,0,1,.54-.81l.15-.2A6.22,6.22,0,0,1,42,50l.19-.18a8,8,0,0,1,.78-.6l.18-.12a9.49,9.49,0,0,1,1-.5l.1,0a7.41,7.41,0,0,1,1.15-.39h0A7.35,7.35,0,0,1,48.18,48a1,1,0,1,0,.28-1.9A9.65,9.65,0,0,0,46.53,46a8.41,8.41,0,0,1,13.94-2.38,11.34,11.34,0,0,0-1.52.3,10.5,10.5,0,0,0-6.36,5,1,1,0,0,0,.37,1.3,1,1,0,0,0,.47.12,1,1,0,0,0,.85-.49,8.69,8.69,0,0,1,7.94-4.39l.08,0a8.59,8.59,0,0,1-.47,17.16Zm5.23-17.71s0,0-.07-.06l-.29-.14-.13-.07A10.61,10.61,0,0,0,62.9,43.6,10.44,10.44,0,0,0,54.28,39a10.28,10.28,0,0,0-9.94,7.43l-.3.11-.35.12A9.27,9.27,0,0,0,39.45,50v0a6.73,6.73,0,0,0-.4.63.56.56,0,0,0,0,.08c-.11.2-.22.4-.32.61a1.17,1.17,0,0,1-.05.11c-.1.21-.18.41-.26.63l0,.08h0a9.44,9.44,0,0,0-.55,3.15,9.32,9.32,0,0,0,9.34,9.28H61.83a10.49,10.49,0,0,0,5.23-19.63Z"/></clipPath></defs><title>Weather Icons_20200701</title><g id="_19" data-name="19"><g class="cls-2"><path class="cls-3" d="M26.25,39.63l-.73-.27.57-.61a.45.45,0,0,0,0-.67.53.53,0,0,0-.71,0l-.4.42-.12-.62a.45.45,0,0,0-.57-.35.48.48,0,0,0-.25.14.52.52,0,0,0-.14.45l.13.65-.68-.24a.46.46,0,0,0-.6.3.66.66,0,0,0,0,.28.51.51,0,0,0,.31.36l.74.27-.58.61a.46.46,0,0,0,.05.67.58.58,0,0,0,.25.12.53.53,0,0,0,.45-.15l.41-.42.12.62a.46.46,0,0,0,.57.36.54.54,0,0,0,.39-.6l-.13-.65.67.24a.45.45,0,0,0,.6-.3A.52.52,0,0,0,26.25,39.63Z"/><g class="cls-4"><rect class="cls-3" x="6.09" y="7.07" width="38.48" height="29.43"/></g></g><g class="cls-2"><path class="cls-3" d="M61.69,69.63,61,69.36l.57-.61a.45.45,0,0,0,0-.67.53.53,0,0,0-.71,0l-.4.42-.12-.62a.45.45,0,0,0-.57-.35.48.48,0,0,0-.25.14.52.52,0,0,0-.14.45l.13.65-.68-.24a.44.44,0,0,0-.59.3.54.54,0,0,0,0,.28.51.51,0,0,0,.31.36l.74.27-.58.61a.46.46,0,0,0,.05.67.58.58,0,0,0,.25.12.56.56,0,0,0,.46-.15l.4-.42.12.62a.46.46,0,0,0,.57.36.54.54,0,0,0,.39-.6l-.13-.65.67.24a.45.45,0,0,0,.6-.3A.52.52,0,0,0,61.69,69.63Z"/><path class="cls-3" d="M52.6,69.63l-.74-.27.58-.61a.46.46,0,0,0,0-.67.52.52,0,0,0-.7,0l-.4.42-.13-.62a.45.45,0,0,0-.57-.35.54.54,0,0,0-.39.59l.13.65-.67-.24a.46.46,0,0,0-.6.3.54.54,0,0,0,0,.28.52.52,0,0,0,.32.36l.74.27-.58.61a.45.45,0,0,0,0,.67.64.64,0,0,0,.25.12.55.55,0,0,0,.46-.15l.4-.42.12.62a.47.47,0,0,0,.57.36.53.53,0,0,0,.39-.6l-.12-.65.67.24a.45.45,0,0,0,.6-.3A.52.52,0,0,0,52.6,69.63Z"/><g class="cls-5"><rect class="cls-3" x="35.85" y="37.07" width="38.48" height="29.43"/></g></g><path class="cls-6" d="M68.25,24.21a1.5,1.5,0,0,0-2,.67l-1.51,3A23.4,23.4,0,0,0,46.05,13.74,1.51,1.51,0,0,0,44.37,15a1.5,1.5,0,0,0,1.3,1.67A20.43,20.43,0,0,1,62,29.1l-2.92-1a1.5,1.5,0,1,0-1,2.84l6,2h0a1.54,1.54,0,0,0,.42.07h0A1.2,1.2,0,0,0,65,33l.13,0,.27-.13.13-.11.19-.19s.07-.1.11-.15a1.48,1.48,0,0,0,.08-.13l3-6A1.5,1.5,0,0,0,68.25,24.21Z"/></g></svg>