<svg xmlns="http://www.w3.org/2000/svg" xmlns:xlink="http://www.w3.org/1999/xlink" viewBox="0 0 80 80"><defs><style>.cls-1{fill:none;}.cls-2,.cls-6{opacity:0.5;}.cls-3,.cls-6{fill:#3a66c7;}.cls-4{clip-path:url(#clip-path);}.cls-5{clip-path:url(#clip-path-2);}</style><clipPath id="clip-path"><path class="cls-1" d="M31.83,32.65H17.11A7.4,7.4,0,0,1,9.7,25.29a7.27,7.27,0,0,1,.86-3.43,1.74,1.74,0,0,1,.1-.19,7.13,7.13,0,0,1,.54-.81l.15-.2A6.22,6.22,0,0,1,12,20l.19-.18a8,8,0,0,1,.78-.6l.18-.12a9.49,9.49,0,0,1,.95-.5l.1,0a7.41,7.41,0,0,1,1.15-.39h0A7.35,7.35,0,0,1,18.18,18a1,1,0,0,0,.28-1.9A9.65,9.65,0,0,0,16.53,16a8.41,8.41,0,0,1,13.94-2.38,11.34,11.34,0,0,0-1.52.3,10.5,10.5,0,0,0-6.36,5,1,1,0,0,0,.37,1.3,1,1,0,0,0,.47.12,1,1,0,0,0,.85-.49,8.69,8.69,0,0,1,7.94-4.39l.08,0a8.59,8.59,0,0,1-.47,17.16Zm5.23-17.71s0,0-.07-.06l-.29-.14-.13-.07A10.61,10.61,0,0,0,32.9,13.6,10.44,10.44,0,0,0,24.28,9a10.28,10.28,0,0,0-9.94,7.43l-.3.11-.35.12A9.27,9.27,0,0,0,9.45,20a0,0,0,0,1,0,0,6.73,6.73,0,0,0-.4.63.56.56,0,0,0,0,.08c-.11.2-.22.4-.32.61a1.17,1.17,0,0,1-.05.11c-.1.21-.18.41-.26.63l0,.08h0a9.44,9.44,0,0,0-.55,3.15,9.32,9.32,0,0,0,9.34,9.28H31.83a10.49,10.49,0,0,0,5.23-19.63Z"/></clipPath><clipPath id="clip-path-2"><path class="cls-1" d="M61.6,58.65H46.89a7.36,7.36,0,0,1-6.56-10.79l.11-.19a7.13,7.13,0,0,1,.54-.81l.15-.2a7.18,7.18,0,0,1,.65-.7l.2-.18a9.29,9.29,0,0,1,.77-.6l.19-.12a9.49,9.49,0,0,1,1-.5l.1,0a7.41,7.41,0,0,1,1.15-.39h0A7.35,7.35,0,0,1,48,44a1,1,0,1,0,.27-1.9A9.59,9.59,0,0,0,46.3,42a8.42,8.42,0,0,1,14-2.38,11.34,11.34,0,0,0-1.52.3,10.5,10.5,0,0,0-6.36,5,1,1,0,0,0,.37,1.3,1,1,0,0,0,.47.12,1,1,0,0,0,.85-.49A8.69,8.69,0,0,1,62,41.47l.08,0a8.59,8.59,0,0,1-.48,17.16Zm5.24-17.71s0,0-.07-.06l-.29-.14-.13-.07a10.68,10.68,0,0,0-3.67-1.07A10.44,10.44,0,0,0,54.06,35a10.28,10.28,0,0,0-9.94,7.43l-.3.11-.35.12A9.27,9.27,0,0,0,39.23,46a0,0,0,0,0,0,0,6.81,6.81,0,0,0-.41.63.59.59,0,0,0,0,.08c-.11.2-.22.4-.32.61l-.05.11c-.1.21-.18.41-.26.63a.59.59,0,0,0,0,.08h0a9.19,9.19,0,0,0-.55,3.15,9.32,9.32,0,0,0,9.34,9.28H61.6a10.49,10.49,0,0,0,5.24-19.63Z"/></clipPath></defs><title>Weather Icons_20200701</title><g id="_19" data-name="19"><g class="cls-2"><path class="cls-3" d="M31.69,39.63,31,39.36l.57-.61a.45.45,0,0,0,0-.67.53.53,0,0,0-.71,0l-.4.42-.12-.62a.45.45,0,0,0-.57-.35.48.48,0,0,0-.25.14.52.52,0,0,0-.14.45l.13.65-.68-.24a.44.44,0,0,0-.59.3.54.54,0,0,0,0,.28.51.51,0,0,0,.31.36l.74.27-.58.61a.46.46,0,0,0,.05.67.58.58,0,0,0,.25.12.56.56,0,0,0,.46-.15l.4-.42.12.62a.46.46,0,0,0,.57.36.54.54,0,0,0,.39-.6l-.13-.65.67.24a.45.45,0,0,0,.6-.3A.52.52,0,0,0,31.69,39.63Z"/><path class="cls-3" d="M22.6,39.63l-.74-.27.58-.61a.46.46,0,0,0-.05-.67.52.52,0,0,0-.7,0l-.4.42-.13-.62a.45.45,0,0,0-.57-.35.54.54,0,0,0-.39.59l.13.65-.67-.24a.46.46,0,0,0-.6.3.54.54,0,0,0,0,.28.52.52,0,0,0,.32.36l.74.27-.58.61a.45.45,0,0,0,0,.67.64.64,0,0,0,.25.12.55.55,0,0,0,.46-.15l.4-.42.12.62a.47.47,0,0,0,.57.36.53.53,0,0,0,.39-.6l-.12-.65.67.24a.45.45,0,0,0,.6-.3A.52.52,0,0,0,22.6,39.63Z"/><g class="cls-4"><rect class="cls-3" x="5.85" y="7.07" width="38.48" height="29.43"/></g></g><g class="cls-2"><path class="cls-3" d="M55.79,64.49l-.74-.27.58-.6a.46.46,0,0,0-.05-.67.52.52,0,0,0-.71,0l-.4.42-.12-.62a.47.47,0,0,0-.81-.21.51.51,0,0,0-.15.45l.13.65-.68-.24a.46.46,0,0,0-.59.31.53.53,0,0,0,0,.28.52.52,0,0,0,.32.36l.73.26-.57.61a.45.45,0,0,0,0,.67A.58.58,0,0,0,53,66a.5.5,0,0,0,.46-.15l.4-.42.12.63a.45.45,0,0,0,.57.35.52.52,0,0,0,.39-.6l-.13-.65.68.25a.45.45,0,0,0,.59-.31A.52.52,0,0,0,55.79,64.49Z"/><path class="cls-3" d="M49.53,69l-.73-.27.57-.61a.45.45,0,0,0,0-.67.53.53,0,0,0-.71,0l-.4.42-.12-.62a.45.45,0,0,0-.57-.35.42.42,0,0,0-.24.14.5.5,0,0,0-.15.45l.13.65L46.59,68a.44.44,0,0,0-.59.3.54.54,0,0,0,0,.28.49.49,0,0,0,.31.36l.74.27-.58.61a.46.46,0,0,0,0,.67.58.58,0,0,0,.25.12.56.56,0,0,0,.46-.15l.4-.42.12.62a.46.46,0,0,0,.57.36.53.53,0,0,0,.39-.6l-.13-.65.67.25a.46.46,0,0,0,.6-.31A.52.52,0,0,0,49.53,69Z"/><path class="cls-3" d="M62,69l-.74-.27.58-.61a.47.47,0,0,0,0-.67.53.53,0,0,0-.71,0l-.4.42-.13-.62A.45.45,0,0,0,60,67a.54.54,0,0,0-.39.59l.13.65L59.1,68a.46.46,0,0,0-.6.3.54.54,0,0,0,0,.28.51.51,0,0,0,.32.36l.74.27-.58.61a.45.45,0,0,0,0,.67.64.64,0,0,0,.25.12.55.55,0,0,0,.46-.15l.4-.42.12.62a.46.46,0,0,0,.57.36.53.53,0,0,0,.39-.6l-.12-.65.67.25a.46.46,0,0,0,.6-.31A.52.52,0,0,0,62,69Z"/><g class="cls-5"><rect class="cls-3" x="35.62" y="33.07" width="38.48" height="29.43"/></g></g><path class="cls-6" d="M67.25,24.21a1.5,1.5,0,0,0-2,.67l-1.51,3A23.4,23.4,0,0,0,45.05,13.74,1.51,1.51,0,0,0,43.37,15a1.5,1.5,0,0,0,1.3,1.67A20.43,20.43,0,0,1,61,29.1l-2.92-1a1.5,1.5,0,1,0-1,2.84l6,2h0a1.54,1.54,0,0,0,.42.07h0A1.2,1.2,0,0,0,64,33l.13,0,.27-.13.13-.11.19-.19s.07-.1.11-.15a1.48,1.48,0,0,0,.08-.13l3-6A1.5,1.5,0,0,0,67.25,24.21Z"/></g></svg>