<svg xmlns="http://www.w3.org/2000/svg" viewBox="0 0 80 80"><defs><style>.cls-1{opacity:0.5;}.cls-2{fill:#3a66c7;}</style></defs><title>Weather Icons_20200701</title><g id="_19" data-name="19"><g class="cls-1"><path class="cls-2" d="M14,46.19A3.22,3.22,0,1,0,17.23,43,3.22,3.22,0,0,0,14,46.19Z"/><path class="cls-2" d="M30.05,46.19A3.22,3.22,0,1,0,33.26,43,3.22,3.22,0,0,0,30.05,46.19Z"/><path class="cls-2" d="M46.08,46.19A3.22,3.22,0,1,0,49.29,43,3.21,3.21,0,0,0,46.08,46.19Z"/><path class="cls-2" d="M62.1,46.19A3.22,3.22,0,1,0,65.32,43,3.22,3.22,0,0,0,62.1,46.19Z"/><path class="cls-2" d="M43.46,34.72H14.19a2.1,2.1,0,0,1,0-4.2H43.46a2.1,2.1,0,1,1,0,4.2Zm23,0H51.86a2.1,2.1,0,0,1,0-4.2H66.44a2.1,2.1,0,1,1,0,4.2Z"/><path class="cls-2" d="M66.52,62H37.08a2.1,2.1,0,0,1,0-4.2H66.52a2.1,2.1,0,1,1,0,4.2ZM28.76,62H14.19a2.1,2.1,0,1,1,0-4.2H28.76a2.1,2.1,0,0,1,0,4.2Z"/><path class="cls-2" d="M14,20a3.22,3.22,0,1,0,3.21-3.22A3.21,3.21,0,0,0,14,20Z"/><path class="cls-2" d="M30.05,20a3.22,3.22,0,1,0,3.21-3.22A3.21,3.21,0,0,0,30.05,20Z"/><path class="cls-2" d="M46.08,20a3.22,3.22,0,1,0,3.21-3.22A3.21,3.21,0,0,0,46.08,20Z"/><path class="cls-2" d="M62.1,20a3.22,3.22,0,1,0,3.22-3.22A3.22,3.22,0,0,0,62.1,20Z"/></g></g></svg>