<svg xmlns="http://www.w3.org/2000/svg" viewBox="0 0 80 80"><defs><style>.cls-1,.cls-3{fill:#3a66c7;}.cls-1,.cls-2{opacity:0.5;}</style></defs><title>Weather Icons_20200701</title><g id="_19" data-name="19"><path class="cls-1" d="M12.82,39.9a3.63,3.63,0,1,0,3.63-3.63,3.62,3.62,0,0,0-3.63,3.63Z"/><path class="cls-1" d="M28.66,39.9a3.63,3.63,0,1,0,3.63-3.63,3.63,3.63,0,0,0-3.63,3.63Z"/><path class="cls-1" d="M21.11,28a3.63,3.63,0,1,0,3.63-3.63A3.63,3.63,0,0,0,21.11,28Z"/><path class="cls-1" d="M12.63,16.19a3.63,3.63,0,1,0,3.63-3.63A3.62,3.62,0,0,0,12.63,16.19Z"/><path class="cls-1" d="M28.66,16.19a3.63,3.63,0,1,0,3.63-3.63A3.63,3.63,0,0,0,28.66,16.19Z"/><path class="cls-1" d="M44.7,16.19a3.63,3.63,0,1,0,3.63-3.63A3.63,3.63,0,0,0,44.7,16.19Z"/><path class="cls-1" d="M37.75,28a3.63,3.63,0,1,0,3.63-3.63A3.63,3.63,0,0,0,37.75,28Z"/><path class="cls-1" d="M60.74,16.19a3.63,3.63,0,1,0,3.63-3.63A3.62,3.62,0,0,0,60.74,16.19Z"/><rect class="cls-1" x="12.42" y="61.64" width="55.89" height="4.31" rx="2.09"/><g class="cls-2"><path class="cls-3" d="M14.88,55.32a2.11,2.11,0,1,1,0-4.22c23.89-.08,40.92-.17,43.4-.24a6.35,6.35,0,0,0,1.28-.16,6.63,6.63,0,0,0,3.43-2,6.72,6.72,0,0,0,1.33-4.22c.06-1.33.24-5.38-2.68-7.25-2.07-1.32-5.52-1.4-7.35.57A5.16,5.16,0,0,0,53,41a2.11,2.11,0,0,1-4.22-.25,9.4,9.4,0,0,1,2.39-5.87c3.06-3.3,8.65-3.85,12.71-1.25,3.3,2.1,4.86,5.8,4.63,11a10.11,10.11,0,0,1-8,10.17,10.29,10.29,0,0,1-2.14.28c-2.54.07-19.21.16-43.5.24Z"/></g></g></svg>