<svg xmlns="http://www.w3.org/2000/svg" viewBox="0 0 80 80"><defs><style>.cls-1{fill:#3a66c7;opacity:0.5;}</style></defs><title>Weather Icons_20200701</title><g id="_19" data-name="19"><path class="cls-1" d="M70.63,63.1H10.4a2.32,2.32,0,0,1,0-4.63H70.63a2.32,2.32,0,1,1,0,4.63Zm0-12.35H10.4a2.32,2.32,0,0,1,0-4.64H70.63a2.32,2.32,0,1,1,0,4.64Z"/><path class="cls-1" d="M37.43,29.9a2.32,2.32,0,1,0,2.32-2.32A2.31,2.31,0,0,0,37.43,29.9Z"/><path class="cls-1" d="M18.9,29.9a2.32,2.32,0,1,0,4.63,0h0a2.32,2.32,0,1,0-4.63,0Z"/><path class="cls-1" d="M56,29.9a2.32,2.32,0,1,0,2.32-2.32A2.31,2.31,0,0,0,56,29.9Z"/><path class="cls-1" d="M9.63,39.16A2.32,2.32,0,1,0,12,36.85,2.32,2.32,0,0,0,9.63,39.16Z"/><path class="cls-1" d="M28.16,39.16a2.32,2.32,0,1,0,2.32-2.31A2.32,2.32,0,0,0,28.16,39.16Z"/><path class="cls-1" d="M46.69,39.16A2.32,2.32,0,1,0,49,36.85,2.32,2.32,0,0,0,46.69,39.16Z"/><path class="cls-1" d="M65.23,39.16a2.32,2.32,0,1,0,2.31-2.31A2.31,2.31,0,0,0,65.23,39.16Z"/><path class="cls-1" d="M9.63,20.63A2.32,2.32,0,1,0,12,18.31,2.32,2.32,0,0,0,9.63,20.63Z"/><path class="cls-1" d="M28.16,20.63a2.32,2.32,0,1,0,2.32-2.32A2.32,2.32,0,0,0,28.16,20.63Z"/><path class="cls-1" d="M46.69,20.63A2.32,2.32,0,1,0,49,18.31,2.32,2.32,0,0,0,46.69,20.63Z"/><path class="cls-1" d="M65.23,20.63a2.32,2.32,0,1,0,2.31-2.32A2.31,2.31,0,0,0,65.23,20.63Z"/></g></svg>