<svg xmlns="http://www.w3.org/2000/svg" viewBox="0 0 80 80"><defs><style>.cls-1{opacity:0.5;}.cls-2{fill:#3a66c7;}</style></defs><title>Weather Icons_20200701</title><g id="_19" data-name="19"><g class="cls-1"><path class="cls-2" d="M11.77,19.87a2.94,2.94,0,1,0-2.93-2.94,2.93,2.93,0,0,0,2.93,2.94m7,10a2.94,2.94,0,1,0-2.93-2.94,2.93,2.93,0,0,0,2.93,2.94m45-10a2.94,2.94,0,1,0-2.93-2.94,2.93,2.93,0,0,0,2.93,2.94m7,11a2.94,2.94,0,1,0-2.93-2.94,2.93,2.93,0,0,0,2.93,2.94m-7,11a2.94,2.94,0,1,0-2.93-2.94,2.93,2.93,0,0,0,2.93,2.94m-36.93-22a2.94,2.94,0,1,0-2.94-2.94,2.94,2.94,0,0,0,2.94,2.94M11.77,57.37a2.94,2.94,0,1,0,2.94,2.94,2.94,2.94,0,0,0-2.94-2.94m15.07,0a2.94,2.94,0,1,0,2.94,2.94,2.94,2.94,0,0,0-2.94-2.94m15.23,0A2.94,2.94,0,1,0,45,60.31a2.94,2.94,0,0,0-2.94-2.94"/><path class="cls-2" d="M8.64,36.94H46.77A9.88,9.88,0,1,0,38.27,22a2,2,0,1,0,3.37,2,6,6,0,1,1,5.13,9H8.64a2,2,0,1,0,0,3.92"/><path class="cls-2" d="M59.17,45.24H8.64a2,2,0,1,0,0,3.92H59.17a6,6,0,1,1-5.14,9,2,2,0,0,0-3.37,2,9.88,9.88,0,1,0,8.51-14.91"/></g></g></svg>