<svg xmlns="http://www.w3.org/2000/svg" viewBox="0 0 80 80"><defs><style>.cls-1{opacity:0.5;}.cls-2{fill:#3a66c7;}</style></defs><title>Weather Icons_20200701</title><g id="_19" data-name="19"><g class="cls-1"><path class="cls-2" d="M15.41,20.28a2.65,2.65,0,1,0-2.64-2.64,2.64,2.64,0,0,0,2.64,2.64"/><path class="cls-2" d="M31.7,20.28a2.65,2.65,0,1,0-2.64-2.64,2.64,2.64,0,0,0,2.64,2.64"/><path class="cls-2" d="M48,20.28a2.65,2.65,0,1,0-2.64-2.64A2.65,2.65,0,0,0,48,20.28"/><path class="cls-2" d="M31.7,58.72a2.64,2.64,0,1,0,2.64,2.64,2.64,2.64,0,0,0-2.64-2.64m16.29,0a2.64,2.64,0,1,0,2.64,2.64A2.64,2.64,0,0,0,48,58.72m16.28,0a2.64,2.64,0,1,0,2.64,2.64,2.64,2.64,0,0,0-2.64-2.64M56,49.88c-3.45,0-10-6.12-14.07-10.65,4-4.53,10.62-10.66,14.07-10.66,5,0,9,4.78,9,10.66S61,49.88,56,49.88m-32.41,0c-5,0-9-4.78-9-10.65s4.06-10.66,9-10.66c3.45,0,10,6.13,14.07,10.66-4,4.53-10.62,10.65-14.07,10.65m45-10.65c0-7.82-5.64-14.18-12.56-14.18-3,0-6.78,2.19-11.63,6.68-1.85,1.71-3.47,3.41-4.58,4.63-1.1-1.22-2.72-2.92-4.57-4.63-4.85-4.49-8.65-6.68-11.63-6.68C16.65,25.05,11,31.41,11,39.23S16.65,53.4,23.57,53.4c3,0,6.78-2.18,11.63-6.67,1.85-1.72,3.47-3.42,4.57-4.63,1.11,1.21,2.73,2.91,4.58,4.63C49.2,51.22,53,53.4,56,53.4c6.92,0,12.56-6.36,12.56-14.17"/></g></g></svg>