<svg xmlns="http://www.w3.org/2000/svg" viewBox="0 0 80 80"><defs><style>.cls-1{fill:#3a66c7;opacity:0.5;}</style></defs><title>Weather Icons_20200701</title><g id="_19" data-name="19"><path class="cls-1" d="M66,43.3H14.29a2.09,2.09,0,0,1-2.09-2.08v-.14A2.1,2.1,0,0,1,14.29,39H66a2.1,2.1,0,0,1,2.09,2.09v.14A2.1,2.1,0,0,1,66,43.3ZM65.93,58H37.83a2.16,2.16,0,0,1,0-4.31h28.1a2.16,2.16,0,1,1,0,4.31ZM42.23,28.6H14.36a2.16,2.16,0,1,1,0-4.31H42.23a2.16,2.16,0,1,1,0,4.31Zm23.57,0H50.86a2.16,2.16,0,1,1,0-4.31H65.8a2.16,2.16,0,1,1,0,4.31Zm.09-14.7H14.17a2.09,2.09,0,0,1-2.08-2.09v-.13a2.09,2.09,0,0,1,2.08-2.09H65.89A2.09,2.09,0,0,1,68,11.68v.13A2.09,2.09,0,0,1,65.89,13.9Zm0,58H14.17a2.09,2.09,0,0,1-2.08-2.09v-.13a2.09,2.09,0,0,1,2.08-2.09H65.89A2.09,2.09,0,0,1,68,69.68v.13A2.09,2.09,0,0,1,65.89,71.9ZM29.3,58H14.36a2.16,2.16,0,1,1,0-4.31H29.3a2.16,2.16,0,1,1,0,4.31Z"/></g></svg>